<svg xmlns="http://www.w3.org/2000/svg" width="120" height="120" fill="none" viewBox="0 0 120 120"><rect width="120" height="120" fill="#3c6387" rx="16"/><path fill="#fff" d="M73.7363 47.659c1.342-.8706 2.6148-1.7032 3.8947-2.5245 3.2484-2.087 6.0001-4.5621 8.3905-7.3279 1.7653-2.0419 3.381-4.1374 4.7922-6.3049 1.699-2.6091 2.715-5.2366 3.0734-7.8867a6.3 6.3 0 0 1 .2653-1.1402c.0395-.1185.2653-.309.4021-.3401.151-.0352.3514.0353.4347.1299.0875.0987.0649.2765.086.4219.5109 3.5913-.5545 7.2884-2.9069 11.0758-1.5861 2.5542-3.278 5.0702-5.4455 7.4338-2.317 2.5287-5.1435 4.4874-8.3185 6.0396-1.4365.7027-2.8533.9468-4.1656.642-.182-.0423-.3288-.1411-.5024-.2187M86.3123 46.8363c-.0522.4347-.0211.9074-.1735 1.2969-.3147.8085-.6181 1.6693-1.1176 2.3424-2.8025 3.779-6.1652 6.8143-10.3816 8.6276-1.8528.7973-3.8016.9511-5.7772.7888-.9623-.079-1.6862-.628-2.286-1.3914-.1989-.254-.4205-.5545-.0931-.8791.2667-.2639.5898-.1256.7211.1044.436.7634 1.1105.6506 1.7653.6689 2.6091.0762 5.0391-.6421 7.3322-1.9346 2.6176-1.4747 4.9826-3.3402 7.1261-5.5203 1.1416-1.16 2.0941-2.4878 2.5696-4.1572.1059.0169.2103.0353.3161.0522zM80.758 80.7681c.3824-.3232.7253-.6266 1.0823-.9116.714-.5687 1.4577-1.0936 2.2846-1.4887.1312-.0621.2695-.1172.4106-.1538.2865-.0734.4981.0917.4925.3866-.0056.3302-.0395.6618-.0409.992 0 .1693.0282.3429.0691.5094.0776.3119.2103.3556.4502.1341.1806-.1679.3513-.3556.4854-.5602.1623-.2484.285-.5221.4177-.7888.0677-.1355.1538-.2399.3175-.2286.1566.0098.2272.1128.261.2596.096.4191.6294.7408 1.0527.6322.1538-.0395.3006-.103.453-.151.1933-.0607.35-.0057.4092.1397s-.0084.2963-.1961.3824c-.7705.3486-1.2827.3429-1.8782-.2173-.0268-.0254-.0579-.048-.103-.0847-.0833.1256-.1496.2554-.2427.3613-.2385.2709-.4587.5701-.7409.7888-.4727.3655-.9793.1947-1.1924-.3669-.1594-.4191-.1637-.8594-.1326-1.3011.0042-.0691.0113-.1368.0212-.2441-.1073.0508-.1863.0833-.2625.1242-1.16.6223-2.1675 1.4464-3.1412 2.3241-.3838.3457-.5545.7451-.6533 1.239-.4727 2.3326-.9737 4.6595-1.7484 6.9159-.2836.8255-.6082 1.6354-1.064 2.3833-.2159.3556-.4572.6929-.7987.9413-.611.4445-1.3067.3047-1.7074-.3415-.3302-.5334-.3613-1.1247-.2766-1.7202.1919-1.3631.7338-2.6063 1.3914-3.7973 1.0442-1.8909 2.286-3.6463 3.7211-5.2649.0705-.0804.1199-.1961.1411-.302.381-1.8372.7056-3.6886 1.2319-5.4934.072-.2484.175-.4911.2865-.7239.0606-.127.2032-.2089.3372-.1397.0903.0465.1482.1693.2032.2667.0184.0338-.007.1001-.0268.1453-.4854 1.1317-.6872 2.3396-.9511 3.5306-.1185.5348-.2215 1.0725-.3302 1.6087-.0113.055-.0155.1115-.0296.2131zm-1.0062 2.0066-.055-.0367c-.0226.0381-.0409.079-.0677.1129-1.0781 1.3589-2.0843 2.7686-2.9196 4.2926-.6167 1.1261-1.1346 2.2945-1.3462 3.5744-.0777.4713-.0777.9426.1608 1.3786.2314.422.6139.5066.9596.175.2455-.2342.4812-.5066.6322-.8057.3415-.6802.6702-1.3731.9299-2.0885.6632-1.8288 1.0823-3.7253 1.4986-5.6205.072-.3259.1383-.6533.2074-.9807zM89.345 78.9886c-.0846-.1115-.1637-.2018-.2272-.3034-.0987-.1567-.0776-.3415.0367-.4361.1186-.0973.2893-.0776.429.0579.0903.0875.175.1806.2653.2766.4008-.2992.786-.5899 1.1769-.8749.1524-.1115.309-.2554.5178-.1454.199.1059.1708.3091.1722.4925.0014.223.0085.4459 0 .6675-.0127.3245-.0945.6279-.3457.9313.484.1284.9313.2978 1.3942.3613 1.2474.1707 2.4384-.0946 3.5574-.635.7479-.3613 1.4577-.8044 2.1731-1.2277.1679-.1002.302-.2653.4361-.4149.1143-.127.2808-.1651.4247-.0677.1397.0945.1848.2808.0705.4177-.1298.1552-.2765.3034-.4402.4191-1.3039.92-2.6826 1.6905-4.2701 2.0009-1.047.2047-2.087.2103-3.1002-.1947-.3768-.151-.769-.2653-1.1402-.429-.2116-.0945-.4021-.2455-.5842-.3923-.1086-.0889-.1778-.0917-.2723.0043-.0522.0522-.1214.0945-.1905.1241-.1637.0734-.3429.017-.4149-.1227-.0734-.144-.0028-.3373.1566-.4219.0551-.0283.1101-.0551.1764-.0875zm1.8387-.6125c-.0197-.0113-.0395-.0225-.0578-.0338-.2724.2074-.5461.4148-.8425.6406.1496.0833.2667.1595.3923.2159.2427.1073.3542.0565.4149-.206.048-.2018.0635-.4106.0931-.6167M82.4532 71.7228c-.0184.2159-.0635.3542-.2413.381-.1651.0254-.2667-.0734-.3161-.2173-.0565-.1665-.1058-.3387-.1383-.5123-.0282-.1495.0212-.2794.1834-.333.1524-.0494.2992.0198.3641.1905.0663.1764.1101.3613.1482.4883zM83.9748 57.6073a2.44 2.44 0 0 0-.9638.3344c-.5546.3344-1.0132.7803-1.4407 1.2587-.9878 1.1063-1.7738 2.3523-2.4667 3.6548-1.9741 3.7084-3.3979 7.6271-4.7625 11.6022-.1439.4205-1.9459 2.1534-2.8448 3.017-.8791.8452-1.8119 1.6326-2.8745 2.2465-1.2446.7211-2.5625 1.1783-4.0287 1.0371-.9539-.0917-1.7625-.4811-2.3566-1.2488-.5955-.7705-.4628-1.8655-1.0908-2.5569-.5094-.5617-.6223 0-.6223 0 .0833.4473.1891.8904.3486 1.3278.3429.9412.8368 1.7837 1.6736 2.3764 1.0752.762 2.2846.8579 3.5376.666 1.2983-.199 2.4526-.7535 3.5236-1.493 1.373-.9468 2.413-1.8401 3.5856-3.0155.1736-.1736.4601-.4558.6294-.6336.0127.0099-.2342 1.0611-.3641 1.6016-.2314.9638-.4431 1.8443-.5489 2.8363-.0945.8876.1157 1.5466.9017 1.4817.0141 0 .3909.0678.4727-.0748.0805-.1397.0325-.3189-.127-.4318-.1058-.0762-.2864-.0564-.4049-.11-.271-.1256-.2145-.4728-.2032-.6407.031-.46.0705-.7493.1693-1.1938.3358-1.5085.9652-4.0301 1.0357-4.1106.549-.6279 1.3547-1.3476 1.9996-2.0235 2.5315-2.6459 5.0447-5.5979 6.9977-8.6953.6802-1.0767 1.0993-1.977 1.5607-3.1694.247-.6378.7225-1.9713.2837-3.1468-.2611-.6985-.8411-.9962-1.6214-.8975zm.5094 2.5259c-.3288 1.0301-.841 1.9727-1.3956 2.8928-1.7004 2.8236-3.6251 5.4892-5.6981 8.049-.6237.7704-1.2742 1.5183-1.9135 2.2761-.0479.0564-.1016.1101-.1524.1637-.086.0889-.062.0367-.0423-.0212.1425-.429.2794-.8594.4276-1.2869 1.1698-3.3796 2.5795-6.6534 4.3406-9.7692.6449-1.1416 1.3702-2.231 2.3057-3.1595.3105-.3076.6689-.5701 1.0259-.8255.151-.1086.3472-.1693.532-.2102.4318-.0946.7084.1157.762.5531.0565.4629-.0536.9031-.1919 1.3378M50.3082 100.848h-.3122c-.0534.058.1224.049.3122 0"/><path fill="#fff" d="M94.1186 19.3392c-.6576-.3133-1.2122-.3626-1.7851.2357-.532.5574-1.1726.9906-1.7413 1.5099-3.8735 3.5517-7.5693 7.3039-11.0519 11.2974-3.9596 4.5409-7.8472 9.1511-11.4258 14.0519-5.8068 7.9544-10.3407 16.6963-13.9306 26.0252-2.0785 5.4004-3.6703 10.9475-4.4887 16.7415-.2964 2.0983-.4812 4.191-.4347 6.2809-.1975.0212-.4205.0451-.6745.072-10.7146 1.1627-16.4338.7874-16.9997-1.1148-.6096-2.0532 3.0833-4.5198 5.3608-5.653.2583-.1284.6125-.3048.8143-.6336.1594-.2596.1975-.5799.1072-.9002-.1115-.398-.412-.7635-.7846-.9526-3.8283-1.9515-12.1003-1.6397-16.3548-.6787a.283.283 0 0 0-.2145.3387c.0338.1538.1877.2483.3386.2145 3.6633-.827 12.1357-1.3251 15.9711.6307.2314.1186.4261.3542.4953.5998.0324.1171.0522.2906-.0452.4487-.1086.1764-.3189.2921-.5842.4233-.6717.3345-6.5349 3.3514-5.6515 6.3247.4953 1.6637 3.5828 2.1999 7.5735 2.1999 3.0677 0 6.6689-.3175 10.033-.6816.4459-.048.81-.0875 1.071-.1129a.282.282 0 0 0 .2442-.2004h.0056c0-.0282.0028-.0564.0028-.0846 0-.0085.0029-.0155.0029-.024 0-.0014 0-.0028-.0015-.0057a33 33 0 0 1 .0494-1.6608c.2272-3.978.961-7.867 2.0377-11.6629 3.2456-11.4442 8.2212-21.9627 14.9197-31.5131 5.4766-7.8091 11.8478-14.7165 18.7862-21.0158 2.7799-2.5245 5.7024-4.8599 8.8887-6.779.6844-.412 1.3899-.7831 2.1773-1.2248-.666-1.2079-1.4929-1.9149-2.715-2.4963z"/></svg>
