<svg xmlns="http://www.w3.org/2000/svg" width="24" height="24" fill="none"><path fill="currentColor" fill-rule="evenodd" d="M12.7161 5.0161c1.6881-1.6881 4.4796-1.6881 6.1677 0 1.6882 1.6882 1.6882 4.4796 0 6.1678l-3.0808 3.0808c-1.4664 1.5878-3.8525 1.6713-5.4964.5754-.5744-.383-.7296-1.1591-.3467-1.7335s1.159-.7296 1.7334-.3467c.7479.4986 1.7461.3884 2.2817-.2007a1.1948 1.1948 0 0 1 .0411-.0431l3.1-3.1c.7118-.7118.7118-1.9204 0-2.6322-.6864-.6864-1.8345-.711-2.5539-.0737l-.1222.1832c-.3829.5744-1.159.7296-1.7334.3467-.5744-.383-.7297-1.159-.3467-1.7335l.2-.3a1.2467 1.2467 0 0 1 .1562-.1905Z" clip-rule="evenodd"/><path fill="currentColor" fill-rule="evenodd" d="M8.1591 9.6755c1.4722-1.3384 3.7379-1.6898 5.4908-.375.5523.4141.6643 1.1976.25 1.7499-.4142.5523-1.1977.6642-1.75.25-.6392-.4794-1.5588-.4378-2.2826.2012l-3.0696 3.1686-.0139.0141c-.7118.7118-.7118 1.9204 0 2.6322.7119.7119 1.9204.7119 2.6323 0l.8838.8839-.8838-.8839.3-.3c.4881-.4881 1.2796-.4881 1.7677 0 .4882.4882.4882 1.2796 0 1.7678l-.3.3c-1.6881 1.6881-4.4796 1.6881-6.1677 0-1.6857-1.6856-1.6882-4.4712-.0076-6.1602L8.102 9.7307a1.2459 1.2459 0 0 1 .057-.0552Z" clip-rule="evenodd"/></svg>
