<svg width="24" height="24" viewBox="0 0 24 24" fill="none" xmlns="http://www.w3.org/2000/svg">
<path d="M20.3 3.7L22 8.3C22.3278 9.20102 22.2051 10.2044 21.67 11C21.0629 11.885 20.0725 12.4303 19 12.47C17.3262 12.5979 15.8148 11.4707 15.46 9.83C15.46 9.83 15.4 9.83 15.39 9.83C15.0585 11.4212 13.6239 12.5384 12 12.47C10.3835 12.5284 8.96024 11.4134 8.63 9.83C8.63 9.83 8.57 9.83 8.56 9.83C8.3664 10.7099 7.83046 11.4766 7.07056 11.9607C6.31066 12.4448 5.38931 12.6065 4.51 12.41C3.7284 12.2815 3.01879 11.8771 2.51 11.27C1.85027 10.4344 1.68283 9.31174 2.07 8.32L3.73 3.7C4.12 2.71671 5.08257 2.08165 6.14 2.11H17.89C18.9474 2.08165 19.91 2.71671 20.3 3.7Z" fill="currentColor"/>
<path d="M19.1 14V19.1C19.0843 19.6597 18.8468 20.1902 18.4398 20.5747C18.0328 20.9592 17.4897 21.1661 16.93 21.15H14.1V18C14.0461 16.9486 13.1516 16.139 12.1 16.19C11.5803 16.1843 11.0773 16.3734 10.69 16.72C10.3174 17.0412 10.1022 17.5081 10.1 18V21.15H7.27C6.70352 21.1661 6.15437 20.9537 5.74619 20.5606C5.33802 20.1675 5.10514 19.6267 5.1 19.06V14H5.18C6.43334 14.0024 7.64368 13.5432 8.58 12.71C10.5424 14.422 13.4676 14.422 15.43 12.71C16.3699 13.5503 17.5893 14.0102 18.85 14H19.1Z" fill="currentColor"/>
</svg>

