<svg xmlns="http://www.w3.org/2000/svg" width="293" height="61" fill="none"><path fill="#fff" d="M159.984 27.976c-.16 0-.288-.032-.384-.096-.08-.064-.12-.144-.12-.24s.048-.176.144-.24c.112-.064.248-.088.408-.072.384.032.664.048.84.048.448 0 .808-.072 1.08-.216.272-.16.456-.424.552-.792.144-.576.216-2.76.216-6.552s-.072-5.976-.216-6.552c-.096-.368-.28-.624-.552-.768-.272-.16-.632-.24-1.08-.24-.176 0-.456.016-.84.048h-.096c-.144 0-.256-.032-.336-.096-.08-.064-.12-.144-.12-.24 0-.08.04-.152.12-.216.096-.064.224-.096.384-.096h7.104c1.552-.016 2.952.264 4.2.84 1.248.576 2.24 1.48 2.976 2.712.752 1.216 1.128 2.752 1.128 4.608 0 1.856-.376 3.392-1.128 4.608-.736 1.216-1.728 2.112-2.976 2.688-1.248.576-2.648.864-4.2.864h-7.104Zm7.128-.648c1.2.048 2.288-.232 3.264-.84.992-.608 1.776-1.488 2.352-2.64.576-1.152.864-2.496.864-4.032s-.288-2.872-.864-4.008c-.576-1.136-1.36-2-2.352-2.592-.976-.608-2.072-.912-3.288-.912-.592 0-1.024.016-1.296.048-.256.016-.496.096-.72.24-.224.128-.376.352-.456.672-.144.576-.216 2.76-.216 6.552s.072 5.976.216 6.552c.112.416.32.68.624.792.304.096.656.152 1.056.168h.816Zm11.025-10.032c-.368 0-.688-.128-.96-.384-.256-.272-.384-.592-.384-.96 0-.384.128-.704.384-.96.272-.272.592-.408.96-.408s.68.136.936.408c.272.256.408.576.408.96 0 .368-.136.688-.408.96-.256.256-.568.384-.936.384Zm-1.752 10.68c-.16 0-.288-.032-.384-.096-.08-.064-.12-.144-.12-.24 0-.112.048-.2.144-.264.096-.064.232-.08.408-.048.48.096.8-.16.96-.768.096-.352.144-.896.144-1.632 0-.528-.008-.936-.024-1.224l-.024-1.608c0-.432-.072-.776-.216-1.032-.128-.272-.344-.408-.648-.408-.16 0-.288-.024-.384-.072-.08-.048-.12-.112-.12-.192 0-.064.04-.128.12-.192.096-.08.224-.136.384-.168.496-.128 1.008-.392 1.536-.792.064-.032.176-.096.336-.192.16-.112.288-.168.384-.168.224 0 .336.096.336.288l-.048.96-.096 1.656c-.032.592-.048 1.376-.048 2.352 0 1.136.04 1.944.12 2.424.048.272.136.472.264.6s.312.192.552.192c.112 0 .208-.008.288-.024l.144-.024c.128 0 .224.032.288.096.08.064.12.144.12.24s-.048.176-.144.24c-.08.064-.2.096-.36.096h-3.912Zm7.61.024c-.544 0-.92-.2-1.128-.6-.208-.416-.312-.912-.312-1.488V19.96c0-.16-.08-.24-.24-.24-.288 0-.52.008-.696.024h-.408c-.128 0-.232-.04-.312-.12-.064-.08-.096-.176-.096-.288 0-.128.04-.232.12-.312.08-.096.2-.144.36-.144.768 0 1.28-.216 1.536-.648.192-.304.336-.728.432-1.272.064-.304.128-.52.192-.648.064-.144.168-.216.312-.216.304 0 .456.208.456.624v1.968c0 .16.08.24.24.24.56 0 1.024-.008 1.392-.024.368-.016.624-.024.768-.024.144 0 .248.04.312.12.08.08.12.184.12.312 0 .112-.04.216-.12.312-.08.096-.184.136-.312.12-.448-.048-1.176-.072-2.184-.072-.16 0-.24.08-.24.24a688.024 688.024 0 0 0-.024 6c0 .272.088.52.264.744.176.224.4.336.672.336.352 0 .728-.224 1.128-.672.144-.16.272-.24.384-.24.128 0 .192.072.192.216 0 .144-.072.312-.216.504-.288.352-.656.64-1.104.864-.448.224-.944.336-1.488.336Zm6.726 0c-.544 0-.92-.2-1.128-.6-.208-.416-.312-.912-.312-1.488V19.96c0-.16-.08-.24-.24-.24-.288 0-.52.008-.696.024h-.408c-.128 0-.232-.04-.312-.12-.064-.08-.096-.176-.096-.288 0-.128.04-.232.12-.312.08-.096.2-.144.36-.144.768 0 1.28-.216 1.536-.648.192-.304.336-.728.432-1.272.064-.304.128-.52.192-.648.064-.144.168-.216.312-.216.304 0 .456.208.456.624v1.968c0 .16.08.24.24.24.56 0 1.024-.008 1.392-.024.368-.016.624-.024.768-.024.144 0 .248.04.312.12.08.08.12.184.12.312 0 .112-.04.216-.12.312-.08.096-.184.136-.312.12-.448-.048-1.176-.072-2.184-.072-.16 0-.24.08-.24.24a688.024 688.024 0 0 0-.024 6c0 .272.088.52.264.744.176.224.4.336.672.336.352 0 .728-.224 1.128-.672.144-.16.272-.24.384-.24.128 0 .192.072.192.216 0 .144-.072.312-.216.504-.288.352-.656.64-1.104.864-.448.224-.944.336-1.488.336Zm11.234-.024c-.16 0-.288-.032-.384-.096-.08-.064-.12-.144-.12-.24 0-.112.048-.2.144-.264.096-.064.232-.08.408-.048.592.096.96-.392 1.104-1.464.096-.864.144-2.032.144-3.504 0-2.704-.04-5.072-.12-7.104-.016-.32-.024-.672-.024-1.056 0-.432-.072-.776-.216-1.032-.128-.272-.344-.408-.648-.408-.16 0-.288-.024-.384-.072-.08-.048-.12-.112-.12-.192 0-.064.04-.128.12-.192.096-.08.224-.136.384-.168.464-.096 1-.36 1.608-.792.048-.032.152-.096.312-.192.176-.112.32-.168.432-.168.224 0 .336.096.336.288l-.048 1.68c-.112 2.656-.168 4.864-.168 6.624v3.48l-.024 2.208c0 .72.056 1.248.168 1.584.112.336.344.504.696.504.112 0 .2-.008.264-.024l.144-.024c.128 0 .224.032.288.096.08.064.12.144.12.24s-.048.176-.144.24c-.08.064-.2.096-.36.096h-3.912Zm7.143-10.68c-.368 0-.688-.128-.96-.384-.256-.272-.384-.592-.384-.96 0-.384.128-.704.384-.96.272-.272.592-.408.96-.408s.68.136.936.408c.272.256.408.576.408.96 0 .368-.136.688-.408.96-.256.256-.568.384-.936.384Zm-1.752 10.68c-.16 0-.288-.032-.384-.096-.08-.064-.12-.144-.12-.24 0-.112.048-.2.144-.264.096-.064.232-.08.408-.048.48.096.8-.16.96-.768.096-.352.144-.896.144-1.632 0-.528-.008-.936-.024-1.224l-.024-1.608c0-.432-.072-.776-.216-1.032-.128-.272-.344-.408-.648-.408-.16 0-.288-.024-.384-.072-.08-.048-.12-.112-.12-.192 0-.064.04-.128.12-.192.096-.08.224-.136.384-.168.496-.128 1.008-.392 1.536-.792.064-.032.176-.096.336-.192.16-.112.288-.168.384-.168.224 0 .336.096.336.288l-.048.96-.096 1.656c-.032.592-.048 1.376-.048 2.352 0 1.136.04 1.944.12 2.424.048.272.136.472.264.6s.312.192.552.192c.112 0 .208-.008.288-.024l.144-.024c.128 0 .224.032.288.096.08.064.12.144.12.24s-.048.176-.144.24c-.08.064-.2.096-.36.096h-3.912Zm8.389-.408c-.88-2.256-1.528-3.952-1.944-5.088-.352-.976-.608-1.648-.768-2.016-.144-.368-.288-.616-.432-.744-.128-.144-.304-.208-.528-.192h-.024c-.16 0-.288-.032-.384-.096-.096-.064-.144-.144-.144-.24s.04-.168.12-.216c.096-.064.224-.096.384-.096h3.504c.16 0 .28.032.36.096.096.064.144.144.144.24 0 .112-.048.2-.144.264-.096.064-.232.08-.408.048-.048-.016-.12-.024-.216-.024-.272 0-.408.152-.408.456 0 .256.072.608.216 1.056.144.432.4 1.152.768 2.16.08.224.184.504.312.84.128.336.272.736.432 1.2.064.16.152.24.264.24.112 0 .192-.08.24-.24.048-.128.088-.24.12-.336.048-.096.088-.184.12-.264.56-1.472.944-2.512 1.152-3.12.224-.624.336-1.096.336-1.416 0-.208-.056-.352-.168-.432-.112-.08-.296-.104-.552-.072h-.12c-.128 0-.232-.032-.312-.096-.08-.064-.12-.136-.12-.216 0-.096.04-.176.12-.24.096-.064.224-.096.384-.096h2.784c.16 0 .28.032.36.096.096.048.144.12.144.216s-.056.176-.168.24c-.096.064-.232.096-.408.096-.256 0-.48.184-.672.552-.192.352-.512 1.104-.96 2.256-.112.288-.368.928-.768 1.92-.384.992-.824 2.056-1.32 3.192a.8157.8157 0 0 1-.312.384c-.128.096-.264.144-.408.144-.272 0-.464-.152-.576-.456Zm16.47.456c-.976 0-1.72-.16-2.232-.48-.512-.32-.752-.88-.72-1.68.048-.928.608-1.608 1.68-2.04 1.088-.448 2.24-.712 3.456-.792.224-.032.336-.16.336-.384v-1.224c0-.592-.152-1.056-.456-1.392-.304-.336-.696-.504-1.176-.504-.528 0-.944.16-1.248.48-.304.304-.456.696-.456 1.176 0 .336-.08.584-.24.744-.16.16-.36.24-.6.24-.208 0-.4-.08-.576-.24-.16-.16-.24-.392-.24-.696 0-.4.16-.776.48-1.128.336-.368.768-.664 1.296-.888.544-.224 1.104-.336 1.68-.336.928 0 1.696.232 2.304.696.608.448.912 1.104.912 1.968v4.344c0 .992.2 1.488.6 1.488.048 0 .16-.04.336-.12.176-.096.28-.144.312-.144.08 0 .144.024.192.072.048.048.072.112.072.192 0 .192-.16.344-.48.456-.304.112-.624.168-.96.168-.704 0-1.192-.24-1.464-.72-.064-.112-.152-.168-.264-.168-.096 0-.184.032-.264.096-.784.544-1.544.816-2.28.816Zm2.376-1.896c.112-.24.168-.648.168-1.224l-.024-.864c0-.24-.12-.36-.36-.36-2.32.08-3.48.784-3.48 2.112 0 .464.168.824.504 1.08.336.256.752.384 1.248.384.416 0 .808-.096 1.176-.288.368-.208.624-.488.768-.84Zm-3.264-8.496c-.352 0-.656-.12-.912-.36-.24-.256-.36-.56-.36-.912 0-.336.12-.624.36-.864.256-.256.56-.384.912-.384.336 0 .624.128.864.384.256.24.384.528.384.864 0 .352-.128.656-.384.912-.24.24-.528.36-.864.36Zm3.864 0c-.352 0-.656-.12-.912-.36-.24-.256-.36-.56-.36-.912 0-.336.12-.624.36-.864.256-.256.56-.384.912-.384.336 0 .624.128.864.384.256.24.384.528.384.864 0 .352-.128.656-.384.912-.24.24-.528.36-.864.36Zm3.447 2.76c0-.064.04-.128.12-.192.096-.08.224-.136.384-.168.496-.128 1.008-.392 1.536-.792.064-.032.176-.096.336-.192.16-.112.288-.168.384-.168.224 0 .336.096.336.288 0 .256-.008.488-.024.696v.048c0 .096.024.152.072.168.048.016.112-.016.192-.096.352-.368.744-.64 1.176-.816.448-.192.864-.288 1.248-.288.208 0 .376.024.504.072.384.128.576.36.576.696 0 .24-.096.456-.288.648-.192.192-.416.288-.672.288-.144 0-.248-.016-.312-.048-.336-.112-.624-.168-.864-.168-.416 0-.784.128-1.104.384-.304.256-.52.632-.648 1.128-.048.864-.072 1.624-.072 2.28 0 1.024.048 1.824.144 2.4.048.272.136.472.264.6s.312.192.552.192c.112 0 .208-.008.288-.024l.144-.024c.128 0 .224.032.288.096.08.064.12.144.12.24s-.048.176-.144.24c-.08.064-.2.096-.36.096h-3.912c-.16 0-.288-.032-.384-.096-.08-.064-.12-.144-.12-.24 0-.112.048-.2.144-.264.096-.064.232-.08.408-.048.24.048.44.008.6-.12.176-.144.296-.36.36-.648.08-.4.12-1.032.12-1.896l-.024-2.568c0-.432-.072-.776-.216-1.032-.128-.272-.344-.408-.648-.408-.16 0-.288-.024-.384-.072-.08-.048-.12-.112-.12-.192Zm15.03 7.584c-.16 0-.288-.032-.384-.096-.08-.064-.12-.144-.12-.24 0-.112.048-.2.144-.264.096-.064.232-.08.408-.048.592.096.96-.392 1.104-1.464.096-.864.144-2.032.144-3.504 0-2.704-.04-5.072-.12-7.104-.016-.32-.024-.672-.024-1.056 0-.432-.072-.776-.216-1.032-.128-.272-.344-.408-.648-.408-.16 0-.288-.024-.384-.072-.08-.048-.12-.112-.12-.192 0-.064.04-.128.12-.192.096-.08.224-.136.384-.168.464-.096 1-.36 1.608-.792.048-.032.152-.096.312-.192.176-.112.32-.168.432-.168.224 0 .336.096.336.288l-.048 1.68c-.112 2.656-.168 4.864-.168 6.624v3.48l-.024 2.208c0 .72.056 1.248.168 1.584.112.336.344.504.696.504.112 0 .2-.008.264-.024l.144-.024c.128 0 .224.032.288.096.08.064.12.144.12.24s-.048.176-.144.24c-.08.064-.2.096-.36.096h-3.912Zm7.191-10.68c-.368 0-.688-.128-.96-.384-.256-.272-.384-.592-.384-.96 0-.384.128-.704.384-.96.272-.272.592-.408.96-.408s.68.136.936.408c.272.256.408.576.408.96 0 .368-.136.688-.408.96-.256.256-.568.384-.936.384Zm-2.592 15.072c-.16 0-.28-.04-.36-.12-.096-.064-.144-.152-.144-.264 0-.112.048-.208.144-.288.096-.08.232-.104.408-.072.288.048.576-.12.864-.504.304-.368.552-.848.744-1.44.192-.592.288-1.152.288-1.68 0-.432.008-.808.024-1.128.032-.992.048-1.864.048-2.616 0-.816-.024-1.536-.072-2.16-.032-.448-.112-.8-.24-1.056-.112-.256-.32-.384-.624-.384-.16 0-.288-.024-.384-.072-.08-.048-.12-.112-.12-.192 0-.064.04-.128.12-.192.096-.08.224-.136.384-.168.496-.128 1.008-.392 1.536-.792.064-.032.176-.096.336-.192.16-.112.288-.168.384-.168.224 0 .336.096.336.288l-.048.648c-.064.672-.096 1.328-.096 1.968l.024 3.072c0 .832-.024 1.52-.072 2.064-.032.528-.112 1.008-.24 1.44-.24.896-.568 1.64-.984 2.232-.4.608-.808 1.056-1.224 1.344-.4.288-.744.432-1.032.432Zm4.647-11.952c0-.064.04-.128.12-.192.096-.08.224-.144.384-.192.352-.112.792-.344 1.32-.696.064-.048.152-.104.264-.168.112-.08.2-.136.264-.168.16-.08.28-.12.36-.12.208 0 .312.096.312.288l-.024 2.208c-.032 1.664-.048 2.936-.048 3.816 0 .528.192.992.576 1.392.4.384.864.576 1.392.576.688 0 1.32-.392 1.896-1.176.096-.176.136-.328.12-.456-.016-.256-.024-.584-.024-.984l.024-2.448c0-.432-.072-.776-.216-1.032-.128-.272-.344-.408-.648-.408-.336 0-.504-.08-.504-.24 0-.064.04-.128.12-.192.096-.08.224-.144.384-.192.352-.112.792-.344 1.32-.696.064-.048.152-.104.264-.168.112-.08.2-.136.264-.168.16-.08.28-.12.36-.12.208 0 .312.096.312.288l-.048 1.464c-.064 1.184-.096 2.184-.096 3 0 .928.04 1.672.12 2.232.096.56.272.84.528.84.08 0 .192-.016.336-.048.16-.048.272-.072.336-.072.208 0 .312.08.312.24 0 .08-.04.168-.12.264-.08.08-.192.136-.336.168-.336.096-.688.256-1.056.48-.288.176-.488.264-.6.264-.464 0-.752-.328-.864-.984-.016-.144-.064-.216-.144-.216-.048 0-.112.04-.192.12-.704.704-1.52 1.056-2.448 1.056-.448 0-.904-.096-1.368-.288-.448-.192-.824-.464-1.128-.816-.304-.368-.456-.8-.456-1.296v-3.48c0-.432-.072-.776-.216-1.032-.128-.272-.344-.408-.648-.408-.336 0-.504-.08-.504-.24ZM277.314 28c-.688 0-1.232-.088-1.632-.264-.384-.176-.672-.336-.864-.48-.176-.16-.272-.24-.288-.24-.048 0-.08.048-.096.144-.016.08-.024.2-.024.36 0 .096-.032.184-.096.264-.064.08-.144.12-.24.12-.208 0-.312-.12-.312-.36V24.928c0-.112.032-.2.096-.264s.144-.096.24-.096c.08 0 .152.032.216.096s.096.152.096.264c0 .336.136.696.408 1.08.288.368.64.68 1.056.936.432.256.856.384 1.272.384.512 0 .928-.112 1.248-.336.32-.24.48-.56.48-.96 0-.304-.192-.584-.576-.84-.368-.272-.952-.608-1.752-1.008l-.456-.216c-.528-.256-.952-.48-1.272-.672-.304-.192-.568-.448-.792-.768-.208-.32-.312-.712-.312-1.176 0-.432.12-.832.36-1.2.256-.384.616-.688 1.08-.912.48-.24 1.032-.36 1.656-.36.576 0 1.04.064 1.392.192.368.128.648.256.84.384.208.112.328.168.36.168.08 0 .12-.12.12-.36 0-.096.032-.168.096-.216.064-.064.136-.096.216-.096.096 0 .176.032.24.096s.096.144.096.24v2.496c0 .096-.04.176-.12.24-.064.064-.136.096-.216.096-.08 0-.152-.032-.216-.096s-.096-.144-.096-.24c0-.32-.12-.648-.36-.984-.224-.352-.544-.64-.96-.864-.416-.24-.88-.36-1.392-.36-.528 0-.936.12-1.224.36-.272.224-.408.504-.408.84 0 .624.52 1.184 1.56 1.68.144.064.28.128.408.192.128.048.248.096.36.144.608.256 1.096.496 1.464.72.384.208.704.488.96.84.272.336.408.752.408 1.248 0 .704-.296 1.28-.888 1.728-.576.448-1.288.672-2.136.672Zm5.506 0c-.304 0-.552-.096-.744-.288-.192-.208-.288-.456-.288-.744s.096-.528.288-.72c.192-.192.44-.288.744-.288.272 0 .504.096.696.288.208.192.312.432.312.72s-.104.536-.312.744c-.192.192-.424.288-.696.288Z"/><path stroke="#fff" stroke-width=".6914" d="M91.1094 37.6543H292.999"/><path fill="#fff" d="M12.34 55.056c-.28 0-.6253-.014-1.036-.042-.4107-.028-.7887-.042-1.134-.042-.3173 0-.6253.0047-.924.014-.2893.0093-.5507.014-.784.014-.0187 0-.028-.028-.028-.084 0-.056.0093-.084.028-.084.3267 0 .574-.0233.742-.07.168-.0467.28-.14.336-.28.056-.14.084-.3453.084-.616v-6.482c0-.2707-.028-.4713-.084-.602-.056-.14-.168-.2333-.336-.28-.1587-.056-.3967-.084-.714-.084-.028 0-.042-.028-.042-.084 0-.056.014-.084.042-.084.2333 0 .49.0093.77.028.2893.0093.5927.014.91.014s.658-.0093 1.022-.028c.3733-.028.6907-.042.952-.042.9893 0 1.848.1867 2.576.56.7373.3733 1.3113.882 1.722 1.526.4107.644.616 1.3673.616 2.17 0 .7-.126 1.3347-.378 1.904-.2427.56-.5833 1.0407-1.022 1.442-.4387.392-.9427.6953-1.512.91s-1.1713.322-1.806.322Zm-.14-.252c.7 0 1.316-.154 1.848-.462.5413-.308.966-.7607 1.274-1.358.308-.6067.462-1.3393.462-2.198 0-.812-.1447-1.54-.434-2.184-.2893-.6533-.6953-1.1713-1.218-1.554-.5133-.392-1.1293-.588-1.848-.588-.56 0-.9613.056-1.204.168-.2333.112-.35.3733-.35.784v6.3c0 .3733.0933.6487.28.826.1867.1773.5833.266 1.19.266Zm8.685.364c-.5786 0-1.0733-.126-1.484-.378-.4013-.2613-.7046-.5973-.91-1.008-.196-.4107-.294-.8447-.294-1.302 0-.5693.1354-1.078.406-1.526.2707-.4573.6347-.8167 1.092-1.078.4667-.2707.9894-.406 1.568-.406.532 0 .938.126 1.218.378.2894.2427.434.5787.434 1.008 0 .1027-.0093.1867-.028.252-.0186.0653-.0606.098-.126.098h-.994c.0374-.448-.0326-.8027-.21-1.064-.1773-.2613-.4386-.392-.784-.392-.476 0-.8446.196-1.106.588-.2613.392-.392.9193-.392 1.582 0 .5227.084.9893.252 1.4.168.4013.4154.7187.742.952.3267.224.7187.336 1.176.336.2427 0 .49-.0327.742-.098a2.4242 2.4242 0 0 0 .7-.336c.0187-.0187.042-.0047.07.042.0374.0373.0467.07.028.098-.336.308-.6766.5273-1.022.658a3.0199 3.0199 0 0 1-1.078.196Zm-1.932-3.934-.014-.21 3.15-.07v.252l-3.136.028Zm8.8792 3.85a.2772.2772 0 0 1-.126.028c-.14 0-.2753-.1027-.406-.308-.1213-.2147-.182-.518-.182-.91V51.43c0-.4107-.0373-.7373-.112-.98-.0653-.2427-.1633-.4153-.294-.518-.1213-.112-.266-.168-.434-.168-.2053 0-.378.0513-.518.154s-.2473.2427-.322.42c-.0653.168-.112.3547-.14.56-.0187.1773-.0747.3267-.168.448-.084.112-.2333.168-.448.168-.168 0-.2987-.042-.392-.126-.0933-.084-.14-.2007-.14-.35 0-.1773.0887-.3547.266-.532.1773-.1867.4013-.3593.672-.518a4.2166 4.2166 0 0 1 .84-.378c.2987-.0933.574-.14.826-.14.3733 0 .686.126.938.378.252.2427.378.63.378 1.162v2.478c0 .308.042.5367.126.686.084.1493.2193.224.406.224.1587 0 .364-.0513.616-.154.0373-.0187.0653 0 .084.056.028.0467.0187.0793-.028.098l-1.442.686Zm-2.814.014c-.2987 0-.5273-.0793-.686-.238-.1587-.1587-.238-.3593-.238-.602 0-.2893.112-.5087.336-.658.224-.1493.5833-.308 1.078-.476l1.75-.602.042.168-1.428.546c-.224.084-.3827.1773-.476.28-.0933.1027-.14.2333-.14.392 0 .196.056.35.168.462.112.112.2567.168.434.168.0933 0 .1913-.014.294-.042.1027-.028.21-.0653.322-.112l1.064-.56.014.196-1.204.658c-.2707.14-.5133.2473-.728.322-.2053.0653-.406.098-.602.098Zm6.3549-3.892-.084-.154c.3547-.4293.6487-.756.882-.98.2333-.224.434-.378.602-.462.168-.0933.3267-.14.476-.14.196 0 .392.0607.588.182.196.1213.294.2753.294.462 0 .14-.0467.2613-.14.364-.0933.0933-.2193.14-.378.14-.1493 0-.2707-.042-.364-.126a3.2363 3.2363 0 0 0-.266-.238c-.084-.084-.2007-.126-.35-.126-.0747 0-.1587.0233-.252.07-.0933.0467-.2193.1493-.378.308-.1493.1493-.3593.3827-.63.7ZM29.8891 55c-.028 0-.042-.028-.042-.084 0-.056.014-.084.042-.084.336 0 .5553-.0607.658-.182.112-.1307.168-.392.168-.784v-2.73c0-.2987-.0373-.518-.112-.658-.0653-.14-.182-.21-.35-.21-.0933 0-.2007.0187-.322.056-.1213.028-.2613.0747-.42.14-.0373.0187-.0653.0047-.084-.042-.0187-.056-.014-.0933.014-.112l1.722-.826c.0373-.0093.0653-.014.084-.014.084 0 .1773.1027.28.308.1027.2053.154.4993.154.882v3.206c0 .2613.0327.462.098.602.0747.14.2053.238.392.294.196.0467.476.07.84.07.028 0 .042.028.042.084 0 .056-.014.084-.042.084-.2427 0-.518-.0047-.826-.014a32.543 32.543 0 0 0-.98-.014c-.252 0-.4947.0047-.728.014-.224.0093-.42.014-.588.014Zm8.5332 0c-.028 0-.042-.028-.042-.084 0-.056.014-.084.042-.084.336 0 .56-.0607.672-.182.112-.1307.168-.392.168-.784V51.29c0-.3267-.0326-.5647-.098-.714-.0653-.1493-.182-.224-.35-.224-.0746 0-.1633.014-.266.042-.0933.028-.2053.0747-.336.14-.0373.0093-.07-.0093-.098-.056-.0186-.056-.0093-.0933.028-.112l1.904-.882c.028-.0093.0467-.014.056-.014.028 0 .056.014.084.042.0374.028.056.0607.056.098 0 .084-.0046.266-.014.546-.0093.28-.014.6487-.014 1.106v2.604c0 .392.0514.6533.154.784.112.1213.3407.182.686.182.028 0 .042.028.042.084 0 .056-.014.084-.042.084-.168 0-.3686-.0047-.602-.014-.224-.0093-.462-.014-.714-.014-.252 0-.49.0047-.714.014-.224.0093-.4246.014-.602.014Zm1.232-7.098c-.2146 0-.3826-.056-.504-.168-.1213-.1213-.182-.2893-.182-.504 0-.2053.0607-.364.182-.476.1214-.112.2894-.168.504-.168.2147 0 .378.056.49.168.112.112.168.2707.168.476 0 .448-.2193.672-.658.672ZM45.8778 55c-.028 0-.042-.028-.042-.084 0-.056.014-.084.042-.084.336 0 .5553-.0607.658-.182.112-.1307.168-.392.168-.784v-2.198c0-.532-.098-.924-.294-1.176-.196-.2613-.5087-.392-.938-.392-.3267 0-.658.098-.994.294-.3267.1867-.6067.448-.84.784l-.056-.168c.3826-.5227.7746-.9193 1.176-1.19.4106-.2707.84-.406 1.288-.406.5133 0 .91.1493 1.19.448.2893.2987.434.7233.434 1.274v2.73c0 .392.0513.6533.154.784.112.1213.3406.182.686.182.028 0 .042.028.042.084 0 .056-.014.084-.042.084-.1774 0-.378-.0047-.602-.014-.224-.0093-.462-.014-.714-.014-.252 0-.4947.0047-.728.014-.224.0093-.42.014-.588.014Zm-3.766 0c-.028 0-.042-.028-.042-.084 0-.056.014-.084.042-.084.336 0 .5553-.0607.658-.182.112-.1307.168-.392.168-.784v-2.73c0-.2987-.0374-.518-.112-.658-.0654-.14-.182-.21-.35-.21-.0934 0-.2007.0187-.322.056-.1214.028-.2614.0747-.42.14-.0374.0187-.0654.0047-.084-.042-.0187-.056-.014-.0933.014-.112l1.722-.826c.0373-.0093.0653-.014.084-.014.084 0 .1773.1027.28.308.1026.2053.154.4993.154.882v3.206c0 .392.0513.6533.154.784.112.1213.3406.182.686.182.028 0 .042.028.042.084 0 .056-.014.084-.042.084-.1774 0-.378-.0047-.602-.014-.224-.0093-.462-.014-.714-.014-.252 0-.4947.0047-.728.014-.224.0093-.42.014-.588.014Zm8.1554-4.606c0 .224.056.42.168.588.1213.1587.2753.2987.462.42a16.28 16.28 0 0 0 .588.364 6.911 6.911 0 0 1 .686.392c.224.1307.406.294.546.49s.21.4527.21.77c0 .2987-.0747.5833-.224.854-.1493.2613-.3733.476-.672.644-.2987.1587-.672.238-1.12.238-.224 0-.448-.028-.672-.084-.224-.056-.4573-.1633-.7-.322a.4605.4605 0 0 1-.056-.07.1723.1723 0 0 1-.028-.098l-.028-1.176c0-.028.0233-.042.07-.042.056-.0093.0887-.0047.098.014.112.308.252.5787.42.812.1773.224.3733.3967.588.518.224.1213.462.182.714.182.2613 0 .4667-.07.616-.21.1493-.14.2193-.35.21-.63 0-.2613-.0653-.476-.196-.644a1.4672 1.4672 0 0 0-.462-.434 6.0286 6.0286 0 0 0-.588-.336 9.0376 9.0376 0 0 1-.658-.364c-.2147-.1307-.392-.294-.532-.49-.1307-.196-.196-.4527-.196-.77 0-.3733.0933-.6767.28-.91.196-.2333.4433-.4013.742-.504.2987-.112.6067-.168.924-.168.1867 0 .364.0187.532.056.168.028.3453.0793.532.154.084.0373.126.0887.126.154 0 .168-.0047.3407-.014.518s-.014.3687-.014.574c0 .028-.028.042-.084.042-.056 0-.084-.014-.084-.042 0-.196-.0747-.3827-.224-.56-.1493-.1773-.336-.322-.56-.434-.224-.1213-.4573-.182-.7-.182-.196 0-.364.0513-.504.154-.1307.1027-.196.28-.196.532Zm7.6705 4.69a.2778.2778 0 0 1-.126.028c-.14 0-.2754-.1027-.406-.308-.1214-.2147-.182-.518-.182-.91V51.43c0-.4107-.0374-.7373-.112-.98-.0654-.2427-.1634-.4153-.294-.518-.1214-.112-.266-.168-.434-.168-.2054 0-.378.0513-.518.154s-.2474.2427-.322.42c-.0654.168-.112.3547-.14.56-.0187.1773-.0747.3267-.168.448-.084.112-.2334.168-.448.168-.168 0-.2987-.042-.392-.126-.0934-.084-.14-.2007-.14-.35 0-.1773.0886-.3547.266-.532.1773-.1867.4013-.3593.672-.518a4.2115 4.2115 0 0 1 .84-.378c.2986-.0933.574-.14.826-.14.3733 0 .686.126.938.378.252.2427.378.63.378 1.162v2.478c0 .308.042.5367.126.686.084.1493.2193.224.406.224.1586 0 .364-.0513.616-.154.0373-.0187.0653 0 .084.056.028.0467.0186.0793-.028.098l-1.442.686Zm-2.814.014c-.2987 0-.5274-.0793-.686-.238-.1587-.1587-.238-.3593-.238-.602 0-.2893.112-.5087.336-.658.224-.1493.5833-.308 1.078-.476l1.75-.602.042.168-1.428.546c-.224.084-.3827.1773-.476.28-.0934.1027-.14.2333-.14.392 0 .196.056.35.168.462.112.112.2566.168.434.168.0933 0 .1913-.014.294-.042.1026-.028.21-.0653.322-.112l1.064-.56.014.196-1.204.658c-.2707.14-.5134.2473-.728.322-.2054.0653-.406.098-.602.098Zm6.7329 3.85c-.672 0-1.218-.1587-1.638-.476-.4107-.308-.616-.7047-.616-1.19 0-.2707.07-.5367.21-.798.14-.2613.3593-.532.658-.812.2986-.28.686-.5647 1.162-.854l.14.154a10.9339 10.9339 0 0 0-.56.42 2.1904 2.1904 0 0 0-.448.56c-.112.2147-.168.4853-.168.812 0 .5507.168.98.504 1.288.3453.3173.8026.476 1.372.476.4293 0 .7933-.0793 1.092-.238.2986-.1587.5273-.3733.686-.644.1586-.2707.238-.5553.238-.854 0-.2987-.07-.5367-.21-.714-.14-.168-.3267-.3033-.56-.406-.2334-.0933-.4947-.168-.784-.224-.28-.0467-.56-.0887-.84-.126a9.2255 9.2255 0 0 1-.882-.182c-.2894-.0653-.5274-.1727-.714-.322-.1867-.1493-.28-.364-.28-.644 0-.2893.112-.5693.336-.84.224-.28.5273-.518.91-.714l.112.084c-.1867.1027-.3314.2333-.434.392a.9062.9062 0 0 0-.14.49c0 .2147.0793.3827.238.504.1586.112.364.196.616.252.252.056.5133.1073.784.154.3266.0467.6486.1027.966.168.3173.056.6066.14.868.252.2613.1027.4713.252.63.448.168.2053.252.4807.252.826 0 .336-.0934.6673-.28.994-.1774.3267-.4294.6207-.756.882-.3174.2707-.6907.4853-1.12.644-.42.1587-.868.238-1.344.238Zm.308-6.076c-.448 0-.826-.0793-1.134-.238-.308-.1587-.546-.3687-.714-.63-.1587-.2613-.238-.5367-.238-.826 0-.3453.1026-.644.308-.896.2146-.252.4946-.4433.84-.574.3453-.14.714-.21 1.106-.21.4573 0 .8353.0793 1.134.238.308.1587.5366.364.686.616.1493.2427.224.4993.224.77 0 .336-.098.6347-.294.896-.196.2613-.462.4713-.798.63-.336.1493-.7094.224-1.12.224Zm.322-.21c.2146 0 .4106-.0933.588-.28.1773-.1867.266-.504.266-.952 0-.5133-.1447-.924-.434-1.232-.28-.3173-.602-.476-.966-.476-.2427 0-.4434.0933-.602.28-.1587.1773-.238.462-.238.854 0 .3547.0653.6673.196.938.1306.2707.2986.4853.504.644.2146.1493.4433.224.686.224Zm1.022-2.086.014-.462c.2893-.2053.574-.364.854-.476.28-.112.588-.168.924-.168.028 0 .0466.0373.056.112.0186.0653.028.14.028.224 0 .112-.014.2333-.042.364-.028.1307-.0607.1867-.098.168-.1214-.056-.266-.1073-.434-.154-.1587-.0467-.336-.07-.532-.07-.112 0-.224.0093-.336.028a2.3593 2.3593 0 0 0-.322.084l-.112.35Zm5.0366 4.592c-.5787 0-1.0733-.126-1.484-.378-.4013-.2613-.7047-.5973-.91-1.008-.196-.4107-.294-.8447-.294-1.302 0-.5693.1353-1.078.406-1.526.2707-.4573.6347-.8167 1.092-1.078.4667-.2707.9893-.406 1.568-.406.532 0 .938.126 1.218.378.2893.2427.434.5787.434 1.008 0 .1027-.0093.1867-.028.252s-.0607.098-.126.098h-.994c.0373-.448-.0327-.8027-.21-1.064-.1773-.2613-.4387-.392-.784-.392-.476 0-.8447.196-1.106.588-.2613.392-.392.9193-.392 1.582 0 .5227.084.9893.252 1.4.168.4013.4153.7187.742.952.3267.224.7187.336 1.176.336.2427 0 .49-.0327.742-.098a2.4254 2.4254 0 0 0 .7-.336c.0187-.0187.042-.0047.07.042.0373.0373.0467.07.028.098-.336.308-.6767.5273-1.022.658a3.0203 3.0203 0 0 1-1.078.196Zm-1.932-3.934-.014-.21 3.15-.07v.252l-3.136.028Zm5.9938-.84c0 .224.056.42.168.588.1214.1587.2754.2987.462.42a16.28 16.28 0 0 0 .588.364c.2427.1213.4714.252.686.392.224.1307.406.294.546.49s.21.4527.21.77c0 .2987-.0746.5833-.224.854-.1493.2613-.3733.476-.672.644-.2986.1587-.672.238-1.12.238-.224 0-.448-.028-.672-.084-.224-.056-.4573-.1633-.7-.322a.4667.4667 0 0 1-.056-.07.1731.1731 0 0 1-.028-.098l-.028-1.176c0-.028.0234-.042.07-.042.056-.0093.0887-.0047.098.014.112.308.252.5787.42.812.1774.224.3734.3967.588.518.224.1213.462.182.714.182.2614 0 .4667-.07.616-.21.1494-.14.2194-.35.21-.63 0-.2613-.0653-.476-.196-.644a1.4672 1.4672 0 0 0-.462-.434 6.0052 6.0052 0 0 0-.588-.336 9.0376 9.0376 0 0 1-.658-.364c-.2146-.1307-.392-.294-.532-.49-.1306-.196-.196-.4527-.196-.77 0-.3733.0934-.6767.28-.91.196-.2333.4434-.4013.742-.504.2987-.112.6067-.168.924-.168.1867 0 .364.0187.532.056.168.028.3454.0793.532.154.084.0373.126.0887.126.154 0 .168-.0046.3407-.014.518-.0093.1773-.014.3687-.014.574 0 .028-.028.042-.084.042-.056 0-.084-.014-.084-.042 0-.196-.0746-.3827-.224-.56-.1493-.1773-.336-.322-.56-.434-.224-.1213-.4573-.182-.7-.182-.196 0-.364.0513-.504.154-.1306.1027-.196.28-.196.532Zm6.9478 8.456c-.028 0-.042-.028-.042-.084 0-.056.014-.084.042-.084.3546 0 .5833-.0607.686-.182.112-.1213.168-.3827.168-.784v-6.552c0-.3173-.0374-.546-.112-.686-.0654-.1493-.1914-.224-.378-.224-.084 0-.1867.0187-.308.056-.1214.028-.2567.0793-.406.154-.0374.0093-.0654-.0093-.084-.056-.028-.056-.028-.0887 0-.098l1.68-.812a.1721.1721 0 0 1 .098-.028c.1213 0 .2286.1073.322.322.0933.2147.14.532.14.952v6.972c0 .2613.0326.462.098.602.0653.14.1913.2333.378.28.196.056.4853.084.868.084.028 0 .042.028.042.084 0 .056-.014.084-.042.084-.252 0-.532-.0047-.84-.014a32.543 32.543 0 0 0-.98-.014c-.252 0-.4947.0047-.728.014-.2334.0093-.434.014-.602.014Zm3.192-3.668c-.3547 0-.6674-.0373-.938-.112-.2614-.0747-.5647-.2147-.91-.42l.294-.798c.2426.2893.504.532.784.728.2893.196.672.294 1.148.294.4666 0 .8493-.2053 1.148-.616.308-.42.462-1.0313.462-1.834 0-.7933-.1774-1.3907-.532-1.792-.3547-.4107-.7794-.616-1.274-.616-.392 0-.7374.1073-1.036.322-.2894.2147-.574.476-.854.784l-.126-.126c.476-.5507.9333-.952 1.372-1.204.4386-.252.882-.378 1.33-.378.392 0 .7513.1027 1.078.308.3266.196.588.4853.784.868.2053.3827.308.8493.308 1.4 0 .5787-.098 1.0733-.294 1.484-.1867.4013-.4387.728-.756.98-.308.252-.6347.434-.98.546-.3454.1213-.6814.182-1.008.182Zm5.6244-3.976-.084-.154c.3546-.4293.6486-.756.882-.98.2333-.224.434-.378.602-.462.168-.0933.3266-.14.476-.14.196 0 .392.0607.588.182.196.1213.294.2753.294.462 0 .14-.0467.2613-.14.364-.0934.0933-.2194.14-.378.14-.1494 0-.2707-.042-.364-.126a3.2363 3.2363 0 0 0-.266-.238c-.084-.084-.2007-.126-.35-.126-.0747 0-.1587.0233-.252.07-.0934.0467-.2194.1493-.378.308-.1494.1493-.3594.3827-.63.7ZM86.8872 55c-.028 0-.042-.028-.042-.084 0-.056.014-.084.042-.084.336 0 .5553-.0607.658-.182.112-.1307.168-.392.168-.784v-2.73c0-.2987-.0374-.518-.112-.658-.0654-.14-.182-.21-.35-.21-.0934 0-.2007.0187-.322.056-.1214.028-.2614.0747-.42.14-.0374.0187-.0654.0047-.084-.042-.0187-.056-.014-.0933.014-.112l1.722-.826c.0373-.0093.0653-.014.084-.014.084 0 .1773.1027.28.308.1026.2053.154.4993.154.882v3.206c0 .2613.0326.462.098.602.0746.14.2053.238.392.294.196.0467.476.07.84.07.028 0 .042.028.042.084 0 .056-.014.084-.042.084-.2427 0-.518-.0047-.826-.014a32.543 32.543 0 0 0-.98-.014c-.252 0-.4947.0047-.728.014-.224.0093-.42.014-.588.014Zm8.7848.084a.2772.2772 0 0 1-.126.028c-.14 0-.2753-.1027-.406-.308-.1213-.2147-.182-.518-.182-.91V51.43c0-.4107-.0373-.7373-.112-.98-.0653-.2427-.1633-.4153-.294-.518-.1213-.112-.266-.168-.434-.168-.2053 0-.378.0513-.518.154s-.2473.2427-.322.42c-.0653.168-.112.3547-.14.56-.0186.1773-.0746.3267-.168.448-.084.112-.2333.168-.448.168-.168 0-.2986-.042-.392-.126-.0933-.084-.14-.2007-.14-.35 0-.1773.0887-.3547.266-.532.1774-.1867.4014-.3593.672-.518a4.2166 4.2166 0 0 1 .84-.378c.2987-.0933.574-.14.826-.14.3734 0 .686.126.938.378.252.2427.378.63.378 1.162v2.478c0 .308.042.5367.126.686.084.1493.2194.224.406.224.1587 0 .364-.0513.616-.154.0374-.0187.0654 0 .084.056.028.0467.0187.0793-.028.098l-1.442.686Zm-2.814.014c-.2986 0-.5273-.0793-.686-.238-.1586-.1587-.238-.3593-.238-.602 0-.2893.112-.5087.336-.658.224-.1493.5834-.308 1.078-.476l1.75-.602.042.168-1.428.546c-.224.084-.3826.1773-.476.28-.0933.1027-.14.2333-.14.392 0 .196.056.35.168.462.112.112.2567.168.434.168.0934 0 .1914-.014.294-.042.1027-.028.21-.0653.322-.112l1.064-.56.014.196-1.204.658c-.2706.14-.5133.2473-.728.322-.2053.0653-.406.098-.602.098Zm10.222-5.502c.028 0 .042.028.042.084 0 .056-.014.084-.042.084-.261 0-.485.098-.672.294-.177.196-.341.4993-.49.91l-1.666 4.424c-.3361.896-.6581 1.6007-.9661 2.114-.308.5227-.6253.8913-.952 1.106-.3267.2147-.686.322-1.078.322-.2147 0-.392-.0513-.532-.154-.1493-.0933-.224-.238-.224-.434 0-.168.0513-.294.154-.378.1027-.0747.2193-.112.35-.112.1773 0 .3127.028.406.084l.28.168c.0933.056.2147.084.364.084.224 0 .4387-.1027.644-.308.2053-.2053.4247-.5553.658-1.05.2333-.4853.504-1.1527.8121-2.002l-.014.518-2.2681-4.592c-.2053-.4107-.3687-.6767-.49-.798-.112-.1307-.252-.196-.42-.196-.028 0-.042-.028-.042-.084 0-.056.014-.084.042-.084.1587 0 .3267.0047.504.014s.3453.014.504.014c.3173 0 .5927-.0047.826-.014.2427-.0093.462-.014.658-.014.0187 0 .028.028.028.084 0 .056-.0093.084-.028.084-.308 0-.532.0373-.672.112-.1307.0747-.1447.2193-.042.434l1.8901 3.85-.392.658 1.33-3.822c.149-.4293.149-.742 0-.938-.14-.196-.439-.294-.896-.294-.019 0-.028-.028-.028-.084 0-.056.009-.084.028-.084.224 0 .434.0047.63.014.205.0093.467.014.784.014.205 0 .373-.0047.504-.014.14-.0093.299-.014.476-.014Zm.653 5.404c-.028 0-.042-.028-.042-.084 0-.056.014-.084.042-.084.336 0 .56-.0607.672-.182.112-.1307.168-.392.168-.784V51.29c0-.3267-.033-.5647-.098-.714s-.182-.224-.35-.224c-.075 0-.163.014-.266.042-.093.028-.205.0747-.336.14-.037.0093-.07-.0093-.098-.056-.019-.056-.009-.0933.028-.112l1.904-.882c.028-.0093.047-.014.056-.014.028 0 .056.014.084.042.037.028.056.0607.056.098 0 .084-.005.266-.014.546-.009.28-.014.6487-.014 1.106v2.604c0 .392.051.6533.154.784.112.1213.341.182.686.182.028 0 .042.028.042.084 0 .056-.014.084-.042.084-.168 0-.369-.0047-.602-.014-.224-.0093-.462-.014-.714-.014-.252 0-.49.0047-.714.014-.224.0093-.425.014-.602.014Zm1.232-7.098c-.215 0-.383-.056-.504-.168-.121-.1213-.182-.2893-.182-.504 0-.2053.061-.364.182-.476.121-.112.289-.168.504-.168.215 0 .378.056.49.168.112.112.168.2707.168.476 0 .448-.219.672-.658.672ZM111.188 55c-.028 0-.042-.028-.042-.084 0-.056.014-.084.042-.084.336 0 .556-.0607.658-.182.112-.1307.168-.392.168-.784v-2.198c0-.532-.098-.924-.294-1.176-.196-.2613-.508-.392-.938-.392-.326 0-.658.098-.994.294-.326.1867-.606.448-.84.784l-.056-.168c.383-.5227.775-.9193 1.176-1.19.411-.2707.84-.406 1.288-.406.514 0 .91.1493 1.19.448.29.2987.434.7233.434 1.274v2.73c0 .392.052.6533.154.784.112.1213.341.182.686.182.028 0 .042.028.042.084 0 .056-.014.084-.042.084-.177 0-.378-.0047-.602-.014-.224-.0093-.462-.014-.714-.014-.252 0-.494.0047-.728.014-.224.0093-.42.014-.588.014Zm-3.766 0c-.028 0-.042-.028-.042-.084 0-.056.014-.084.042-.084.336 0 .556-.0607.658-.182.112-.1307.168-.392.168-.784v-2.73c0-.2987-.037-.518-.112-.658-.065-.14-.182-.21-.35-.21-.093 0-.2.0187-.322.056-.121.028-.261.0747-.42.14-.037.0187-.065.0047-.084-.042-.018-.056-.014-.0933.014-.112l1.722-.826c.038-.0093.066-.014.084-.014.084 0 .178.1027.28.308.103.2053.154.4993.154.882v3.206c0 .392.052.6533.154.784.112.1213.341.182.686.182.028 0 .042.028.042.084 0 .056-.014.084-.042.084-.177 0-.378-.0047-.602-.014-.224-.0093-.462-.014-.714-.014-.252 0-.494.0047-.728.014-.224.0093-.42.014-.588.014Zm9.136 3.948c-.672 0-1.218-.1587-1.638-.476-.411-.308-.616-.7047-.616-1.19 0-.2707.07-.5367.21-.798.14-.2613.359-.532.658-.812.298-.28.686-.5647 1.162-.854l.14.154c-.187.1307-.374.2707-.56.42-.178.1587-.327.3453-.448.56-.112.2147-.168.4853-.168.812 0 .5507.168.98.504 1.288.345.3173.802.476 1.372.476.429 0 .793-.0793 1.092-.238.298-.1587.527-.3733.686-.644.158-.2707.238-.5553.238-.854 0-.2987-.07-.5367-.21-.714-.14-.168-.327-.3033-.56-.406-.234-.0933-.495-.168-.784-.224-.28-.0467-.56-.0887-.84-.126a9.1875 9.1875 0 0 1-.882-.182c-.29-.0653-.528-.1727-.714-.322-.187-.1493-.28-.364-.28-.644 0-.2893.112-.5693.336-.84.224-.28.527-.518.91-.714l.112.084c-.187.1027-.332.2333-.434.392-.094.1493-.14.3127-.14.49 0 .2147.079.3827.238.504.158.112.364.196.616.252.252.056.513.1073.784.154.326.0467.648.1027.966.168.317.056.606.14.868.252.261.1027.471.252.63.448.168.2053.252.4807.252.826 0 .336-.094.6673-.28.994-.178.3267-.43.6207-.756.882-.318.2707-.691.4853-1.12.644-.42.1587-.868.238-1.344.238Zm.308-6.076c-.448 0-.826-.0793-1.134-.238-.308-.1587-.546-.3687-.714-.63-.159-.2613-.238-.5367-.238-.826 0-.3453.102-.644.308-.896.214-.252.494-.4433.84-.574.345-.14.714-.21 1.106-.21.457 0 .835.0793 1.134.238.308.1587.536.364.686.616.149.2427.224.4993.224.77 0 .336-.098.6347-.294.896-.196.2613-.462.4713-.798.63-.336.1493-.71.224-1.12.224Zm.322-.21c.214 0 .41-.0933.588-.28.177-.1867.266-.504.266-.952 0-.5133-.145-.924-.434-1.232-.28-.3173-.602-.476-.966-.476-.243 0-.444.0933-.602.28-.159.1773-.238.462-.238.854 0 .3547.065.6673.196.938.13.2707.298.4853.504.644.214.1493.443.224.686.224Zm1.022-2.086.014-.462c.289-.2053.574-.364.854-.476.28-.112.588-.168.924-.168.028 0 .046.0373.056.112a.843.843 0 0 1 .028.224c0 .112-.014.2333-.042.364-.028.1307-.061.1867-.098.168-.122-.056-.266-.1073-.434-.154-.159-.0467-.336-.07-.532-.07-.112 0-.224.0093-.336.028-.103.0187-.21.0467-.322.084l-.112.35ZM123.934 55c-.028 0-.042-.028-.042-.084 0-.056.014-.084.042-.084.392 0 .644-.0607.756-.182.112-.1213.168-.3827.168-.784v-3.15c0-.224-.024-.3873-.07-.49-.047-.1027-.14-.168-.28-.196-.14-.0373-.35-.056-.63-.056-.028 0-.042-.0327-.042-.098s.014-.098.042-.098c.373 0 .625-.0467.756-.14.13-.0933.2-.2567.21-.49.046-1.5493.331-2.6553.854-3.318.532-.6627 1.292-.994 2.282-.994.504 0 .9.0747 1.19.224.298.14.448.322.448.546 0 .168-.061.2987-.182.392a.6143.6143 0 0 1-.378.126c-.159 0-.28-.0373-.364-.112-.084-.084-.173-.1913-.266-.322-.112-.1773-.238-.3173-.378-.42-.14-.112-.332-.168-.574-.168-.476 0-.873.294-1.19.882-.308.588-.462 1.5447-.462 2.87v5.012c0 .2707.028.476.084.616.065.14.191.2333.378.28.196.0467.49.07.882.07.028 0 .042.028.042.084 0 .056-.014.084-.042.084a29.64 29.64 0 0 1-.924-.014c-.299-.0093-.602-.014-.91-.014-.262 0-.514.0047-.756.014-.234.0093-.448.014-.644.014Zm3.57-4.718c-.364-.084-.714-.14-1.05-.168-.327-.028-.677-.042-1.05-.042v-.322c.354 0 .704-.014 1.05-.042.345-.028.709-.0607 1.092-.098.028 0 .051.0327.07.098a.843.843 0 0 1 .028.224c0 .0747-.019.154-.056.238-.028.084-.056.1213-.084.112Zm3.537 4.9c-.569 0-1.064-.1353-1.484-.406-.41-.2707-.728-.63-.952-1.078-.224-.4573-.336-.9473-.336-1.47 0-.4853.089-.9053.266-1.26.187-.3547.43-.644.728-.868.299-.2333.626-.406.98-.518.355-.112.705-.168 1.05-.168.579 0 1.074.14 1.484.42.411.28.724.6393.938 1.078.224.4387.336.9007.336 1.386 0 .588-.14 1.1013-.42 1.54-.28.4293-.648.7607-1.106.994-.448.2333-.942.35-1.484.35Zm.406-.266c.458 0 .812-.1773 1.064-.532.262-.364.392-.9147.392-1.652 0-.6253-.093-1.162-.28-1.61-.186-.4573-.438-.8073-.756-1.05-.308-.252-.658-.378-1.05-.378-.457 0-.812.1773-1.064.532-.242.3453-.364.8587-.364 1.54 0 .588.089 1.1247.266 1.61.178.476.42.854.728 1.134.308.2707.663.406 1.064.406Zm5.172-3.71-.084-.154c.355-.4293.649-.756.882-.98.234-.224.434-.378.602-.462.168-.0933.327-.14.476-.14.196 0 .392.0607.588.182.196.1213.294.2753.294.462 0 .14-.046.2613-.14.364-.093.0933-.219.14-.378.14-.149 0-.27-.042-.364-.126a3.1254 3.1254 0 0 0-.266-.238c-.084-.084-.2-.126-.35-.126-.074 0-.158.0233-.252.07-.093.0467-.219.1493-.378.308-.149.1493-.359.3827-.63.7ZM135.135 55c-.028 0-.042-.028-.042-.084 0-.056.014-.084.042-.084.336 0 .556-.0607.658-.182.112-.1307.168-.392.168-.784v-2.73c0-.2987-.037-.518-.112-.658-.065-.14-.182-.21-.35-.21-.093 0-.2.0187-.322.056-.121.028-.261.0747-.42.14-.037.0187-.065.0047-.084-.042-.018-.056-.014-.0933.014-.112l1.722-.826c.038-.0093.066-.014.084-.014.084 0 .178.1027.28.308.103.2053.154.4993.154.882v3.206c0 .2613.033.462.098.602.075.14.206.238.392.294.196.0467.476.07.84.07.028 0 .042.028.042.084 0 .056-.014.084-.042.084-.242 0-.518-.0047-.826-.014a32.509 32.509 0 0 0-.98-.014c-.252 0-.494.0047-.728.014-.224.0093-.42.014-.588.014Zm10.465.168c-.224 0-.443-.0373-.658-.112-.214-.0653-.392-.1867-.532-.364-.13-.1773-.196-.4153-.196-.714v-3.234c0-.2147-.018-.378-.056-.49-.037-.112-.107-.1867-.21-.224-.102-.0373-.256-.056-.462-.056-.028 0-.042-.0327-.042-.098 0-.0747.014-.112.042-.112.411-.0093.742-.1073.994-.294.262-.196.425-.462.49-.798.01-.028.047-.042.112-.042.066 0 .098.014.098.042v4.83c0 .3827.094.6627.28.84.196.1773.462.266.798.266.234 0 .444-.042.63-.126.196-.084.355-.1727.476-.266.038-.028.07-.0187.098.028.038.0373.038.07 0 .098-.345.2893-.662.4993-.952.63-.289.1307-.592.196-.91.196Zm1.442-4.886c-.373-.084-.732-.14-1.078-.168-.345-.028-.709-.042-1.092-.042v-.322c.374 0 .733-.014 1.078-.042.355-.028.733-.0607 1.134-.098.028 0 .052.0327.07.098.019.0653.028.14.028.224 0 .0747-.014.154-.042.238-.028.084-.06.1213-.098.112ZM148.049 55c-.019 0-.028-.028-.028-.084 0-.056.009-.084.028-.084.345 0 .569-.0607.672-.182.112-.1307.168-.392.168-.784V46.67c0-.3267-.033-.5647-.098-.714-.056-.1493-.163-.224-.322-.224-.14 0-.345.0607-.616.182-.028.0187-.056 0-.084-.056-.028-.056-.028-.0887 0-.098l1.876-.91h.042c.037 0 .07.014.098.042.037.028.056.0607.056.098v8.876c0 .392.056.6533.168.784.112.1213.341.182.686.182.028 0 .042.028.042.084 0 .056-.014.084-.042.084-.177 0-.378-.0047-.602-.014-.224-.0093-.462-.014-.714-.014-.252 0-.495.0047-.728.014-.224.0093-.425.014-.602.014Zm3.766 0c-.019 0-.028-.028-.028-.084 0-.056.009-.084.028-.084.345 0 .569-.0607.672-.182.112-.1307.168-.392.168-.784V51.71c0-1.064-.411-1.596-1.232-1.596-.327 0-.658.098-.994.294-.336.196-.616.4573-.84.784l-.07-.168c.392-.5227.789-.9147 1.19-1.176.411-.2707.84-.406 1.288-.406.513 0 .91.1493 1.19.448.28.2987.42.7233.42 1.274v2.702c0 .392.056.6533.168.784.112.1213.341.182.686.182.028 0 .042.028.042.084 0 .056-.014.084-.042.084-.177 0-.378-.0047-.602-.014-.224-.0093-.462-.014-.714-.014-.252 0-.495.0047-.728.014-.224.0093-.425.014-.602.014Zm6.103.168c-.578 0-1.073-.126-1.484-.378-.401-.2613-.704-.5973-.91-1.008-.196-.4107-.294-.8447-.294-1.302 0-.5693.136-1.078.406-1.526.271-.4573.635-.8167 1.092-1.078.467-.2707.99-.406 1.568-.406.532 0 .938.126 1.218.378.29.2427.434.5787.434 1.008 0 .1027-.009.1867-.028.252-.018.0653-.06.098-.126.098h-.994c.038-.448-.032-.8027-.21-1.064-.177-.2613-.438-.392-.784-.392-.476 0-.844.196-1.106.588-.261.392-.392.9193-.392 1.582 0 .5227.084.9893.252 1.4.168.4013.416.7187.742.952.327.224.719.336 1.176.336.243 0 .49-.0327.742-.098.252-.0747.486-.1867.7-.336.019-.0187.042-.0047.07.042.038.0373.047.07.028.098-.336.308-.676.5273-1.022.658-.345.1307-.704.196-1.078.196Zm-1.932-3.934-.014-.21 3.15-.07v.252l-3.136.028Zm12.215 3.85a.2754.2754 0 0 1-.126.028c-.14 0-.275-.1027-.406-.308-.121-.2147-.182-.518-.182-.91V51.43c0-.4107-.037-.7373-.112-.98-.065-.2427-.163-.4153-.294-.518-.121-.112-.266-.168-.434-.168-.205 0-.378.0513-.518.154s-.247.2427-.322.42c-.065.168-.112.3547-.14.56-.018.1773-.074.3267-.168.448-.084.112-.233.168-.448.168-.168 0-.298-.042-.392-.126-.093-.084-.14-.2007-.14-.35 0-.1773.089-.3547.266-.532.178-.1867.402-.3593.672-.518a4.232 4.232 0 0 1 .84-.378c.299-.0933.574-.14.826-.14.374 0 .686.126.938.378.252.2427.378.63.378 1.162v2.478c0 .308.042.5367.126.686.084.1493.22.224.406.224.159 0 .364-.0513.616-.154.038-.0187.066 0 .084.056.028.0467.019.0793-.028.098l-1.442.686Zm-2.814.014c-.298 0-.527-.0793-.686-.238-.158-.1587-.238-.3593-.238-.602 0-.2893.112-.5087.336-.658.224-.1493.584-.308 1.078-.476l1.75-.602.042.168-1.428.546c-.224.084-.382.1773-.476.28-.093.1027-.14.2333-.14.392 0 .196.056.35.168.462.112.112.257.168.434.168.094 0 .192-.014.294-.042.103-.028.21-.0653.322-.112l1.064-.56.014.196-1.204.658c-.27.14-.513.2473-.728.322-.205.0653-.406.098-.602.098Zm6.355-3.892-.084-.154c.355-.4293.649-.756.882-.98.234-.224.434-.378.602-.462.168-.0933.327-.14.476-.14.196 0 .392.0607.588.182.196.1213.294.2753.294.462 0 .14-.046.2613-.14.364-.093.0933-.219.14-.378.14-.149 0-.27-.042-.364-.126a3.1254 3.1254 0 0 0-.266-.238c-.084-.084-.2-.126-.35-.126-.074 0-.158.0233-.252.07-.093.0467-.219.1493-.378.308-.149.1493-.359.3827-.63.7ZM170.258 55c-.028 0-.042-.028-.042-.084 0-.056.014-.084.042-.084.336 0 .556-.0607.658-.182.112-.1307.168-.392.168-.784v-2.73c0-.2987-.037-.518-.112-.658-.065-.14-.182-.21-.35-.21-.093 0-.2.0187-.322.056-.121.028-.261.0747-.42.14-.037.0187-.065.0047-.084-.042-.018-.056-.014-.0933.014-.112l1.722-.826c.038-.0093.066-.014.084-.014.084 0 .178.1027.28.308.103.2053.154.4993.154.882v3.206c0 .2613.033.462.098.602.075.14.206.238.392.294.196.0467.476.07.84.07.028 0 .042.028.042.084 0 .056-.014.084-.042.084-.242 0-.518-.0047-.826-.014a32.509 32.509 0 0 0-.98-.014c-.252 0-.494.0047-.728.014-.224.0093-.42.014-.588.014Zm7.58.168c-.579 0-1.073-.126-1.484-.378-.401-.2613-.705-.5973-.91-1.008-.196-.4107-.294-.8447-.294-1.302 0-.5693.135-1.078.406-1.526.271-.4573.635-.8167 1.092-1.078.467-.2707.989-.406 1.568-.406.532 0 .938.126 1.218.378.289.2427.434.5787.434 1.008 0 .1027-.009.1867-.028.252-.019.0653-.061.098-.126.098h-.994c.037-.448-.033-.8027-.21-1.064-.177-.2613-.439-.392-.784-.392-.476 0-.845.196-1.106.588-.261.392-.392.9193-.392 1.582 0 .5227.084.9893.252 1.4.168.4013.415.7187.742.952.327.224.719.336 1.176.336.243 0 .49-.0327.742-.098.252-.0747.485-.1867.7-.336.019-.0187.042-.0047.07.042.037.0373.047.07.028.098-.336.308-.677.5273-1.022.658-.345.1307-.705.196-1.078.196Zm-1.932-3.934-.014-.21 3.15-.07v.252l-3.136.028Zm8.879 3.85a.2754.2754 0 0 1-.126.028c-.14 0-.275-.1027-.406-.308-.121-.2147-.182-.518-.182-.91V51.43c0-.4107-.037-.7373-.112-.98-.065-.2427-.163-.4153-.294-.518-.121-.112-.266-.168-.434-.168-.205 0-.378.0513-.518.154s-.247.2427-.322.42c-.065.168-.112.3547-.14.56-.018.1773-.074.3267-.168.448-.084.112-.233.168-.448.168-.168 0-.298-.042-.392-.126-.093-.084-.14-.2007-.14-.35 0-.1773.089-.3547.266-.532.178-.1867.402-.3593.672-.518a4.232 4.232 0 0 1 .84-.378c.299-.0933.574-.14.826-.14.374 0 .686.126.938.378.252.2427.378.63.378 1.162v2.478c0 .308.042.5367.126.686.084.1493.22.224.406.224.159 0 .364-.0513.616-.154.038-.0187.066 0 .084.056.028.0467.019.0793-.028.098l-1.442.686Zm-2.814.014c-.298 0-.527-.0793-.686-.238-.158-.1587-.238-.3593-.238-.602 0-.2893.112-.5087.336-.658.224-.1493.584-.308 1.078-.476l1.75-.602.042.168-1.428.546c-.224.084-.382.1773-.476.28-.093.1027-.14.2333-.14.392 0 .196.056.35.168.462.112.112.257.168.434.168.094 0 .192-.014.294-.042.103-.028.21-.0653.322-.112l1.064-.56.014.196-1.204.658c-.27.14-.513.2473-.728.322-.205.0653-.406.098-.602.098Zm10.812.084c-.569 0-1.064-.1353-1.484-.406-.41-.2707-.728-.63-.952-1.078-.224-.4573-.336-.9473-.336-1.47 0-.4853.089-.9053.266-1.26.187-.3547.43-.644.728-.868.299-.2333.626-.406.98-.518.355-.112.705-.168 1.05-.168.579 0 1.074.14 1.484.42.411.28.724.6393.938 1.078.224.4387.336.9007.336 1.386 0 .588-.14 1.1013-.42 1.54-.28.4293-.648.7607-1.106.994-.448.2333-.942.35-1.484.35Zm.406-.266c.458 0 .812-.1773 1.064-.532.262-.364.392-.9147.392-1.652 0-.6253-.093-1.162-.28-1.61-.186-.4573-.438-.8073-.756-1.05-.308-.252-.658-.378-1.05-.378-.457 0-.812.1773-1.064.532-.242.3453-.364.8587-.364 1.54 0 .588.089 1.1247.266 1.61.178.476.42.854.728 1.134.308.2707.663.406 1.064.406Zm5.676.21c-.476 0-.854-.1493-1.134-.448-.27-.308-.406-.7327-.406-1.274V51.29c0-.3547-.032-.6113-.098-.77-.056-.1587-.163-.238-.322-.238-.121 0-.266.042-.434.126-.037.0187-.07 0-.098-.056-.018-.056-.009-.0887.028-.098l1.652-.77a.128.128 0 0 1 .056-.014c.038 0 .075.014.112.042.038.028.056.0607.056.098v3.262c0 .5413.094.9427.28 1.204.196.252.49.378.882.378.336 0 .668-.098.994-.294.336-.196.621-.4527.854-.77l.07.154c-.392.5227-.793.9193-1.204 1.19-.401.2613-.83.392-1.288.392Zm3.108-5.516v3.85c0 .3173.033.546.098.686.075.14.196.21.364.21.084 0 .178-.014.28-.042.112-.0373.248-.0887.406-.154.038-.0187.066 0 .084.056.028.0467.028.0793 0 .098l-1.736.826c-.018.0093-.042.014-.07.014-.074 0-.158-.1027-.252-.308-.084-.2147-.126-.518-.126-.91V51.29c0-.3547-.032-.6113-.098-.77-.065-.1587-.172-.238-.322-.238-.121 0-.27.042-.448.126-.028.0187-.056 0-.084-.056-.018-.056-.009-.0887.028-.098l1.652-.77a.128.128 0 0 1 .056-.014c.028 0 .061.014.098.042.047.028.07.0607.07.098Zm3.879 5.558c-.224 0-.443-.0373-.658-.112-.214-.0653-.392-.1867-.532-.364-.13-.1773-.196-.4153-.196-.714v-3.234c0-.2147-.018-.378-.056-.49-.037-.112-.107-.1867-.21-.224-.102-.0373-.256-.056-.462-.056-.028 0-.042-.0327-.042-.098 0-.0747.014-.112.042-.112.411-.0093.742-.1073.994-.294.262-.196.425-.462.49-.798.01-.028.047-.042.112-.042.066 0 .098.014.098.042v4.83c0 .3827.094.6627.28.84.196.1773.462.266.798.266.234 0 .444-.042.63-.126.196-.084.355-.1727.476-.266.038-.028.07-.0187.098.028.038.0373.038.07 0 .098-.345.2893-.662.4993-.952.63-.289.1307-.592.196-.91.196Zm1.442-4.886c-.373-.084-.732-.14-1.078-.168-.345-.028-.709-.042-1.092-.042v-.322c.374 0 .733-.014 1.078-.042.355-.028.733-.0607 1.134-.098.028 0 .052.0327.07.098.019.0653.028.14.028.224 0 .0747-.014.154-.042.238-.028.084-.06.1213-.098.112Zm7.214 4.9c-.569 0-1.064-.1353-1.484-.406-.411-.2707-.728-.63-.952-1.078-.224-.4573-.336-.9473-.336-1.47 0-.4853.089-.9053.266-1.26.187-.3547.429-.644.728-.868.299-.2333.625-.406.98-.518.355-.112.705-.168 1.05-.168.579 0 1.073.14 1.484.42.411.28.723.6393.938 1.078.224.4387.336.9007.336 1.386 0 .588-.14 1.1013-.42 1.54-.28.4293-.649.7607-1.106.994-.448.2333-.943.35-1.484.35Zm.406-.266c.457 0 .812-.1773 1.064-.532.261-.364.392-.9147.392-1.652 0-.6253-.093-1.162-.28-1.61-.187-.4573-.439-.8073-.756-1.05-.308-.252-.658-.378-1.05-.378-.457 0-.812.1773-1.064.532-.243.3453-.364.8587-.364 1.54 0 .588.089 1.1247.266 1.61.177.476.42.854.728 1.134.308.2707.663.406 1.064.406Zm3.506.084c-.028 0-.042-.028-.042-.084 0-.056.014-.084.042-.084.392 0 .644-.0607.756-.182.112-.1213.168-.3827.168-.784v-3.15c0-.224-.023-.3873-.07-.49-.047-.1027-.14-.168-.28-.196-.14-.0373-.35-.056-.63-.056-.028 0-.042-.0327-.042-.098s.014-.098.042-.098c.373 0 .625-.0467.756-.14.131-.0933.201-.2567.21-.49.047-1.5493.331-2.6553.854-3.318.532-.6627 1.293-.994 2.282-.994.504 0 .901.0747 1.19.224.299.14.448.322.448.546 0 .168-.061.2987-.182.392a.6143.6143 0 0 1-.378.126c-.159 0-.28-.0373-.364-.112-.084-.084-.173-.1913-.266-.322-.112-.1773-.238-.3173-.378-.42-.14-.112-.331-.168-.574-.168-.476 0-.873.294-1.19.882-.308.588-.462 1.5447-.462 2.87v5.012c0 .2707.028.476.084.616.065.14.191.2333.378.28.196.0467.49.07.882.07.028 0 .042.028.042.084 0 .056-.014.084-.042.084-.317 0-.625-.0047-.924-.014-.299-.0093-.602-.014-.91-.014-.261 0-.513.0047-.756.014-.233.0093-.448.014-.644.014Zm3.57-4.718c-.364-.084-.714-.14-1.05-.168-.327-.028-.677-.042-1.05-.042v-.322c.355 0 .705-.014 1.05-.042.345-.028.709-.0607 1.092-.098.028 0 .051.0327.07.098.019.0653.028.14.028.224 0 .0747-.019.154-.056.238-.028.084-.056.1213-.084.112Zm6.805 4.886c-.644 0-1.171-.1353-1.582-.406-.401-.28-.7-.63-.896-1.05-.187-.4293-.28-.8633-.28-1.302 0-.4667.093-.882.28-1.246.187-.364.429-.672.728-.924.308-.252.649-.4433 1.022-.574.373-.1307.742-.196 1.106-.196.261 0 .518.0373.77.112.261.0747.476.182.644.322.168.1307.252.2893.252.476 0 .1307-.051.252-.154.364-.093.1027-.233.154-.42.154-.177 0-.322-.0513-.434-.154-.112-.1027-.201-.2333-.266-.392-.084-.1867-.187-.3313-.308-.434-.121-.112-.313-.168-.574-.168-.495 0-.882.2053-1.162.616-.271.4107-.406.9473-.406 1.61 0 .4667.079.9053.238 1.316.159.4013.406.7233.742.966.336.2427.775.364 1.316.364.261 0 .504-.0327.728-.098.233-.0747.457-.1867.672-.336.028-.0187.056-.0093.084.028.037.0373.042.0653.014.084-.317.2893-.644.5087-.98.658-.336.14-.714.21-1.134.21Zm6.932-.084a.2814.2814 0 0 1-.126.028c-.14 0-.276-.1027-.406-.308-.122-.2147-.182-.518-.182-.91V51.43c0-.4107-.038-.7373-.112-.98-.066-.2427-.164-.4153-.294-.518-.122-.112-.266-.168-.434-.168-.206 0-.378.0513-.518.154s-.248.2427-.322.42c-.066.168-.112.3547-.14.56-.019.1773-.075.3267-.168.448-.084.112-.234.168-.448.168-.168 0-.299-.042-.392-.126-.094-.084-.14-.2007-.14-.35 0-.1773.088-.3547.266-.532.177-.1867.401-.3593.672-.518.27-.1587.55-.2847.84-.378.298-.0933.574-.14.826-.14.373 0 .686.126.938.378.252.2427.378.63.378 1.162v2.478c0 .308.042.5367.126.686.084.1493.219.224.406.224.158 0 .364-.0513.616-.154.037-.0187.065 0 .084.056.028.0467.018.0793-.028.098l-1.442.686Zm-2.814.014c-.299 0-.528-.0793-.686-.238-.159-.1587-.238-.3593-.238-.602 0-.2893.112-.5087.336-.658.224-.1493.583-.308 1.078-.476l1.75-.602.042.168-1.428.546c-.224.084-.383.1773-.476.28-.094.1027-.14.2333-.14.392 0 .196.056.35.168.462.112.112.256.168.434.168.093 0 .191-.014.294-.042.102-.028.21-.0653.322-.112l1.064-.56.014.196-1.204.658c-.271.14-.514.2473-.728.322-.206.0653-.406.098-.602.098Zm4.689 3.752c-.028 0-.042-.028-.042-.084 0-.056.014-.084.042-.084.354 0 .583-.0607.686-.182.112-.1213.168-.3827.168-.784v-6.552c0-.3173-.038-.546-.112-.686-.066-.1493-.192-.224-.378-.224-.084 0-.187.0187-.308.056-.122.028-.257.0793-.406.154-.038.0093-.066-.0093-.084-.056-.028-.056-.028-.0887 0-.098l1.68-.812a.1708.1708 0 0 1 .098-.028c.121 0 .228.1073.322.322.093.2147.14.532.14.952v6.972c0 .2613.032.462.098.602.065.14.191.2333.378.28.196.056.485.084.868.084.028 0 .042.028.042.084 0 .056-.014.084-.042.084-.252 0-.532-.0047-.84-.014-.308-.0093-.635-.014-.98-.014-.252 0-.495.0047-.728.014-.234.0093-.434.014-.602.014Zm3.192-3.668c-.355 0-.668-.0373-.938-.112-.262-.0747-.565-.2147-.91-.42l.294-.798c.242.2893.504.532.784.728.289.196.672.294 1.148.294.466 0 .849-.2053 1.148-.616.308-.42.462-1.0313.462-1.834 0-.7933-.178-1.3907-.532-1.792-.355-.4107-.78-.616-1.274-.616-.392 0-.738.1073-1.036.322-.29.2147-.574.476-.854.784l-.126-.126c.476-.5507.933-.952 1.372-1.204.438-.252.882-.378 1.33-.378.392 0 .751.1027 1.078.308.326.196.588.4853.784.868.205.3827.308.8493.308 1.4 0 .5787-.098 1.0733-.294 1.484-.187.4013-.439.728-.756.98-.308.252-.635.434-.98.546-.346.1213-.682.182-1.008.182Zm4.224-.182c-.028 0-.042-.028-.042-.084 0-.056.014-.084.042-.084.336 0 .56-.0607.672-.182.112-.1307.168-.392.168-.784V51.29c0-.3267-.033-.5647-.098-.714s-.182-.224-.35-.224c-.075 0-.163.014-.266.042-.093.028-.205.0747-.336.14-.037.0093-.07-.0093-.098-.056-.019-.056-.009-.0933.028-.112l1.904-.882c.028-.0093.047-.014.056-.014.028 0 .056.014.084.042.037.028.056.0607.056.098 0 .084-.005.266-.014.546-.009.28-.014.6487-.014 1.106v2.604c0 .392.051.6533.154.784.112.1213.341.182.686.182.028 0 .042.028.042.084 0 .056-.014.084-.042.084-.168 0-.369-.0047-.602-.014-.224-.0093-.462-.014-.714-.014-.252 0-.49.0047-.714.014-.224.0093-.425.014-.602.014Zm1.232-7.098c-.215 0-.383-.056-.504-.168-.121-.1213-.182-.2893-.182-.504 0-.2053.061-.364.182-.476.121-.112.289-.168.504-.168.215 0 .378.056.49.168.112.112.168.2707.168.476 0 .448-.219.672-.658.672Zm4.473 7.266c-.224 0-.443-.0373-.658-.112-.214-.0653-.392-.1867-.532-.364-.13-.1773-.196-.4153-.196-.714v-3.234c0-.2147-.018-.378-.056-.49-.037-.112-.107-.1867-.21-.224-.102-.0373-.256-.056-.462-.056-.028 0-.042-.0327-.042-.098 0-.0747.014-.112.042-.112.411-.0093.742-.1073.994-.294.262-.196.425-.462.49-.798.01-.028.047-.042.112-.042.066 0 .098.014.098.042v4.83c0 .3827.094.6627.28.84.196.1773.462.266.798.266.234 0 .444-.042.63-.126.196-.084.355-.1727.476-.266.038-.028.07-.0187.098.028.038.0373.038.07 0 .098-.345.2893-.662.4993-.952.63-.289.1307-.592.196-.91.196Zm1.442-4.886c-.373-.084-.732-.14-1.078-.168-.345-.028-.709-.042-1.092-.042v-.322c.374 0 .733-.014 1.078-.042.355-.028.733-.0607 1.134-.098.028 0 .052.0327.07.098.019.0653.028.14.028.224 0 .0747-.014.154-.042.238-.028.084-.06.1213-.098.112Zm5.095 4.802a.2754.2754 0 0 1-.126.028c-.14 0-.275-.1027-.406-.308-.121-.2147-.182-.518-.182-.91V51.43c0-.4107-.037-.7373-.112-.98-.065-.2427-.163-.4153-.294-.518-.121-.112-.266-.168-.434-.168-.205 0-.378.0513-.518.154s-.247.2427-.322.42c-.065.168-.112.3547-.14.56-.019.1773-.075.3267-.168.448-.084.112-.233.168-.448.168-.168 0-.299-.042-.392-.126-.093-.084-.14-.2007-.14-.35 0-.1773.089-.3547.266-.532.177-.1867.401-.3593.672-.518a4.232 4.232 0 0 1 .84-.378c.299-.0933.574-.14.826-.14.373 0 .686.126.938.378.252.2427.378.63.378 1.162v2.478c0 .308.042.5367.126.686.084.1493.219.224.406.224.159 0 .364-.0513.616-.154.037-.0187.065 0 .084.056.028.0467.019.0793-.028.098l-1.442.686Zm-2.814.014c-.299 0-.527-.0793-.686-.238-.159-.1587-.238-.3593-.238-.602 0-.2893.112-.5087.336-.658.224-.1493.583-.308 1.078-.476l1.75-.602.042.168-1.428.546c-.224.084-.383.1773-.476.28-.093.1027-.14.2333-.14.392 0 .196.056.35.168.462.112.112.257.168.434.168.093 0 .191-.014.294-.042.103-.028.21-.0653.322-.112l1.064-.56.014.196-1.204.658c-.271.14-.513.2473-.728.322-.205.0653-.406.098-.602.098Zm4.801-.098c-.019 0-.028-.028-.028-.084 0-.056.009-.084.028-.084.345 0 .569-.0607.672-.182.112-.1307.168-.392.168-.784l.014-7.196c0-.3267-.033-.5647-.098-.714-.056-.1493-.168-.224-.336-.224-.14 0-.341.0607-.602.182-.037.0187-.07 0-.098-.056-.019-.056-.014-.0887.014-.098l1.876-.896a.1247.1247 0 0 1 .056-.014c.028 0 .061.014.098.042.047.028.07.0607.07.098v8.876c0 .3827.051.6393.154.77.103.1307.327.196.672.196.037 0 .056.028.056.084 0 .056-.019.084-.056.084-.168 0-.369-.0047-.602-.014a17.632 17.632 0 0 0-.728-.014c-.252 0-.495.0047-.728.014-.224.0093-.425.014-.602.014Zm3.804 0c-.028 0-.042-.028-.042-.084 0-.056.014-.084.042-.084.336 0 .56-.0607.672-.182.112-.1307.168-.392.168-.784V51.29c0-.3267-.032-.5647-.098-.714-.065-.1493-.182-.224-.35-.224-.074 0-.163.014-.266.042-.093.028-.205.0747-.336.14-.037.0093-.07-.0093-.098-.056-.018-.056-.009-.0933.028-.112l1.904-.882c.028-.0093.047-.014.056-.014.028 0 .056.014.084.042.038.028.056.0607.056.098 0 .084-.004.266-.014.546-.009.28-.014.6487-.014 1.106v2.604c0 .392.052.6533.154.784.112.1213.341.182.686.182.028 0 .042.028.042.084 0 .056-.014.084-.042.084-.168 0-.368-.0047-.602-.014-.224-.0093-.462-.014-.714-.014-.252 0-.49.0047-.714.014-.224.0093-.424.014-.602.014Zm1.232-7.098c-.214 0-.382-.056-.504-.168-.121-.1213-.182-.2893-.182-.504 0-.2053.061-.364.182-.476.122-.112.29-.168.504-.168.215 0 .378.056.49.168.112.112.168.2707.168.476 0 .448-.219.672-.658.672Zm3.34 2.492c0 .224.056.42.168.588.121.1587.275.2987.462.42.186.1213.382.2427.588.364.242.1213.471.252.686.392.224.1307.406.294.546.49s.21.4527.21.77c0 .2987-.075.5833-.224.854-.15.2613-.374.476-.672.644-.299.1587-.672.238-1.12.238-.224 0-.448-.028-.672-.084-.224-.056-.458-.1633-.7-.322a.4064.4064 0 0 1-.056-.07.17.17 0 0 1-.028-.098l-.028-1.176c0-.028.023-.042.07-.042.056-.0093.088-.0047.098.014.112.308.252.5787.42.812.177.224.373.3967.588.518.224.1213.462.182.714.182.261 0 .466-.07.616-.21.149-.14.219-.35.21-.63 0-.2613-.066-.476-.196-.644a1.4823 1.4823 0 0 0-.462-.434 6.1001 6.1001 0 0 0-.588-.336 8.8933 8.8933 0 0 1-.658-.364c-.215-.1307-.392-.294-.532-.49-.131-.196-.196-.4527-.196-.77 0-.3733.093-.6767.28-.91.196-.2333.443-.4013.742-.504.298-.112.606-.168.924-.168.186 0 .364.0187.532.056.168.028.345.0793.532.154.084.0373.126.0887.126.154 0 .168-.005.3407-.014.518-.01.1773-.014.3687-.014.574 0 .028-.028.042-.084.042-.056 0-.084-.014-.084-.042 0-.196-.075-.3827-.224-.56-.15-.1773-.336-.322-.56-.434-.224-.1213-.458-.182-.7-.182-.196 0-.364.0513-.504.154-.131.1027-.196.28-.196.532ZM278.695 55c-.019 0-.028-.028-.028-.084 0-.056.009-.084.028-.084.345 0 .574-.0607.686-.182.112-.1307.168-.392.168-.784V51.71c0-1.064-.387-1.596-1.162-1.596-.317 0-.635.098-.952.294-.317.196-.588.4573-.812.784l-.056-.168c.373-.5227.756-.9147 1.148-1.176.392-.2707.807-.406 1.246-.406.485 0 .859.14 1.12.42.271.28.406.714.406 1.302v2.702c0 .392.051.6533.154.784.112.1213.341.182.686.182.037 0 .056.028.056.084 0 .056-.019.084-.056.084-.168 0-.369-.0047-.602-.014-.224-.0093-.462-.014-.714-.014-.243 0-.481.0047-.714.014-.224.0093-.425.014-.602.014Zm-3.626 0c-.028 0-.042-.028-.042-.084 0-.056.014-.084.042-.084.336 0 .56-.0607.672-.182.112-.1307.168-.392.168-.784V51.71c0-1.064-.383-1.596-1.148-1.596-.327 0-.649.098-.966.294-.308.196-.574.4573-.798.784l-.056-.168c.373-.5227.756-.9147 1.148-1.176.392-.2707.803-.406 1.232-.406.485 0 .863.14 1.134.42.271.2707.406.6813.406 1.232v2.772c0 .392.051.6533.154.784.112.1213.341.182.686.182.028 0 .042.028.042.084 0 .056-.014.084-.042.084-.177 0-.378-.0047-.602-.014-.224-.0093-.462-.014-.714-.014-.252 0-.495.0047-.728.014-.224.0093-.42.014-.588.014Zm-3.598 0c-.028 0-.042-.028-.042-.084 0-.056.014-.084.042-.084.336 0 .555-.0607.658-.182.112-.1307.168-.392.168-.784v-2.73c0-.2987-.037-.518-.112-.658-.065-.14-.182-.21-.35-.21-.093 0-.201.0187-.322.056-.121.028-.261.0747-.42.14-.037.0187-.065.0047-.084-.042-.019-.056-.014-.0933.014-.112l1.722-.826c.037-.0093.065-.014.084-.014.084 0 .177.1027.28.308.103.2053.154.4993.154.882v3.206c0 .392.051.6533.154.784.112.1213.341.182.686.182.028 0 .042.028.042.084 0 .056-.014.084-.042.084-.177 0-.378-.0047-.602-.014-.224-.0093-.462-.014-.714-.014-.252 0-.495.0047-.728.014-.224.0093-.42.014-.588.014Zm11.558.154c-.205 0-.373-.0607-.504-.182-.121-.1213-.182-.2893-.182-.504 0-.196.061-.35.182-.462.131-.1213.299-.182.504-.182.224 0 .392.0607.504.182.112.112.168.266.168.462 0 .2147-.056.3827-.168.504-.112.1213-.28.182-.504.182Z"/></svg>
