<svg xmlns="http://www.w3.org/2000/svg" data-name="Layer 1" viewBox="0 0 190 71" fill="white">
  <path d="M22.59 19.21c1.72 0 3.12 1.4 3.12 3.12s-1.4 3.12-3.12 3.12-3.12-1.4-3.12-3.12 1.4-3.12 3.12-3.12"/>
  <path d="M93.02 10.14H11.9V.75c0-.42-.33-.75-.75-.75s-.75.34-.75.75v9.39H.75c-.42 0-.75.33-.75.75s.34.75.75.75h9.65v36.67a.749.749 0 1 0 1.5 0V11.65h81.12a.749.749 0 1 0 0-1.5Z"/>
  <path d="M75.32 26.48c.39 0 .76.17 1.09.46.13.11.21.26.21.44 0 .14-.05.27-.18.37-.11.08-.25.1-.37.11v.03c-.04.07-.09.17-.16.31l-.27.72c-.04.1-.05.18-.05.24 0 .07.02.09.03.1.02.02.09.05.24.05l5.2-.02h.07c.17-.04.36-.15.59-.38.16-.14.3-.25.43-.31a.84.84 0 0 1 .44-.13c.31 0 .63.09.94.25.3.16.55.36.76.59.11.11.2.22.26.32.06.11.11.23.11.35 0 .16-.06.31-.17.43v.02c-.09.06-.19.13-.33.21-.16.09-.29.19-.38.29-.07.08-.14.2-.18.39-.84 3.43-2.25 6.44-4.24 9.03-1.96 2.57-4.15 4.62-6.58 6.17-2.41 1.54-4.77 2.61-7.07 3.2-.08.03-.16.04-.22.04-.16 0-.3-.04-.42-.15s-.01 0-.02 0a.5.5 0 0 1-.17-.38c0-.33.28-.5.55-.59 1.92-.64 3.95-1.72 6.1-3.26 2.16-1.55 4.14-3.53 5.96-5.96 1.81-2.43 3.12-5.19 3.92-8.27 0-.04.02-.11.02-.21 0-.15-.05-.24-.13-.3h-.01v-.02c-.08-.07-.2-.13-.41-.13h-5.59c-.14 0-.24.03-.31.07s-.13.11-.18.23v.02c-.61 1.13-1.34 2.26-2.19 3.4-.07.09-.09.16-.09.22 0 .04.01.07.04.1.03.02.07.05.14.08l.08.03c.76.22 1.57.53 2.41.94.76.36 1.41.77 1.96 1.24l.23.2c.43.41.7.83.7 1.26 0 .3-.13.55-.38.73-.23.14-.48.21-.76.21-.33 0-.63-.1-.85-.32-.7-.76-1.4-1.35-2.07-1.79q-1.035-.66-2.19-1.26c-.07-.03-.13-.05-.17-.06s-.06-.01-.07-.01c-.08 0-.18.04-.3.2-1.81 2.17-3.63 3.98-5.48 5.4-.16.14-.35.23-.55.23a.51.51 0 0 1-.53-.5c0-.29.2-.52.45-.7.87-.67 1.81-1.61 2.83-2.84l.44-.54c1.19-1.5 2.28-3.1 3.27-4.79 1.01-1.69 1.75-3.18 2.23-4.48.16-.41.36-.73.62-.95.25-.22.54-.33.86-.33h-.09Zm53.89.15c.44 0 .88.19 1.32.52.22.16.4.31.53.48.13.16.22.35.22.55 0 .15-.03.3-.12.43h-.01v.03c-.07.06-.15.13-.25.22-.11.09-.2.18-.26.27-.03.06-.06.18-.06.39v17.19c0 .74-.15 1.39-.46 1.92-.28.51-.63.87-1.06 1.02-.17.06-.34.09-.5.09-.55 0-.97-.32-1.25-.86-.25-.47-.68-.83-1.32-1.08-.65-.26-1.58-.53-2.81-.81a.9.9 0 0 1-.44-.24v-.02a.64.64 0 0 1-.15-.41c0-.2.09-.37.26-.48l.08-.05c.18-.07.37-.07.57-.01.11.03.21.06.29.08l.19.04h.02c.9.23 1.53.39 1.91.47.38.06.81.1 1.3.1.46 0 .75-.11.94-.28.18-.17.3-.44.3-.85.02-.45.03-1.91.03-4.39 0-.24-.06-.38-.15-.47-.09-.11-.23-.18-.46-.18l-6.71-.02c-.2 0-.32.06-.4.14-.08.09-.15.23-.17.48-.19 1.84-.64 3.52-1.37 5.02-.73 1.54-2.02 2.76-3.86 3.66-.1.04-.2.08-.28.1s-.16.04-.24.04c-.15 0-.3-.03-.43-.12-.13-.1-.2-.24-.2-.4 0-.33.26-.56.56-.72 1.46-.73 2.47-2.15 3.01-4.33.54-2.2.82-5.04.82-8.52 0-1.21-.03-3.01-.1-5.41l-.07-3.02c0-.16.06-.31.2-.42.12-.09.28-.12.43-.12.32 0 .6.04.83.15.21.09.42.2.63.34.09.06.17.11.22.13.06.03.08.03.06.03h6.99c.11 0 .21-.02.31-.07.13-.08.25-.15.36-.22.11-.1.18-.15.2-.18.15-.15.38-.2.6-.2h-.04Zm-7.88 7.51c-.23 0-.37.07-.46.17s-.15.24-.15.48v3.63c-.01.26.02.42.07.5.06.06.18.11.41.13l6.65.02h.01c.21 0 .34-.04.43-.12.1-.11.16-.27.18-.5v-3.69c0-.24-.06-.38-.15-.47s-.23-.15-.47-.15zm-.08-5.66c-.24 0-.38.06-.47.15s-.15.23-.15.47l.02 3.24c0 .23.07.37.17.46.11.1.27.16.51.16h6.51c.23 0 .38-.06.47-.15.1-.11.16-.26.16-.48v-3.24c0-.24-.06-.38-.15-.47s-.23-.15-.47-.15h-6.6Zm28.57-2.08c.33 0 .63.06.88.21.11.07.21.14.29.23s.14.2.14.34c0 .17-.1.3-.23.38-.11.06-.24.09-.38.1-.02 0-.04.01-.07.06-.03.06-.04.12-.04.2v7.41c0 .21.06.36.15.47.11.1.26.15.47.15h5.71c.3 0 .52-.06.69-.16.21-.14.44-.32.68-.56.4-.4.83-.62 1.3-.62.2 0 .4.05.59.14l.19.1c.27.18.51.4.74.64l.14.19c.12.19.2.39.2.6 0 .26-.11.49-.32.65s-.49.23-.8.23l-7.43.03c-.21 0-.37.06-.48.16-.09.09-.15.23-.15.47v8.05l.02.25c.02.23.06.4.11.52q.09.195.33.36l.17.09c.2.09.47.17.82.22.47.08 1.06.12 1.79.12.49 0 .97-.02 1.43-.05.46-.05.77-.1.93-.14a.88.88 0 0 0 .51-.33c.15-.21.23-.39.25-.52q.12-.57.12-1.5l-.02-1.82c0-.2.04-.39.15-.54.1-.14.25-.24.45-.24s.34.1.44.24c.12.15.15.35.15.56l-.03 1.45c0 .73.07 1.25.18 1.58.02.05.09.17.24.36.17.22.27.46.27.72 0 .66-.45 1.14-1.17 1.48-.4.18-.96.31-1.67.4-.69.1-1.45.15-2.27.15-1.75 0-3.05-.17-3.85-.55-.6-.28-1.03-.66-1.22-1.16-.18-.46-.27-1.05-.27-1.76l.05-7.94v-.16c-.04-.14-.09-.24-.17-.3v-.02c-.09-.1-.23-.17-.44-.17h-.48s0 .05.03.09c.06.12.09.25.09.38 0 .16-.06.32-.2.42-.17.13-.38.09-.54.03h-.05s-.06.15-.08.31c-.32 2.78-1.2 5.1-2.65 6.95s-3.46 3.22-6.02 4.11c-.1.04-.21.06-.3.06-.16 0-.31-.05-.43-.15a.51.51 0 0 1-.19-.4c0-.3.22-.49.47-.6 2.11-.8 3.76-2.14 4.97-4.04 1.2-1.9 1.9-4.21 2.08-6.93v-.21h-4.48c-.66 0-1.46.03-2.4.1l-.6.05c-.23.02-.44-.03-.6-.2v-.03a.84.84 0 0 1-.18-.52q0-.3.18-.54v-.02c.16-.16.37-.22.6-.2l.59.05c1.05.07 1.85.1 2.41.1h6.09c.24 0 .38-.06.47-.15.1-.11.15-.26.15-.47v-7.41c0-.46.13-.85.43-1.11l.12-.09c.28-.2.6-.35.97-.35Zm-100.93.93c.33 0 .63.06.88.21.11.07.21.14.29.23s.14.2.14.34c0 .17-.1.3-.23.38-.11.06-.24.09-.38.1-.02 0-.04.01-.07.05-.03.06-.04.12-.04.2v6.89c0 .25.07.39.16.48.11.08.27.11.5.07l6.44-.97c.28-.04.49-.14.65-.27.18-.17.37-.39.55-.67.39-.56.87-.89 1.43-.89.47 0 .94.23 1.43.63l.11.09c.24.23.38.49.38.8 0 .24-.11.43-.29.59-.13.12-.3.2-.49.26l-.2.05-3.37.62-6.71 1c-.22.03-.35.11-.43.21-.09.11-.14.27-.14.49v5.59c0 .6.04 1.04.11 1.32.09.27.21.44.36.53.29.16.75.29 1.38.38s1.43.13 2.39.13c.89 0 1.76-.04 2.59-.12.85-.08 1.41-.18 1.71-.29.48-.17.71-.4.79-.64.03-.09.06-.25.08-.5s.03-.57.03-.96l-.03-1.8c0-.22.03-.42.13-.58.09-.16.25-.3.47-.3s.36.13.46.29c.11.16.14.38.14.61l-.02 1.6c0 .38.02.67.05.88.02.11.03.19.05.24 0 .03.02.05.03.06v.02c.14.18.25.35.33.5q.15.255.15.54c0 .64-.4 1.14-1.08 1.52-.46.25-1.1.44-1.9.57l-.36.05c-.96.13-2.02.2-3.18.2-1.09 0-2.11-.06-3.07-.18-.94-.12-1.7-.3-2.24-.54-.6-.28-1.03-.66-1.22-1.16-.18-.46-.27-1.05-.27-1.76v-5.84c0-.26-.07-.38-.16-.45-.09-.08-.23-.13-.46-.09l-4.71.7c-.5.08-1.19.24-2.07.47l-.85.22c-.25.07-.5.03-.69-.17a.84.84 0 0 1-.25-.6c0-.17.05-.33.15-.46a.78.78 0 0 1 .51-.27l.84-.1c.81-.1 1.52-.2 2.14-.3l4.96-.75c.22-.03.35-.11.43-.21.09-.11.14-.27.14-.49v-7.26c0-.46.13-.85.44-1.11l.12-.09c.28-.2.6-.29.97-.29h-.01Zm50.48 3.68c.87 0 1.7.14 2.54.36s1.6.54 2.29.95c1.33.77 2.37 1.76 3.13 2.98.76 1.2 1.14 2.52 1.14 3.95 0 .38-.03.75-.08 1.11-.29 2.08-1.12 3.75-2.5 4.99-1.38 1.22-3.19 1.95-5.43 2.18-.31.03-.6.02-.82-.07-.2-.08-.41-.24-.41-.51 0-.25.17-.41.37-.5.21-.11.48-.15.78-.15l.33-.02c.78-.07 1.53-.36 2.28-.86.85-.58 1.56-1.34 2.12-2.29.56-.97.9-2 1.01-3.12.03-.33.05-.57.05-.72 0-1.01-.2-2-.6-2.95-.4-.96-1.02-1.79-1.85-2.5-.81-.7-1.81-1.17-3-1.42h-.11c-.09 0-.13 0-.14.02h-.01v.02s-.05.03-.05.14c0 .06.02.15.06.26.3.71.46 1.35.46 1.91 0 .4-.07.77-.22 1.07l-1.25 2.87c-1.01 2.35-1.83 4.13-2.45 5.35-.6 1.21-1.24 2.07-1.91 2.52-.36.25-.71.39-1.06.39-.38 0-.72-.13-1.01-.39-.26-.25-.6-.63-1-1.13-.08-.12-.21-.29-.41-.52a7 7 0 0 1-1.34-2.3c-.33-.89-.49-1.81-.49-2.76 0-.64.08-1.25.23-1.83.39-1.54 1.1-2.83 2.14-3.88 1.03-1.05 2.08-1.82 3.14-2.3 1.26-.57 2.62-.85 4.07-.85m-.94 1.33c-1.06.16-2.05.53-2.96 1.11-.92.58-1.7 1.29-2.33 2.13s-1.07 1.72-1.31 2.63c-.11.4-.17.82-.17 1.28 0 .8.16 1.56.48 2.3s.71 1.34 1.15 1.8c.46.48.79.65 1.02.65.06 0 .08 0 .1-.02.59-.38 1.25-1.15 1.96-2.39q1.08-1.845 1.8-4.14c.48-1.55.71-2.94.71-4.17 0-.19-.02-.47-.05-.86-.03-.13-.07-.2-.12-.23s-.13-.09-.28-.08Z" class="cls-1"/>
  <path d="M156.06 28.35c.42 0 .79.12 1.12.37.18.13.33.27.43.43.11.14.2.3.2.47 0 .08-.02.17-.08.25-.05.07-.12.12-.19.15-.1.04-.22.06-.34.06h-.14s-.14.03-.28.27c-.54.95-1.23 1.86-2.06 2.72-.81.86-1.59 1.58-2.35 2.17-.16.12-.34.2-.51.2-.13 0-.28-.03-.39-.13a.52.52 0 0 1-.16-.39c0-.24.13-.47.31-.67.42-.45.92-1.13 1.49-2.06.59-.92.97-1.73 1.14-2.42.11-.43.33-.78.67-1.04.34-.25.73-.38 1.14-.38m-13.71.58.2.05h.03c.99.39 1.92.97 2.79 1.71l.32.29c.7.68 1.11 1.41 1.19 2.2.06.46-.06.88-.36 1.23-.27.33-.61.51-1.01.51-.24 0-.46-.08-.65-.23-.2-.15-.34-.37-.43-.63-.3-.8-.53-1.39-.7-1.79-.16-.4-.38-.79-.67-1.17-.26-.4-.6-.73-1.01-1.02a.73.73 0 0 1-.3-.61c0-.13.03-.27.13-.38.11-.14.26-.2.43-.2h.06zm21.88 35.85c.06 0 .14.01.19.06.06.05.08.12.08.19l-.02.29c-.03.29-.04.57-.04.84v1.33c0 .36 0 .66-.02.9 0 .24-.05.45-.11.65-.11.4-.25.74-.45 1.01-.18.27-.36.48-.56.61-.18.13-.35.21-.52.21-.09 0-.18-.02-.24-.09a.26.26 0 0 1 .01-.42c.08-.07.18-.08.28-.06.05 0 .14-.02.25-.17l.09-.12c.08-.13.15-.28.21-.46q.12-.375.12-.69v-.5c.01-.43.02-.8.02-1.13 0-.35 0-.66-.03-.93 0-.19-.05-.32-.09-.41 0 0-.03-.06-.05-.07s-.05-.02-.1-.02c-.08 0-.16 0-.22-.04-.07-.04-.11-.11-.11-.2s.05-.14.1-.18l.05-.04c.05-.03.11-.05.17-.06.19-.05.4-.16.62-.32l.14-.09c.07-.05.15-.09.23-.09h-.01Zm-19.96 0c.08 0 .16.02.22.06.06.05.11.12.11.2s-.04.17-.12.22-.18.06-.27.04h-.08s-.01.02-.01.06q0 .135.09.42t.33.93c.04.1.08.22.14.36.05.14.11.31.18.5.02-.04.03-.08.04-.12v-.02s.04-.07.05-.1c.24-.64.41-1.08.5-1.35.1-.27.14-.46.14-.57 0-.07-.02-.08-.02-.08s-.05-.02-.15 0h-.06c-.08 0-.15-.02-.21-.07-.06-.04-.1-.11-.1-.19s.04-.15.1-.2l.05-.04q.09-.03.18-.03h1.21c.07 0 .15 0 .21.05.04.02.07.04.1.08.02.04.04.08.04.12 0 .1-.06.17-.13.21q-.105.06-.24.06c-.04 0-.1.03-.18.17l-.07.14c-.08.17-.19.45-.34.82-.05.13-.16.4-.33.83q-.255.645-.57 1.38c-.04.09-.1.17-.18.23-.07.05-.16.08-.25.08a.34.34 0 0 1-.23-.08.4.4 0 0 1-.14-.2c-.38-.98-.66-1.71-.84-2.2q-.225-.63-.33-.87c-.06-.16-.11-.24-.15-.28-.03-.03-.06-.05-.13-.04q-.135 0-.24-.06a.26.26 0 0 1-.11-.14v-.13c.01-.06.05-.11.1-.14.07-.04.15-.06.23-.06h1.46Zm12.5 0c.1 0 .18.01.26.04a.45.45 0 0 1 .33.42c0 .14-.06.27-.16.37s-.23.16-.38.16c-.06 0-.12 0-.18-.03a1.3 1.3 0 0 0-.34-.06c-.15 0-.28.04-.4.14-.1.09-.19.22-.24.41-.02.37-.03.69-.03.97q0 .66.06 1.02v.07c.03.06.06.1.08.12s.07.05.15.05h.16v-.01h.01c.07 0 .14.02.2.07s.1.12.1.2c0 .09-.05.16-.12.21a.35.35 0 0 1-.22.06h-1.69c-.08 0-.17-.02-.24-.06a.33.33 0 0 1-.1-.18c-.05.08-.15.14-.25.17-.15.05-.3.08-.46.08-.34 0-.6-.12-.75-.38-.01 0-.02 0-.04.01-.35.25-.71.38-1.06.38-.43 0-.78-.07-1.03-.23-.24-.15-.35-.39-.37-.7v-.14c0-.23.09-.43.22-.6.14-.17.34-.3.58-.4.48-.2.99-.32 1.53-.35h.03v-.56c0-.23-.06-.4-.16-.52a.53.53 0 0 0-.42-.18c-.2 0-.35.06-.45.17-.11.11-.16.25-.16.42 0 .16-.04.31-.14.41a.5.5 0 0 1-.35.14c-.13 0-.24-.05-.33-.14-.1-.1-.14-.24-.14-.39 0-.21.09-.4.24-.57l.13-.12c.13-.12.29-.21.48-.29.25-.1.51-.16.78-.16.42 0 .78.11 1.07.33.3.22.44.55.44.95v1.88c0 .21.02.35.06.44.02.04.03.06.04.07h.04s.04-.02.08-.03c.04-.02.07-.04.1-.05 0 0 .03-.01.04-.02h.06c.06 0 .12.02.17.07.04.04.06.09.07.14a.5.5 0 0 1 .07-.08c.08-.05.18-.06.27-.04.08.02.12 0 .16-.03a.35.35 0 0 0 .11-.21c.03-.16.05-.42.05-.79v-1.11a.9.9 0 0 0-.09-.39s-.04-.07-.07-.09a.2.2 0 0 0-.1-.02c-.08 0-.16-.01-.22-.04-.07-.04-.11-.11-.11-.2s.05-.14.1-.18l.05-.04s.11-.05.17-.06l.15-.05c.15-.06.31-.15.47-.27s.14-.09.14-.09c.07-.05.15-.09.23-.09.06 0 .14 0 .19.06.06.05.08.12.08.19v.16q.135-.12.3-.21l.15-.07c.21-.09.4-.13.59-.13Zm-4.34 2.33c-.49.02-.84.1-1.07.24-.22.13-.32.31-.32.55 0 .17.06.28.17.37.12.09.27.14.46.14.16 0 .31-.04.45-.11.14-.08.23-.18.28-.3l.02-.08c.02-.09.04-.22.04-.4v-.37h-.01v-.03h-.03Zm-19.01-3.54c.1 0 .19.04.25.12s.07.18.07.28v.83h.92c.08 0 .16.02.22.09.06.06.08.14.08.22s-.03.15-.08.22c-.06.08-.15.11-.25.1-.18-.02-.49-.03-.91-.03v2.58q0 .135.09.24c.05.07.12.1.19.1.1 0 .23-.06.4-.25l.05-.05c.06-.05.13-.09.21-.09h.08s.05.04.07.07c.04.05.05.11.05.15 0 .1-.05.2-.12.29-.14.17-.31.31-.52.41-.21.11-.45.16-.7.16-.27 0-.48-.1-.6-.33-.1-.2-.15-.44-.15-.7v-2.56h-.46a.3.3 0 0 1-.22-.09s-.04-.07-.05-.1c0 .03-.03.07-.06.1-.06.08-.15.11-.25.1-.18-.02-.49-.03-.91-.03 0 .78-.01 1.64-.01 2.58q0 .135.09.24c.05.07.12.1.19.1s.17-.04.28-.13l.17-.17c.06-.05.13-.09.21-.09h.08s.05.04.07.07c.04.05.05.11.05.15 0 .1-.05.2-.12.29-.14.17-.31.31-.52.41-.21.11-.45.16-.7.16-.27 0-.48-.1-.6-.33-.1-.2-.15-.44-.15-.7v-2.56h-.46a.3.3 0 0 1-.22-.09.35.35 0 0 1 .01-.43c.06-.08.16-.11.25-.11.31 0 .48-.09.56-.22.07-.12.13-.28.17-.51l.04-.18.05-.13s.05-.09.1-.12.1-.05.15-.05c.1 0 .19.04.25.12s.07.17.07.28v.83h.92c.08 0 .16.02.22.09 0 0 .05.07.06.11 0-.03.03-.07.06-.09.06-.08.16-.11.25-.11.31 0 .48-.09.56-.22.07-.12.13-.28.17-.51.03-.13.06-.24.09-.31.02-.05.05-.09.1-.12s.11-.06.16-.06Zm34.97 1.18c.06 0 .12.04.18.09s.07.12.07.19l-.02.64c-.03.51-.04.94-.04 1.29 0 .4.02.71.05.95l.03.14s.02.07.04.09c.01.02.02.03.02.03.02 0 .06 0 .12-.02.07-.02.13-.03.17-.03.06 0 .12 0 .18.05s.08.11.08.18c0 .08-.04.14-.08.2-.05.05-.12.09-.2.1-.13.04-.27.1-.43.2-.07.04-.12.07-.17.09s-.1.04-.15.04c-.13 0-.25-.05-.34-.15a.63.63 0 0 1-.14-.31c-.32.29-.68.45-1.1.45-.21 0-.43-.05-.64-.13-.21-.09-.39-.22-.53-.39a1 1 0 0 1-.23-.64V66.3c0-.17-.03-.3-.08-.39 0 0-.04-.07-.06-.09a.3.3 0 0 0-.1-.02c-.08 0-.16 0-.22-.04-.03-.02-.07-.04-.09-.07l-.03-.06v-.12s.03-.07.05-.09l.04-.03s.06-.04.1-.06l.11-.04c.14-.04.32-.14.54-.29l.12-.08.12-.08c.07-.04.15-.07.21-.07s.13.01.19.06.07.12.07.19v.96c0 .72-.02 1.27-.02 1.65q0 .285.21.51.225.21.51.21c.24 0 .48-.13.71-.45.03-.06.04-.1.04-.12v-1.5c0-.17-.02-.3-.07-.39 0 0-.04-.07-.07-.09a.2.2 0 0 0-.1-.02c-.08 0-.16 0-.22-.04-.03-.02-.07-.04-.09-.07l-.03-.06v-.12s.03-.07.05-.09l.04-.03.09-.06.12-.04c.13-.04.31-.14.54-.29.03-.02.07-.05.12-.08s.09-.06.12-.08c.07-.04.15-.07.21-.07m2.47 0c.26 0 .43.06.6.12.16.05.29.11.38.17h.02s.03-.11.08-.16a.25.25 0 0 1 .18-.08h.05c.05 0 .1.04.14.08.05.05.08.12.08.19v1.08c0 .08-.03.14-.09.19 0 0-.1.07-.17.07s-.13-.03-.18-.08a.27.27 0 0 1-.08-.19c0-.11-.04-.22-.13-.35a.94.94 0 0 0-.37-.34 1.09 1.09 0 0 0-.91-.07l-.08.05c-.09.07-.13.16-.13.27 0 .19.16.4.6.61.06.03.12.05.17.08.06.02.11.04.16.06.27.11.49.22.65.32q.27.15.45.39l.05.07c.11.16.16.34.16.55 0 .35-.15.63-.43.85-.27.21-.61.32-1 .32-.31 0-.56-.04-.76-.12l-.21-.11c-.06-.03-.12-.07-.16-.1 0 .07-.02.14-.07.19-.05.06-.12.1-.2.1a.27.27 0 0 1-.2-.08.3.3 0 0 1-.06-.2V67.5c0-.07.02-.15.08-.2.05-.05.12-.08.19-.08h.05c.05.02.1.04.13.08.06.06.08.13.08.2 0 .11.04.24.15.39s.25.27.42.37.33.15.49.15c.2 0 .36-.04.47-.12.1-.08.16-.18.16-.31 0-.07-.04-.16-.19-.26-.15-.11-.39-.26-.74-.43l-.2-.09c-.23-.11-.42-.21-.56-.3-.15-.09-.27-.22-.38-.37-.11-.17-.16-.36-.16-.58s.06-.41.18-.59c.12-.19.3-.33.52-.44.23-.11.49-.17.77-.17m2.56 3.1c.15 0 .28.05.38.16.12.11.18.25.18.4s-.06.3-.17.41-.24.16-.39.16c-.16 0-.3-.05-.41-.16a.64.64 0 0 1-.16-.41c0-.16.05-.29.16-.4s.25-.16.41-.16m-50.13-6.2c.69 0 1.31.12 1.87.38s1.01.67 1.34 1.22l.12.21c.26.51.39 1.13.39 1.85 0 .82-.17 1.51-.51 2.06-.33.55-.78.95-1.34 1.21s-1.18.39-1.87.39h-3.08c-.08 0-.17-.02-.24-.06a.3.3 0 0 1-.1-.21c0-.09.05-.16.12-.21l.06-.03s.06-.02.09-.02h.1c.17 0 .28.02.35.02.18 0 .31-.03.41-.08.08-.05.14-.13.18-.26l.02-.12c.02-.15.04-.4.05-.75.01-.47.02-1.12.02-1.94s0-1.47-.02-1.94c-.02-.48-.04-.76-.07-.87-.04-.13-.1-.21-.18-.25-.09-.06-.22-.09-.4-.09-.07 0-.19 0-.35.02h-.05a.34.34 0 0 1-.22-.07c-.06-.05-.1-.12-.1-.2s.04-.15.1-.19c.07-.05.15-.07.24-.07zm0 .53c-.26 0-.44 0-.55.02-.09 0-.17.03-.25.08-.06.04-.11.1-.14.22-.03.11-.05.39-.07.87-.01.47-.02 1.12-.02 1.94s0 1.47.02 1.94c.02.48.04.76.07.87.04.15.11.22.19.25.12.04.26.06.42.07h.35c.5.02.94-.1 1.34-.34.41-.25.73-.61.97-1.09s.36-1.04.36-1.69-.12-1.21-.36-1.68-.56-.83-.97-1.07c-.4-.25-.85-.39-1.36-.39m5.11 2.6c.06 0 .14.01.19.06.06.05.08.12.08.19l-.02.42-.04.72c0 .25-.02.59-.02 1.01 0 .49.02.83.05 1.03l.02.07q.03.09.06.12c.03.02.07.05.15.05h.16v-.01c.07 0 .14.02.2.07.05.05.09.11.09.19 0 .09-.05.16-.11.2-.07.05-.15.06-.22.06h-1.7c-.08 0-.17-.02-.24-.06a.26.26 0 0 1-.1-.2c0-.09.04-.17.12-.22.06-.04.13-.05.2-.05h.07c.07 0 .12 0 .16-.03s.08-.1.11-.21c.04-.14.06-.36.06-.67V66.3a.9.9 0 0 0-.09-.39s-.04-.07-.06-.09a.3.3 0 0 0-.1-.02c-.08 0-.16 0-.22-.04 0 0-.09-.08-.1-.13v-.12q.03-.075.09-.12c.06-.05.13-.08.22-.1l.15-.05c.15-.06.31-.15.47-.27s.14-.09.14-.09c.07-.05.15-.1.23-.1m11.14-3.42c.06 0 .13 0 .19.06s.08.12.08.19l-.02.73c-.05 1.15-.07 2.11-.07 2.87v2.47c0 .31 0 .52.05.64.02.05.04.08.07.1q.03.03.12.03h.15c.07 0 .14.02.2.07 0 0 .05.06.06.09a.26.26 0 0 1 .1-.11c.08-.05.18-.06.27-.04.08.02.12 0 .16-.03s.08-.1.11-.21c.04-.14.06-.36.06-.67v-1.22c0-.18-.04-.3-.09-.39 0 0-.04-.07-.07-.09s-.05-.02-.1-.02c-.08 0-.16-.01-.22-.04-.07-.04-.11-.11-.11-.2s.05-.14.1-.18l.05-.04s.11-.05.17-.06l.15-.05c.15-.06.31-.15.47-.27l.14-.09c.07-.05.15-.09.23-.09.06 0 .14.01.19.06.06.05.08.12.08.19l-.02.42-.04.72c0 .25-.02.59-.02 1.01 0 .49.02.83.05 1.03l.02.07q.03.09.06.12c.02.02.07.05.15.05h.16l.01-.01c.07 0 .14.02.2.07s.09.11.09.19c0 .09-.05.16-.12.21a.35.35 0 0 1-.22.06h-1.69c-.08 0-.17-.02-.24-.06 0 0-.06-.07-.08-.11-.02.04-.05.08-.09.11-.07.05-.15.06-.22.06h-1.7c-.08 0-.17-.02-.24-.06a.3.3 0 0 1-.1-.21c0-.09.04-.17.12-.22s.18-.06.27-.04h.1s.06-.03.09-.07c.06-.08.11-.22.14-.45q.06-.555.06-1.5c0-1.17-.02-2.19-.05-3.07v-.46c0-.17-.03-.3-.08-.39 0 0-.04-.07-.06-.09-.02-.01-.06-.03-.1-.03-.08 0-.16 0-.22-.04 0 0-.09-.08-.1-.13v-.12s.03-.07.05-.09l.04-.03c.06-.05.14-.08.22-.1l.14-.04c.15-.05.32-.15.51-.28 0 0 .07-.05.14-.09.08-.05.16-.12.24-.12Z" class="cls-1"/>
  <path d="M161.93 61.36c.06 0 .13 0 .19.06s.08.12.08.19l-.02.73c-.05 1.15-.07 2.11-.07 2.87v2.47c0 .31 0 .52.06.64.02.05.04.08.07.1q.03.03.12.03h.14c.07 0 .14.02.2.07s.1.12.1.2c0 .09-.05.16-.12.21a.4.4 0 0 1-.23.06h-1.69c-.08 0-.17-.02-.24-.06a.3.3 0 0 1-.1-.21c0-.09.04-.17.12-.22s.18-.06.27-.04h.1s.06-.03.09-.07c.06-.08.11-.22.14-.45q.06-.555.06-1.5c0-1.17-.02-2.19-.05-3.07v-.46a.9.9 0 0 0-.09-.39s-.04-.07-.06-.09c-.02 0-.06-.03-.1-.03-.08 0-.16 0-.22-.04 0 0-.09-.08-.1-.13v-.12s.03-.07.06-.09l.04-.03c.06-.05.14-.08.22-.1l.14-.04c.15-.05.32-.15.51-.28l.14-.09c.08-.05.15-.11.23-.11Zm-10.82 1.79c.18 0 .34.07.47.21.13.13.2.28.2.46s-.07.35-.2.48-.28.19-.46.19-.35-.06-.48-.19a.7.7 0 0 1-.19-.49c0-.18.07-.34.19-.46.13-.13.3-.2.48-.2Zm1.68 0c.18 0 .34.07.47.21.13.13.2.28.2.46s-.07.35-.2.48-.28.19-.46.19-.35-.06-.48-.19c-.13-.14-.19-.3-.19-.49s.07-.34.19-.46c.13-.13.3-.2.48-.2zm-24.72-.23c.19 0 .36.07.49.21a.704.704 0 0 1 .01 1.01c-.13.13-.3.2-.49.2s-.36-.07-.5-.2a.76.76 0 0 1-.2-.51.703.703 0 0 1 .7-.71Zm13.42 0c.19 0 .36.07.49.21a.704.704 0 0 1 .01 1.01c-.13.13-.3.2-.49.2s-.36-.07-.5-.2a.76.76 0 0 1-.2-.51.703.703 0 0 1 .7-.71Zm22.41 0c.19 0 .36.07.49.21a.704.704 0 0 1 .01 1.01c-.13.13-.3.2-.49.2s-.36-.07-.5-.2a.76.76 0 0 1-.2-.51.703.703 0 0 1 .7-.71z" class="cls-1"/>
  <path d="M115.89 63.93H57.15a.749.749 0 1 0 0 1.5h58.74a.749.749 0 1 0 0-1.5m73.3-18.71c-.42 0-.75.34-.75.75v17.96h-9.39a.749.749 0 1 0 0 1.5h10.14c.42 0 .75-.34.75-.75V45.97c0-.42-.34-.75-.75-.75"/>
</svg>
