<svg xmlns="http://www.w3.org/2000/svg" width="410" height="68" fill="none"><path fill="#fff" d="M17.312 22.656c-.2133 0-.384-.0427-.512-.128-.1067-.0853-.16-.192-.16-.32s.064-.2347.192-.32c.1493-.0853.3307-.1173.544-.096.512.0427.8853.064 1.12.064.5973 0 1.0773-.096 1.44-.288.3627-.2133.608-.5653.736-1.056.192-.768.288-3.68.288-8.736 0-5.056-.096-7.968-.288-8.736-.128-.4907-.3733-.832-.736-1.024-.3627-.2133-.8427-.32-1.44-.32-.2347 0-.608.0213-1.12.064h-.128c-.192 0-.3413-.0427-.448-.128-.1067-.0853-.16-.192-.16-.32 0-.1067.0533-.2027.16-.288.128-.0853.2987-.128.512-.128h9.472c2.0693-.0213 3.936.352 5.6 1.12 1.664.768 2.9867 1.9733 3.968 3.616 1.0027 1.6213 1.504 3.6693 1.504 6.144 0 2.4747-.5013 4.5227-1.504 6.144-.9813 1.6213-2.304 2.816-3.968 3.584-1.664.768-3.5307 1.152-5.6 1.152h-9.472Zm9.504-.864c1.6.064 3.0507-.3093 4.352-1.12 1.3227-.8107 2.368-1.984 3.136-3.52.768-1.536 1.152-3.328 1.152-5.376 0-2.048-.384-3.8293-1.152-5.344-.768-1.5147-1.8133-2.6667-3.136-3.456-1.3013-.8107-2.7627-1.216-4.384-1.216-.7893 0-1.3653.0213-1.728.064-.3413.0213-.6613.128-.96.32-.2987.1706-.5013.4693-.608.896-.192.768-.288 3.68-.288 8.736 0 5.056.096 7.968.288 8.736.1493.5547.4267.9067.832 1.056.4053.128.8747.2027 1.408.224h1.088ZM41.5155 8.416c-.4907 0-.9173-.1707-1.28-.512-.3413-.3627-.512-.7893-.512-1.28 0-.512.1707-.9387.512-1.28.3627-.3627.7893-.544 1.28-.544s.9067.1813 1.248.544c.3627.3413.544.768.544 1.28 0 .4907-.1813.9173-.544 1.28-.3413.3413-.7573.512-1.248.512Zm-2.336 14.24c-.2133 0-.384-.0427-.512-.128-.1067-.0853-.16-.192-.16-.32 0-.1493.064-.2667.192-.352.128-.0853.3093-.1067.544-.064.64.128 1.0667-.2133 1.28-1.024.128-.4693.192-1.1947.192-2.176 0-.704-.0107-1.248-.032-1.632l-.032-2.144c0-.576-.096-1.0347-.288-1.376-.1707-.3627-.4587-.544-.864-.544-.2133 0-.384-.032-.512-.096-.1067-.064-.16-.1493-.16-.256 0-.0853.0533-.1707.16-.256.128-.1067.2987-.1813.512-.224.6613-.1707 1.344-.5227 2.048-1.056.0853-.0427.2347-.128.448-.256.2133-.1493.384-.224.512-.224.2987 0 .448.128.448.384l-.064 1.28-.128 2.208c-.0427.7893-.064 1.8347-.064 3.136 0 1.5147.0533 2.592.16 3.232.064.3627.1813.6293.352.8.1707.1707.416.256.736.256.1493 0 .2773-.0107.384-.032l.192-.032c.1707 0 .2987.0427.384.128.1067.0853.16.192.16.32s-.064.2347-.192.32c-.1067.0853-.2667.128-.48.128h-5.216Zm10.1465.032c-.7253 0-1.2267-.2667-1.504-.8-.2773-.5547-.416-1.216-.416-1.984v-7.936c0-.2133-.1067-.32-.32-.32-.384 0-.6933.0107-.928.032h-.544c-.1707 0-.3093-.0533-.416-.16-.0853-.1067-.128-.2347-.128-.384 0-.1707.0533-.3093.16-.416.1067-.128.2667-.192.48-.192 1.024 0 1.7067-.288 2.048-.864.256-.4054.448-.9707.576-1.696.0853-.4054.1707-.6933.256-.864.0853-.192.224-.288.416-.288.4053 0 .608.2773.608.832v2.624c0 .2133.1067.32.32.32.7467 0 1.3653-.0107 1.856-.032.4907-.0213.832-.032 1.024-.032.192 0 .3307.0533.416.16.1067.1067.16.2453.16.416 0 .1493-.0533.288-.16.416s-.2453.1813-.416.16c-.5973-.064-1.568-.096-2.912-.096-.2133 0-.32.1067-.32.32-.0213 2.432-.032 5.0987-.032 8 0 .3627.1173.6933.352.992.2347.2987.5333.448.896.448.4693 0 .9707-.2987 1.504-.896.192-.2133.3627-.32.512-.32.1707 0 .256.096.256.288 0 .192-.096.416-.288.672-.384.4693-.8747.8533-1.472 1.152-.5973.2987-1.2587.448-1.984.448Zm8.9688 0c-.7254 0-1.2267-.2667-1.504-.8-.2774-.5547-.416-1.216-.416-1.984v-7.936c0-.2133-.1067-.32-.32-.32-.384 0-.6934.0107-.928.032h-.544c-.1707 0-.3094-.0533-.416-.16-.0854-.1067-.128-.2347-.128-.384 0-.1707.0533-.3093.16-.416.1066-.128.2666-.192.48-.192 1.024 0 1.7066-.288 2.048-.864.256-.4054.448-.9707.576-1.696.0853-.4054.1706-.6933.256-.864.0853-.192.224-.288.416-.288.4053 0 .608.2773.608.832v2.624c0 .2133.1066.32.32.32.7466 0 1.3653-.0107 1.856-.032.4906-.0213.832-.032 1.024-.032.192 0 .3306.0533.416.16.1066.1067.16.2453.16.416 0 .1493-.0534.288-.16.416-.1067.128-.2454.1813-.416.16-.5974-.064-1.568-.096-2.912-.096-.2134 0-.32.1067-.32.32-.0214 2.432-.032 5.0987-.032 8 0 .3627.1173.6933.352.992.2346.2987.5333.448.896.448.4693 0 .9706-.2987 1.504-.896.192-.2133.3626-.32.512-.32.1706 0 .256.096.256.288 0 .192-.096.416-.288.672-.384.4693-.8747.8533-1.472 1.152-.5974.2987-1.2587.448-1.984.448Zm14.9785-.032c-.2134 0-.384-.0427-.512-.128-.1067-.0853-.16-.192-.16-.32 0-.1493.064-.2667.192-.352.128-.0853.3093-.1067.5439-.064.7894.128 1.2801-.5227 1.4721-1.952.128-1.152.192-2.7093.192-4.672 0-3.6053-.0534-6.7627-.16-9.472-.0214-.4267-.032-.896-.032-1.408 0-.576-.096-1.0347-.288-1.376-.1707-.3627-.4587-.544-.864-.544-.2134 0-.384-.032-.512-.096-.1067-.064-.16-.1493-.16-.256 0-.0854.0533-.1707.16-.256.128-.1067.2986-.1813.512-.224.6186-.128 1.3333-.48 2.144-1.056.064-.0427.2026-.128.416-.256.2346-.1493.4266-.224.576-.224.2986 0 .448.128.448.384l-.064 2.24c-.1494 3.5413-.224 6.4853-.224 8.832v4.64l-.032 2.944c0 .96.0746 1.664.224 2.112.1493.448.4586.672.928.672.1493 0 .2666-.0107.352-.032l.192-.032c.1706 0 .2986.0427.384.128.1066.0853.16.192.16.32s-.064.2347-.192.32c-.1067.0853-.2667.128-.48.128h-5.216Zm9.5235-14.24c-.4907 0-.9174-.1707-1.28-.512-.3414-.3627-.512-.7893-.512-1.28 0-.512.1706-.9387.512-1.28.3626-.3627.7893-.544 1.28-.544.4906 0 .9066.1813 1.248.544.3626.3413.544.768.544 1.28 0 .4907-.1814.9173-.544 1.28-.3414.3413-.7574.512-1.248.512Zm-2.336 14.24c-.2134 0-.384-.0427-.512-.128-.1067-.0853-.16-.192-.16-.32 0-.1493.064-.2667.192-.352.128-.0853.3093-.1067.5439-.064.6401.128 1.0667-.2133 1.2801-1.024.128-.4693.192-1.1947.192-2.176 0-.704-.0107-1.248-.032-1.632l-.032-2.144c0-.576-.096-1.0347-.288-1.376-.1707-.3627-.4587-.544-.864-.544-.2134 0-.384-.032-.512-.096-.1067-.064-.16-.1493-.16-.256 0-.0853.0533-.1707.16-.256.128-.1067.2986-.1813.512-.224.6613-.1707 1.344-.5227 2.048-1.056.0853-.0427.2346-.128.448-.256.2133-.1493.384-.224.512-.224.2986 0 .448.128.448.384l-.0641 1.28-.1279 2.208c-.0427.7893-.064 1.8347-.064 3.136 0 1.5147.0533 2.592.16 3.232.064.3627.1813.6293.352.8.1706.1707.416.256.736.256.1493 0 .2773-.0107.384-.032l.192-.032c.1706 0 .2986.0427.384.128.1066.0853.16.192.16.32s-.064.2347-.192.32c-.1067.0853-.2667.128-.48.128h-5.216Zm11.1862-.544c-1.1733-3.008-2.0373-5.2693-2.592-6.784-.4693-1.3013-.8107-2.1973-1.024-2.688-.192-.4907-.384-.8213-.576-.992-.1707-.192-.4053-.2773-.704-.256h-.032c-.2133 0-.384-.0427-.512-.128s-.192-.192-.192-.32.0533-.224.16-.288c.128-.0853.2987-.128.512-.128h4.672c.2133 0 .3733.0427.48.128.128.0853.192.192.192.32 0 .1493-.064.2667-.192.352-.128.0853-.3093.1067-.544.064-.064-.0213-.16-.032-.288-.032-.3627 0-.544.2027-.544.608 0 .3413.096.8107.288 1.408.192.576.5333 1.536 1.024 2.88.1067.2987.2453.672.416 1.12.1707.448.3627.9813.576 1.6.0853.2133.2027.32.352.32s.256-.1067.32-.32c.064-.1707.1173-.32.16-.448.064-.128.1173-.2453.16-.352.7467-1.9627 1.2587-3.3493 1.536-4.16.2987-.832.448-1.4613.448-1.888 0-.2773-.0747-.4693-.224-.576-.1493-.1067-.3947-.1387-.736-.096h-.16c-.1707 0-.3093-.0427-.416-.128-.1067-.0853-.16-.1813-.16-.288 0-.128.0533-.2347.16-.32.128-.0853.2987-.128.512-.128h3.712c.2133 0 .3733.0427.48.128.128.064.192.16.192.288 0 .128-.0747.2347-.224.32-.128.0853-.3093.128-.544.128-.3413 0-.64.2453-.896.736-.256.4693-.6827 1.472-1.28 3.008-.1493.384-.4907 1.2373-1.024 2.56-.512 1.3227-1.0987 2.7413-1.76 4.256-.0853.2133-.224.384-.416.512-.1707.128-.352.192-.544.192-.3627 0-.6187-.2027-.768-.608Zm21.96.608c-1.301 0-2.293-.2133-2.976-.64-.682-.4267-1.002-1.1733-.96-2.24.064-1.2373.811-2.144 2.24-2.72 1.451-.5973 2.987-.9493 4.608-1.056.299-.0427.448-.2133.448-.512V13.92c0-.7893-.202-1.408-.608-1.856-.405-.448-.928-.672-1.568-.672-.704 0-1.258.2133-1.664.64-.405.4053-.608.928-.608 1.568 0 .448-.106.7787-.32.992-.213.2133-.48.32-.8.32-.277 0-.533-.1067-.768-.32-.213-.2133-.32-.5227-.32-.928 0-.5333.214-1.0347.64-1.504.448-.4907 1.024-.8853 1.728-1.184.726-.2987 1.472-.448 2.24-.448 1.238 0 2.262.3093 3.072.928.811.5973 1.216 1.472 1.216 2.624v5.792c0 1.3227.267 1.984.8 1.984.064 0 .214-.0533.448-.16.235-.128.374-.192.416-.192.107 0 .192.032.256.096s.096.1493.096.256c0 .256-.213.4587-.64.608-.405.1493-.832.224-1.28.224-.938 0-1.589-.32-1.952-.96-.085-.1493-.202-.224-.352-.224-.128 0-.245.0427-.352.128-1.045.7253-2.058 1.088-3.04 1.088Zm3.168-2.528c.15-.32.224-.864.224-1.632l-.032-1.152c0-.32-.16-.48-.48-.48-3.093.1067-4.64 1.0453-4.64 2.816 0 .6187.224 1.0987.672 1.44.448.3413 1.003.512 1.664.512.555 0 1.078-.128 1.568-.384.491-.2773.832-.6507 1.024-1.12Zm-4.352-11.328c-.469 0-.874-.16-1.216-.48-.32-.3414-.48-.7467-.48-1.216 0-.448.16-.832.48-1.152.342-.3414.747-.512 1.216-.512.448 0 .832.1707 1.152.512.342.32.512.704.512 1.152 0 .4693-.17.8746-.512 1.216-.32.32-.704.48-1.152.48Zm5.152 0c-.469 0-.874-.16-1.216-.48-.32-.3414-.48-.7467-.48-1.216 0-.448.16-.832.48-1.152.342-.3414.747-.512 1.216-.512.448 0 .832.1707 1.152.512.342.32.512.704.512 1.152 0 .4693-.17.8746-.512 1.216-.32.32-.704.48-1.152.48Zm4.596 3.68c0-.0853.054-.1707.16-.256.128-.1067.299-.1813.512-.224.662-.1707 1.344-.5227 2.048-1.056.086-.0427.235-.128.448-.256.214-.1493.384-.224.512-.224.299 0 .448.128.448.384 0 .3413-.01.6507-.032.928v.064c0 .128.032.2027.096.224.064.0213.15-.0213.256-.128.47-.4907.992-.8533 1.568-1.088.598-.256 1.152-.384 1.664-.384.278 0 .502.032.672.096.512.1707.768.48.768.928 0 .32-.128.608-.384.864s-.554.384-.896.384c-.192 0-.33-.0213-.416-.064-.448-.1493-.832-.224-1.152-.224-.554 0-1.045.1707-1.472.512-.405.3413-.693.8427-.864 1.504-.064 1.152-.096 2.1653-.096 3.04 0 1.3653.064 2.432.192 3.2.064.3627.182.6293.352.8.171.1707.416.256.736.256.15 0 .278-.0107.384-.032l.192-.032c.171 0 .299.0427.384.128.107.0853.16.192.16.32s-.064.2347-.192.32c-.106.0853-.266.128-.48.128h-5.216c-.213 0-.384-.0427-.512-.128-.106-.0853-.16-.192-.16-.32 0-.1493.064-.2667.192-.352.128-.0853.31-.1067.544-.064.32.064.587.0107.8-.16.235-.192.395-.48.48-.864.107-.5333.16-1.376.16-2.528l-.032-3.424c0-.576-.096-1.0347-.288-1.376-.17-.3627-.458-.544-.864-.544-.213 0-.384-.032-.512-.096-.106-.064-.16-.1493-.16-.256Zm20.04 10.112c-.214 0-.384-.0427-.512-.128-.107-.0853-.16-.192-.16-.32 0-.1493.064-.2667.192-.352.128-.0853.309-.1067.544-.064.789.128 1.28-.5227 1.472-1.952.128-1.152.192-2.7093.192-4.672 0-3.6053-.054-6.7627-.16-9.472-.022-.4267-.032-.896-.032-1.408 0-.576-.096-1.0347-.288-1.376-.171-.3627-.459-.544-.864-.544-.214 0-.384-.032-.512-.096-.107-.064-.16-.1493-.16-.256 0-.0854.053-.1707.16-.256.128-.1067.298-.1813.512-.224.618-.128 1.333-.48 2.144-1.056.064-.0427.202-.128.416-.256.234-.1493.426-.224.576-.224.298 0 .448.128.448.384l-.064 2.24c-.15 3.5413-.224 6.4853-.224 8.832v4.64l-.032 2.944c0 .96.074 1.664.224 2.112.149.448.458.672.928.672.149 0 .266-.0107.352-.032l.192-.032c.17 0 .298.0427.384.128.106.0853.16.192.16.32s-.064.2347-.192.32c-.107.0853-.267.128-.48.128h-5.216Zm9.587-14.24c-.49 0-.917-.1707-1.28-.512-.341-.3627-.512-.7893-.512-1.28 0-.512.171-.9387.512-1.28.363-.3627.79-.544 1.28-.544.491 0 .907.1813 1.248.544.363.3413.544.768.544 1.28 0 .4907-.181.9173-.544 1.28-.341.3413-.757.512-1.248.512Zm-3.456 20.096c-.213 0-.373-.0533-.48-.16-.128-.0853-.192-.2027-.192-.352s.064-.2773.192-.384c.128-.1067.31-.1387.544-.096.384.064.768-.16 1.152-.672.406-.4907.736-1.1307.992-1.92.256-.7893.384-1.536.384-2.24 0-.576.011-1.0773.032-1.504.043-1.3227.064-2.4853.064-3.488 0-1.088-.032-2.048-.096-2.88-.042-.5973-.149-1.0667-.32-1.408-.149-.3413-.426-.512-.832-.512-.213 0-.384-.032-.512-.096-.106-.064-.16-.1493-.16-.256 0-.0853.054-.1707.16-.256.128-.1067.299-.1813.512-.224.662-.1707 1.344-.5227 2.048-1.056.086-.0427.235-.128.448-.256.214-.1493.384-.224.512-.224.299 0 .448.128.448.384l-.064.864c-.085.896-.128 1.7707-.128 2.624l.032 4.096c0 1.1093-.032 2.0267-.096 2.752-.042.704-.149 1.344-.32 1.92-.32 1.1947-.757 2.1867-1.312 2.976-.533.8107-1.077 1.408-1.632 1.792-.533.384-.992.576-1.376.576Zm6.197-15.936c0-.0853.053-.1707.16-.256.128-.1067.298-.192.512-.256.469-.1493 1.056-.4587 1.76-.928.085-.064.202-.1387.352-.224.149-.1067.266-.1813.352-.224.213-.1067.373-.16.48-.16.277 0 .416.128.416.384l-.032 2.944c-.043 2.2187-.064 3.9147-.064 5.088 0 .704.256 1.3227.768 1.856.533.512 1.152.768 1.856.768.917 0 1.76-.5227 2.528-1.568.128-.2347.181-.4373.16-.608-.022-.3413-.032-.7787-.032-1.312l.032-3.264c0-.576-.096-1.0347-.288-1.376-.171-.3627-.459-.544-.864-.544-.448 0-.672-.1067-.672-.32 0-.0853.053-.1707.16-.256.128-.1067.298-.192.512-.256.469-.1493 1.056-.4587 1.76-.928.085-.064.202-.1387.352-.224.149-.1067.266-.1813.352-.224.213-.1067.373-.16.48-.16.277 0 .416.128.416.384l-.064 1.952c-.086 1.5787-.128 2.912-.128 4 0 1.2373.053 2.2293.16 2.976.128.7467.362 1.12.704 1.12.106 0 .256-.0213.448-.064.213-.064.362-.096.448-.096.277 0 .416.1067.416.32 0 .1067-.054.224-.16.352-.107.1067-.256.1813-.448.224-.448.128-.918.3413-1.408.64-.384.2347-.651.352-.8.352-.619 0-1.003-.4373-1.152-1.312-.022-.192-.086-.288-.192-.288-.064 0-.15.0533-.256.16-.939.9387-2.027 1.408-3.264 1.408-.598 0-1.206-.128-1.824-.384-.598-.256-1.099-.6187-1.504-1.088-.406-.4907-.608-1.0667-.608-1.728v-4.64c0-.576-.096-1.0347-.288-1.376-.171-.3627-.459-.544-.864-.544-.448 0-.672-.1067-.672-.32Zm19.214 10.112c-.918 0-1.643-.1173-2.176-.352-.512-.2347-.896-.448-1.153-.64-.234-.2133-.362-.32-.383-.32-.064 0-.107.064-.128.192-.022.1067-.032.2667-.032.48 0 .128-.043.2453-.128.352-.086.1067-.192.16-.32.16-.278 0-.416-.16-.416-.48v-3.488c0-.1493.042-.2667.128-.352.085-.0853.192-.128.32-.128.106 0 .202.0427.288.128.085.0853.128.2027.128.352 0 .448.181.928.543 1.44.385.4907.854.9067 1.409 1.248.576.3413 1.141.512 1.696.512.682 0 1.237-.1493 1.664-.448.426-.32.64-.7467.64-1.28 0-.4053-.256-.7787-.768-1.12-.491-.3627-1.27-.8107-2.336-1.344l-.608-.288c-.704-.3413-1.27-.64-1.697-.896-.405-.256-.757-.5973-1.056-1.024-.277-.4267-.415-.9493-.415-1.568 0-.576.16-1.1093.48-1.6.341-.512.821-.9173 1.44-1.216.64-.32 1.376-.48 2.208-.48.768 0 1.386.0853 1.856.256.49.1707.864.3413 1.12.512.277.1493.437.224.479.224.107 0 .161-.16.161-.48 0-.128.042-.224.128-.288.085-.0853.181-.128.288-.128.128 0 .234.0427.32.128.085.0853.128.192.128.32V14.4c0 .128-.054.2347-.16.32-.086.0853-.182.128-.288.128-.107 0-.203-.0427-.288-.128-.086-.0853-.128-.192-.128-.32 0-.4267-.16-.864-.48-1.312-.299-.4693-.726-.8533-1.28-1.152-.555-.32-1.174-.48-1.856-.48-.704 0-1.248.16-1.632.48-.363.2987-.544.672-.544 1.12 0 .832.693 1.5787 2.08 2.24.192.0853.373.1707.544.256.17.064.33.128.48.192.81.3413 1.461.6613 1.952.96.512.2773.938.6507 1.28 1.12.362.448.544 1.0027.544 1.664 0 .9387-.395 1.7067-1.184 2.304-.768.5973-1.718.896-2.848.896Zm7.341 0c-.406 0-.736-.128-.992-.384-.256-.2773-.384-.608-.384-.992s.128-.704.384-.96.586-.384.992-.384c.362 0 .672.128.928.384.277.256.416.576.416.96s-.139.7147-.416.992c-.256.256-.566.384-.928.384Z"/><path stroke="#fff" d="M0 36.1879h292"/><path fill="#fff" d="M22.2 61.7679c-.4 0-.8933-.02-1.48-.06-.5867-.04-1.1267-.06-1.62-.06-.4533 0-.8933.0066-1.32.02-.4133.0133-.7867.02-1.12.02-.0267 0-.04-.04-.04-.12 0-.08.0133-.12.04-.12.4667 0 .82-.0334 1.06-.1.24-.0667.4-.2.48-.4.08-.2.12-.4934.12-.88v-9.26c0-.3867-.04-.6734-.12-.86-.08-.2-.24-.3334-.48-.4-.2267-.08-.5667-.12-1.02-.12-.04 0-.06-.04-.06-.12 0-.08.02-.12.06-.12.3333 0 .7.0133 1.1.04.4133.0133.8467.02 1.3.02.4533 0 .94-.0134 1.46-.04.5333-.04.9867-.06 1.36-.06 1.4133 0 2.64.2666 3.68.8 1.0533.5333 1.8733 1.26 2.46 2.18.5867.92.88 1.9533.88 3.1 0 1-.18 1.9066-.54 2.72-.3467.8-.8333 1.4866-1.46 2.06-.6267.56-1.3467.9933-2.16 1.3-.8133.3066-1.6733.46-2.58.46Zm-.2-.36c1 0 1.88-.22 2.64-.66.7733-.44 1.38-1.0867 1.82-1.94.44-.8667.66-1.9134.66-3.14 0-1.16-.2067-2.2-.62-3.12-.4133-.9334-.9933-1.6734-1.74-2.22-.7333-.56-1.6133-.84-2.64-.84-.8 0-1.3733.08-1.72.24-.3333.16-.5.5333-.5 1.12v9c0 .5333.1333.9266.4 1.18.2667.2533.8333.38 1.7.38Zm12.4072.52c-.8267 0-1.5333-.18-2.12-.54-.5733-.3734-1.0067-.8534-1.3-1.44-.28-.5867-.42-1.2067-.42-1.86 0-.8134.1933-1.54.58-2.18.3867-.6534.9067-1.1667 1.56-1.54.6667-.3867 1.4133-.58 2.24-.58.76 0 1.34.18 1.74.54.4133.3466.62.8266.62 1.44 0 .1466-.0133.2666-.04.36-.0267.0933-.0867.14-.18.14h-1.42c.0533-.64-.0467-1.1467-.3-1.52-.2533-.3734-.6267-.56-1.12-.56-.68 0-1.2067.28-1.58.84-.3733.56-.56 1.3133-.56 2.26 0 .7466.12 1.4133.36 2 .24.5733.5933 1.0266 1.06 1.36.4667.32 1.0267.48 1.68.48.3467 0 .7-.0467 1.06-.14a3.464 3.464 0 0 0 1-.48c.0267-.0267.06-.0067.1.06.0533.0533.0667.1.04.14-.48.44-.9667.7533-1.46.94-.4933.1866-1.0067.28-1.54.28Zm-2.76-5.62-.02-.3 4.5-.1v.36l-4.48.04Zm12.6845 5.5c-.0533.0266-.1133.04-.18.04-.2 0-.3933-.1467-.58-.44-.1733-.3067-.26-.74-.26-1.3v-3.52c0-.5867-.0533-1.0534-.16-1.4-.0933-.3467-.2333-.5934-.42-.74-.1733-.16-.38-.24-.62-.24-.2933 0-.54.0733-.74.22-.2.1466-.3533.3466-.46.6-.0933.24-.16.5066-.2.8-.0266.2533-.1066.4666-.24.64-.12.16-.3333.24-.64.24-.24 0-.4266-.06-.56-.18-.1333-.12-.2-.2867-.2-.5 0-.2534.1267-.5067.38-.76.2534-.2667.5734-.5134.96-.74a6.0246 6.0246 0 0 1 1.2-.54c.4267-.1334.82-.2 1.18-.2.5334 0 .98.18 1.34.54.36.3466.54.9.54 1.66v3.54c0 .44.06.7666.18.98.12.2133.3134.32.58.32.2267 0 .52-.0734.88-.22.0534-.0267.0934 0 .12.08.04.0666.0267.1133-.04.14l-2.06.98Zm-4.02.02c-.4266 0-.7533-.1134-.98-.34-.2266-.2267-.34-.5134-.34-.86 0-.4134.16-.7267.48-.94.32-.2134.8334-.44 1.54-.68l2.5-.86.06.24-2.04.78c-.32.12-.5466.2533-.68.4-.1333.1466-.2.3333-.2.56 0 .28.08.5.24.66.16.16.3667.24.62.24.1334 0 .2734-.02.42-.06.1467-.04.3-.0934.46-.16l1.52-.8.02.28-1.72.94c-.3866.2-.7333.3533-1.04.46-.2933.0933-.58.14-.86.14Zm9.0785-5.56-.12-.22c.5066-.6134.9266-1.08 1.26-1.4.3333-.32.62-.54.86-.66.24-.1334.4666-.2.68-.2.28 0 .56.0866.84.26.28.1733.42.3933.42.66 0 .2-.0667.3733-.2.52-.1334.1333-.3134.2-.54.2-.2134 0-.3867-.06-.52-.18a4.6001 4.6001 0 0 0-.38-.34c-.12-.12-.2867-.18-.5-.18-.1067 0-.2267.0333-.36.1-.1334.0666-.3134.2133-.54.44-.2134.2133-.5134.5466-.9 1Zm-2.12 5.42c-.04 0-.06-.04-.06-.12 0-.08.02-.12.06-.12.48 0 .7933-.0867.94-.26.16-.1867.24-.56.24-1.12v-3.9c0-.4267-.0534-.74-.16-.94-.0934-.2-.26-.3-.5-.3-.1334 0-.2867.0266-.46.08-.1734.04-.3734.1066-.6.2-.0534.0266-.0934.0066-.12-.06-.0267-.08-.02-.1334.02-.16l2.46-1.18c.0533-.0134.0933-.02.12-.02.12 0 .2533.1466.4.44.1466.2933.22.7133.22 1.26v4.58c0 .3733.0466.66.14.86.1066.2.2933.34.56.42.28.0666.68.1 1.2.1.04 0 .06.04.06.12 0 .08-.02.12-.06.12-.3467 0-.74-.0067-1.18-.02-.44-.0134-.9067-.02-1.4-.02-.36 0-.7067.0066-1.04.02-.32.0133-.6.02-.84.02Zm12.1903 0c-.04 0-.06-.04-.06-.12 0-.08.02-.12.06-.12.48 0 .8-.0867.96-.26.16-.1867.24-.56.24-1.12v-3.68c0-.4667-.0467-.8067-.14-1.02-.0934-.2134-.26-.32-.5-.32-.1067 0-.2334.02-.38.06-.1334.04-.2934.1066-.48.2-.0534.0133-.1-.0134-.14-.08-.0267-.08-.0134-.1334.04-.16l2.72-1.26c.04-.0134.0666-.02.08-.02.04 0 .08.02.12.06.0533.04.08.0866.08.14 0 .12-.0067.38-.02.78-.0134.4-.02.9266-.02 1.58v3.72c0 .56.0733.9333.22 1.12.16.1733.4866.26.98.26.04 0 .06.04.06.12 0 .08-.02.12-.06.12-.24 0-.5267-.0067-.86-.02-.32-.0134-.66-.02-1.02-.02s-.7.0066-1.02.02c-.32.0133-.6067.02-.86.02Zm1.76-10.14c-.3067 0-.5467-.08-.72-.24-.1734-.1734-.26-.4134-.26-.72 0-.2934.0866-.52.26-.68.1733-.16.4133-.24.72-.24.3066 0 .54.08.7.24.16.16.24.3866.24.68 0 .64-.3134.96-.94.96Zm8.8906 10.14c-.04 0-.06-.04-.06-.12 0-.08.02-.12.06-.12.48 0 .7933-.0867.94-.26.16-.1867.24-.56.24-1.12v-3.14c0-.76-.14-1.32-.42-1.68-.28-.3734-.7267-.56-1.34-.56-.4667 0-.94.14-1.42.42-.4667.2666-.8667.64-1.2 1.12l-.08-.24c.5467-.7467 1.1067-1.3134 1.68-1.7.5867-.3867 1.2-.58 1.84-.58.7333 0 1.3.2133 1.7.64.4133.4266.62 1.0333.62 1.82v3.9c0 .56.0733.9333.22 1.12.16.1733.4867.26.98.26.04 0 .06.04.06.12 0 .08-.02.12-.06.12-.2533 0-.54-.0067-.86-.02-.32-.0134-.66-.02-1.02-.02s-.7067.0066-1.04.02c-.32.0133-.6.02-.84.02Zm-5.38 0c-.04 0-.06-.04-.06-.12 0-.08.02-.12.06-.12.48 0 .7933-.0867.94-.26.16-.1867.24-.56.24-1.12v-3.9c0-.4267-.0533-.74-.16-.94-.0933-.2-.26-.3-.5-.3-.1333 0-.2867.0266-.46.08-.1733.04-.3733.1066-.6.2-.0533.0266-.0933.0066-.12-.06-.0267-.08-.02-.1334.02-.16l2.46-1.18c.0533-.0134.0933-.02.12-.02.12 0 .2533.1466.4.44.1467.2933.22.7133.22 1.26v4.58c0 .56.0733.9333.22 1.12.16.1733.4867.26.98.26.04 0 .06.04.06.12 0 .08-.02.12-.06.12-.2533 0-.54-.0067-.86-.02-.32-.0134-.66-.02-1.02-.02s-.7067.0066-1.04.02c-.32.0133-.6.02-.84.02Zm11.6506-6.58c0 .32.08.6.24.84.1734.2266.3934.4266.66.6.2667.1733.5467.3466.84.52.3467.1733.6734.36.98.56.32.1866.58.42.78.7.2.28.3.6466.3 1.1 0 .4266-.1066.8333-.32 1.22-.2133.3733-.5333.68-.96.92-.4266.2266-.96.34-1.6.34-.32 0-.64-.04-.96-.12-.32-.08-.6533-.2334-1-.46a.6633.6633 0 0 1-.08-.1c-.0266-.04-.04-.0867-.04-.14l-.04-1.68c0-.04.0334-.06.1-.06.08-.0134.1267-.0067.14.02.16.44.36.8266.6 1.16.2534.32.5334.5666.84.74.32.1733.66.26 1.02.26.3734 0 .6667-.1.88-.3.2134-.2.3134-.5.3-.9 0-.3734-.0933-.68-.28-.92a2.095 2.095 0 0 0-.66-.62 8.539 8.539 0 0 0-.84-.48c-.32-.16-.6333-.3334-.94-.52-.3066-.1867-.56-.42-.76-.7-.1866-.28-.28-.6467-.28-1.1 0-.5334.1334-.9667.4-1.3.28-.3334.6334-.5734 1.06-.72a3.73 3.73 0 0 1 1.32-.24c.2667 0 .52.0266.76.08.24.04.4934.1133.76.22.12.0533.18.1266.18.22 0 .24-.0066.4866-.02.74-.0133.2533-.02.5266-.02.82 0 .04-.04.06-.12.06-.08 0-.12-.02-.12-.06 0-.28-.1066-.5467-.32-.8-.2133-.2534-.48-.46-.8-.62-.32-.1734-.6533-.26-1-.26-.28 0-.52.0733-.72.22-.1866.1466-.28.4-.28.76Zm10.9578 6.7c-.0533.0266-.1133.04-.18.04-.2 0-.3933-.1467-.58-.44-.1733-.3067-.26-.74-.26-1.3v-3.52c0-.5867-.0533-1.0534-.16-1.4-.0933-.3467-.2333-.5934-.42-.74-.1733-.16-.38-.24-.62-.24-.2933 0-.54.0733-.74.22-.2.1466-.3533.3466-.46.6-.0933.24-.16.5066-.2.8-.0266.2533-.1066.4666-.24.64-.12.16-.3333.24-.64.24-.24 0-.4266-.06-.56-.18-.1333-.12-.2-.2867-.2-.5 0-.2534.1267-.5067.38-.76.2534-.2667.5734-.5134.96-.74a6.0246 6.0246 0 0 1 1.2-.54c.4267-.1334.82-.2 1.18-.2.5334 0 .98.18 1.34.54.36.3466.54.9.54 1.66v3.54c0 .44.06.7666.18.98.12.2133.3134.32.58.32.2267 0 .52-.0734.88-.22.0534-.0267.0934 0 .12.08.04.0666.0267.1133-.04.14l-2.06.98Zm-4.02.02c-.4266 0-.7533-.1134-.98-.34-.2266-.2267-.34-.5134-.34-.86 0-.4134.16-.7267.48-.94.32-.2134.8334-.44 1.54-.68l2.5-.86.06.24-2.04.78c-.32.12-.5466.2533-.68.4-.1333.1466-.2.3333-.2.56 0 .28.08.5.24.66.16.16.3667.24.62.24.1334 0 .2734-.02.42-.06.1467-.04.3-.0934.46-.16l1.52-.8.02.28-1.72.94c-.3866.2-.7333.3533-1.04.46-.2933.0933-.58.14-.86.14Zm9.6185 5.5c-.96 0-1.74-.2267-2.34-.68-.5867-.44-.88-1.0067-.88-1.7 0-.3867.1-.7667.3-1.14.2-.3734.5133-.76.94-1.16.4266-.4.98-.8067 1.66-1.22l.2.22a15.5057 15.5057 0 0 0-.8.6c-.2534.2266-.4667.4933-.64.8-.16.3066-.24.6933-.24 1.16 0 .7866.24 1.4.72 1.84.4933.4533 1.1466.68 1.96.68.6133 0 1.1333-.1134 1.56-.34.4266-.2267.7533-.5334.98-.92.2266-.3867.34-.7934.34-1.22 0-.4267-.1-.7667-.3-1.02-.2-.24-.4667-.4334-.8-.58-.3334-.1334-.7067-.24-1.12-.32-.4-.0667-.8-.1267-1.2-.18a13.2119 13.2119 0 0 1-1.26-.26c-.4134-.0934-.7534-.2467-1.02-.46-.2667-.2134-.4-.52-.4-.92 0-.4134.16-.8134.48-1.2.32-.4.7533-.74 1.3-1.02l.16.12c-.2667.1466-.4734.3333-.62.56-.1334.2133-.2.4466-.2.7 0 .3066.1133.5466.34.72.2266.16.52.28.88.36.36.08.7333.1533 1.12.22.4666.0666.9266.1466 1.38.24.4533.08.8666.2 1.24.36.3733.1466.6733.36.9.64.24.2933.36.6866.36 1.18 0 .48-.1334.9533-.4 1.42-.2534.4666-.6134.8866-1.08 1.26-.4534.3866-.9867.6933-1.6.92-.6.2266-1.24.34-1.92.34Zm.44-8.68c-.64 0-1.18-.1134-1.62-.34-.44-.2267-.78-.5267-1.02-.9-.2267-.3734-.34-.7667-.34-1.18 0-.4934.1466-.92.44-1.28.3066-.36.7066-.6334 1.2-.82.4933-.2 1.02-.3 1.58-.3.6533 0 1.1933.1133 1.62.34.44.2266.7666.52.98.88.2133.3466.32.7133.32 1.1 0 .48-.14.9066-.42 1.28-.28.3733-.66.6733-1.14.9-.48.2133-1.0134.32-1.6.32Zm.46-.3c.3066 0 .5866-.1334.84-.4.2533-.2667.38-.72.38-1.36 0-.7334-.2067-1.32-.62-1.76-.4-.4534-.86-.68-1.38-.68-.3467 0-.6334.1333-.86.4-.2267.2533-.34.66-.34 1.22 0 .5066.0933.9533.28 1.34.1866.3866.4266.6933.72.92.3066.2133.6333.32.98.32Zm1.46-2.98.02-.66c.4133-.2934.82-.52 1.22-.68.4-.16.84-.24 1.32-.24.04 0 .0666.0533.08.16.0266.0933.04.2.04.32 0 .16-.02.3333-.06.52-.04.1866-.0867.2666-.14.24-.1734-.08-.38-.1534-.62-.22-.2267-.0667-.48-.1-.76-.1-.16 0-.32.0133-.48.04a3.338 3.338 0 0 0-.46.12l-.16.5Zm7.195 6.56c-.827 0-1.533-.18-2.12-.54-.5732-.3734-1.0065-.8534-1.2999-1.44-.28-.5867-.42-1.2067-.42-1.86 0-.8134.1934-1.54.58-2.18.3867-.6534.9069-1.1667 1.5599-1.54.667-.3867 1.413-.58 2.24-.58.76 0 1.34.18 1.74.54.413.3466.62.8266.62 1.44 0 .1466-.013.2666-.04.36-.027.0933-.087.14-.18.14h-1.42c.053-.64-.047-1.1467-.3-1.52-.253-.3734-.627-.56-1.12-.56-.68 0-1.207.28-1.58.84-.373.56-.56 1.3133-.56 2.26 0 .7466.12 1.4133.36 2 .24.5733.593 1.0266 1.06 1.36.467.32 1.027.48 1.68.48.347 0 .7-.0467 1.06-.14.36-.1067.693-.2667 1-.48.027-.0267.06-.0067.1.06.053.0533.067.1.04.14-.48.44-.967.7533-1.46.94-.493.1866-1.007.28-1.54.28Zm-2.7599-5.62-.02-.3 4.4999-.1v.36l-4.4799.04Zm8.5629-1.2c0 .32.08.6.24.84.173.2266.393.4266.66.6.266.1733.546.3466.84.52.346.1733.673.36.98.56.32.1866.58.42.78.7.2.28.3.6466.3 1.1 0 .4266-.107.8333-.32 1.22-.214.3733-.534.68-.96.92-.427.2266-.96.34-1.6.34-.32 0-.64-.04-.96-.12-.32-.08-.654-.2334-1-.46a.6012.6012 0 0 1-.08-.1c-.027-.04-.04-.0867-.04-.14l-.04-1.68c0-.04.033-.06.1-.06.08-.0134.126-.0067.14.02.16.44.36.8266.6 1.16.253.32.533.5666.84.74.32.1733.66.26 1.02.26.373 0 .666-.1.88-.3.213-.2.313-.5.3-.9 0-.3734-.094-.68-.28-.92a2.11 2.11 0 0 0-.66-.62 8.6326 8.6326 0 0 0-.84-.48c-.32-.16-.634-.3334-.94-.52-.307-.1867-.56-.42-.76-.7-.187-.28-.28-.6467-.28-1.1 0-.5334.133-.9667.4-1.3.28-.3334.633-.5734 1.06-.72.426-.16.866-.24 1.32-.24.266 0 .52.0266.76.08.24.04.493.1133.76.22.12.0533.18.1266.18.22 0 .24-.007.4866-.02.74-.014.2533-.02.5266-.02.82 0 .04-.04.06-.12.06-.08 0-.12-.02-.12-.06 0-.28-.107-.5467-.32-.8-.214-.2534-.48-.46-.8-.62-.32-.1734-.654-.26-1-.26-.28 0-.52.0733-.72.22-.187.1466-.28.4-.28.76Zm9.925 12.08c-.04 0-.06-.04-.06-.12 0-.08.02-.12.06-.12.507 0 .833-.0867.98-.26.16-.1734.24-.5467.24-1.12v-9.36c0-.4534-.053-.78-.16-.98-.093-.2134-.273-.32-.54-.32-.12 0-.267.0266-.44.08-.173.04-.367.1133-.58.22-.053.0133-.093-.0134-.12-.08-.04-.08-.04-.1267 0-.14l2.4-1.16c.04-.0267.087-.04.14-.04.173 0 .327.1533.46.46.133.3066.2.76.2 1.36v9.96c0 .3733.047.66.14.86.093.2.273.3333.54.4.28.08.693.12 1.24.12.04 0 .06.04.06.12 0 .08-.02.12-.06.12-.36 0-.76-.0067-1.2-.02-.44-.0134-.907-.02-1.4-.02-.36 0-.707.0066-1.04.02-.333.0133-.62.02-.86.02Zm4.56-5.24c-.507 0-.953-.0534-1.34-.16-.373-.1067-.807-.3067-1.3-.6l.42-1.14c.347.4133.72.76 1.12 1.04.413.28.96.42 1.64.42.667 0 1.213-.2934 1.64-.88.44-.6.66-1.4734.66-2.62 0-1.1334-.253-1.9867-.76-2.56-.507-.5867-1.113-.88-1.82-.88-.56 0-1.053.1533-1.48.46-.413.3066-.82.68-1.22 1.12l-.18-.18c.68-.7867 1.333-1.36 1.96-1.72.627-.36 1.26-.54 1.9-.54.56 0 1.073.1466 1.54.44.467.28.84.6933 1.12 1.24.293.5466.44 1.2133.44 2 0 .8266-.14 1.5333-.42 2.12-.267.5733-.627 1.04-1.08 1.4-.44.36-.907.62-1.4.78-.493.1733-.973.26-1.44.26Zm8.035-5.68-.12-.22c.507-.6134.927-1.08 1.26-1.4.333-.32.62-.54.86-.66.24-.1334.467-.2.68-.2.28 0 .56.0866.84.26.28.1733.42.3933.42.66 0 .2-.067.3733-.2.52-.133.1333-.313.2-.54.2-.213 0-.387-.06-.52-.18-.12-.12-.247-.2334-.38-.34-.12-.12-.287-.18-.5-.18-.107 0-.227.0333-.36.1-.133.0666-.313.2133-.54.44-.213.2133-.513.5466-.9 1Zm-2.12 5.42c-.04 0-.06-.04-.06-.12 0-.08.02-.12.06-.12.48 0 .793-.0867.94-.26.16-.1867.24-.56.24-1.12v-3.9c0-.4267-.053-.74-.16-.94-.093-.2-.26-.3-.5-.3-.133 0-.287.0266-.46.08-.173.04-.373.1066-.6.2-.053.0266-.093.0066-.12-.06-.027-.08-.02-.1334.02-.16l2.46-1.18c.053-.0134.093-.02.12-.02.12 0 .253.1466.4.44.147.2933.22.7133.22 1.26v4.58c0 .3733.047.66.14.86.107.2.293.34.56.42.28.0666.68.1 1.2.1.04 0 .06.04.06.12 0 .08-.02.12-.06.12-.347 0-.74-.0067-1.18-.02-.44-.0134-.907-.02-1.4-.02-.36 0-.707.0066-1.04.02-.32.0133-.6.02-.84.02Zm12.55.12a.4018.4018 0 0 1-.18.04c-.2 0-.394-.1467-.58-.44-.174-.3067-.26-.74-.26-1.3v-3.52c0-.5867-.054-1.0534-.16-1.4-.094-.3467-.234-.5934-.42-.74-.174-.16-.38-.24-.62-.24-.294 0-.54.0733-.74.22-.2.1466-.354.3466-.46.6-.094.24-.16.5066-.2.8-.027.2533-.107.4666-.24.64-.12.16-.334.24-.64.24-.24 0-.427-.06-.56-.18-.134-.12-.2-.2867-.2-.5 0-.2534.126-.5067.38-.76.253-.2667.573-.5134.96-.74a5.989 5.989 0 0 1 1.2-.54c.426-.1334.82-.2 1.18-.2.533 0 .98.18 1.34.54.36.3466.54.9.54 1.66v3.54c0 .44.06.7666.18.98.12.2133.313.32.58.32.226 0 .52-.0734.88-.22.053-.0267.093 0 .12.08.04.0666.026.1133-.04.14l-2.06.98Zm-4.02.02c-.427 0-.754-.1134-.98-.34-.227-.2267-.34-.5134-.34-.86 0-.4134.16-.7267.48-.94.32-.2134.833-.44 1.54-.68l2.5-.86.06.24-2.04.78c-.32.12-.547.2533-.68.4-.134.1466-.2.3333-.2.56 0 .28.08.5.24.66.16.16.366.24.62.24.133 0 .273-.02.42-.06.146-.04.3-.0934.46-.16l1.52-.8.02.28-1.72.94c-.387.2-.734.3533-1.04.46-.294.0933-.58.14-.86.14Zm14.602-7.86c.04 0 .06.04.06.12 0 .08-.02.12-.06.12-.373 0-.693.14-.96.42-.253.28-.486.7133-.7 1.3l-2.38 6.32c-.48 1.28-.94 2.2866-1.38 3.02-.44.7466-.893 1.2733-1.36 1.58-.466.3066-.98.46-1.54.46-.306 0-.56-.0734-.76-.22-.213-.1334-.32-.34-.32-.62 0-.24.074-.42.22-.54.147-.1067.314-.16.5-.16.254 0 .447.04.58.12.134.08.267.16.4.24.134.08.307.12.52.12.32 0 .627-.1467.92-.44.294-.2934.607-.7934.94-1.5.334-.6934.72-1.6467 1.16-2.86l-.02.74-3.24-6.56c-.293-.5867-.526-.9667-.7-1.14-.16-.1867-.36-.28-.6-.28-.04 0-.06-.04-.06-.12 0-.08.02-.12.06-.12.227 0 .467.0066.72.02.254.0133.494.02.72.02.454 0 .847-.0067 1.18-.02.347-.0134.66-.02.94-.02.027 0 .04.04.04.12 0 .08-.013.12-.04.12-.44 0-.76.0533-.96.16-.186.1066-.206.3133-.06.62l2.7 5.5-.56.94 1.9-5.46c.214-.6134.214-1.06 0-1.34-.2-.28-.626-.42-1.28-.42-.026 0-.04-.04-.04-.12 0-.08.014-.12.04-.12.32 0 .62.0066.9.02.294.0133.667.02 1.12.02.294 0 .534-.0067.72-.02.2-.0134.427-.02.68-.02Zm.933 7.72c-.04 0-.06-.04-.06-.12 0-.08.02-.12.06-.12.48 0 .8-.0867.96-.26.16-.1867.24-.56.24-1.12v-3.68c0-.4667-.046-.8067-.14-1.02-.093-.2134-.26-.32-.5-.32-.106 0-.233.02-.38.06-.133.04-.293.1066-.48.2-.053.0133-.1-.0134-.14-.08-.026-.08-.013-.1334.04-.16l2.72-1.26c.04-.0134.067-.02.08-.02.04 0 .08.02.12.06.054.04.08.0866.08.14 0 .12-.006.38-.02.78-.013.4-.02.9266-.02 1.58v3.72c0 .56.074.9333.22 1.12.16.1733.487.26.98.26.04 0 .06.04.06.12 0 .08-.02.12-.06.12-.24 0-.526-.0067-.86-.02-.32-.0134-.66-.02-1.02-.02s-.7.0066-1.02.02c-.32.0133-.606.02-.86.02Zm1.76-10.14c-.306 0-.546-.08-.72-.24-.173-.1734-.26-.4134-.26-.72 0-.2934.087-.52.26-.68.174-.16.414-.24.72-.24.307 0 .54.08.7.24.16.16.24.3866.24.68 0 .64-.313.96-.94.96Zm8.891 10.14c-.04 0-.06-.04-.06-.12 0-.08.02-.12.06-.12.48 0 .793-.0867.94-.26.16-.1867.24-.56.24-1.12v-3.14c0-.76-.14-1.32-.42-1.68-.28-.3734-.727-.56-1.34-.56-.467 0-.94.14-1.42.42-.467.2666-.867.64-1.2 1.12l-.08-.24c.547-.7467 1.107-1.3134 1.68-1.7.587-.3867 1.2-.58 1.84-.58.733 0 1.3.2133 1.7.64.413.4266.62 1.0333.62 1.82v3.9c0 .56.073.9333.22 1.12.16.1733.487.26.98.26.04 0 .06.04.06.12 0 .08-.02.12-.06.12-.253 0-.54-.0067-.86-.02-.32-.0134-.66-.02-1.02-.02s-.707.0066-1.04.02c-.32.0133-.6.02-.84.02Zm-5.38 0c-.04 0-.06-.04-.06-.12 0-.08.02-.12.06-.12.48 0 .793-.0867.94-.26.16-.1867.24-.56.24-1.12v-3.9c0-.4267-.053-.74-.16-.94-.093-.2-.26-.3-.5-.3-.133 0-.287.0266-.46.08-.173.04-.373.1066-.6.2-.053.0266-.093.0066-.12-.06-.027-.08-.02-.1334.02-.16l2.46-1.18c.053-.0134.093-.02.12-.02.12 0 .253.1466.4.44.147.2933.22.7133.22 1.26v4.58c0 .56.073.9333.22 1.12.16.1733.487.26.98.26.04 0 .06.04.06.12 0 .08-.02.12-.06.12-.253 0-.54-.0067-.86-.02-.32-.0134-.66-.02-1.02-.02s-.707.0066-1.04.02c-.32.0133-.6.02-.84.02Zm13.051 5.64c-.96 0-1.74-.2267-2.34-.68-.587-.44-.88-1.0067-.88-1.7 0-.3867.1-.7667.3-1.14.2-.3734.513-.76.94-1.16.426-.4.98-.8067 1.66-1.22l.2.22c-.267.1866-.534.3866-.8.6-.254.2266-.467.4933-.64.8-.16.3066-.24.6933-.24 1.16 0 .7866.24 1.4.72 1.84.493.4533 1.146.68 1.96.68.613 0 1.133-.1134 1.56-.34.426-.2267.753-.5334.98-.92.226-.3867.34-.7934.34-1.22 0-.4267-.1-.7667-.3-1.02-.2-.24-.467-.4334-.8-.58-.334-.1334-.707-.24-1.12-.32-.4-.0667-.8-.1267-1.2-.18a13.1737 13.1737 0 0 1-1.26-.26c-.414-.0934-.754-.2467-1.02-.46-.267-.2134-.4-.52-.4-.92 0-.4134.16-.8134.48-1.2.32-.4.753-.74 1.3-1.02l.16.12c-.267.1466-.474.3333-.621.56-.133.2133-.199.4466-.199.7 0 .3066.113.5466.339.72.227.16.521.28.881.36.36.08.733.1533 1.12.22.466.0666.926.1466 1.38.24.453.08.866.2 1.24.36.373.1466.673.36.9.64.24.2933.36.6866.36 1.18 0 .48-.134.9533-.4 1.42-.254.4666-.614.8866-1.08 1.26-.454.3866-.987.6933-1.6.92-.6.2266-1.24.34-1.92.34Zm.44-8.68c-.64 0-1.18-.1134-1.62-.34-.44-.2267-.78-.5267-1.021-.9-.226-.3734-.339-.7667-.339-1.18 0-.4934.146-.92.44-1.28.306-.36.706-.6334 1.2-.82.493-.2 1.02-.3 1.58-.3.653 0 1.193.1133 1.62.34.44.2266.766.52.98.88.213.3466.32.7133.32 1.1 0 .48-.14.9066-.42 1.28-.28.3733-.66.6733-1.14.9-.48.2133-1.014.32-1.6.32Zm.46-.3c.306 0 .586-.1334.84-.4.253-.2667.38-.72.38-1.36 0-.7334-.207-1.32-.62-1.76-.4-.4534-.86-.68-1.38-.68-.347 0-.634.1333-.86.4-.227.2533-.34.66-.34 1.22 0 .5066.093.9533.28 1.34.186.3866.426.6933.72.92.306.2133.633.32.98.32Zm1.459-2.98.021-.66c.413-.2934.82-.52 1.22-.68.4-.16.84-.24 1.32-.24.04 0 .066.0533.08.16.026.0933.04.2.04.32 0 .16-.02.3333-.06.52-.04.1866-.087.2666-.14.24-.174-.08-.38-.1534-.62-.22-.227-.0667-.48-.1-.76-.1-.16 0-.32.0133-.48.04a3.327 3.327 0 0 0-.46.12l-.161.5Zm8.178 6.32c-.04 0-.06-.04-.06-.12 0-.08.02-.12.06-.12.56 0 .92-.0867 1.08-.26.16-.1734.24-.5467.24-1.12v-4.5c0-.32-.034-.5534-.1-.7-.067-.1467-.2-.24-.4-.28-.2-.0534-.5-.08-.9-.08-.04 0-.06-.0467-.06-.14 0-.0934.02-.14.06-.14.533 0 .893-.0667 1.08-.2.186-.1334.286-.3667.3-.7.066-2.2134.473-3.7934 1.22-4.74.76-.9467 1.846-1.42 3.26-1.42.72 0 1.286.1066 1.7.32.426.2.64.46.64.78 0 .24-.087.4266-.26.56-.16.12-.34.18-.54.18-.227 0-.4-.0534-.52-.16-.12-.12-.247-.2734-.38-.46-.16-.2534-.34-.4534-.54-.6-.2-.16-.474-.24-.82-.24-.68 0-1.247.42-1.7 1.26-.44.84-.66 2.2066-.66 4.1v7.16c0 .3866.04.68.12.88.093.2.273.3333.54.4.28.0666.7.1 1.26.1.04 0 .06.04.06.12 0 .08-.02.12-.06.12-.454 0-.894-.0067-1.32-.02-.427-.0134-.86-.02-1.3-.02-.374 0-.734.0066-1.08.02-.334.0133-.64.02-.92.02Zm5.1-6.74c-.52-.12-1.02-.2-1.5-.24-.467-.04-.967-.06-1.5-.06v-.46c.506 0 1.006-.02 1.5-.06.493-.04 1.013-.0867 1.56-.14.04 0 .073.0466.1.14.026.0933.04.2.04.32 0 .1066-.027.22-.08.34-.04.12-.08.1733-.12.16Zm5.053 7c-.813 0-1.52-.1934-2.12-.58-.586-.3867-1.04-.9-1.36-1.54-.32-.6534-.48-1.3534-.48-2.1 0-.6934.127-1.2934.38-1.8.267-.5067.614-.92 1.04-1.24.427-.3334.894-.58 1.4-.74.507-.16 1.007-.24 1.5-.24.827 0 1.534.2 2.12.6.587.4 1.034.9133 1.34 1.54.32.6266.48 1.2866.48 1.98 0 .84-.2 1.5733-.6 2.2-.4.6133-.926 1.0866-1.58 1.42-.64.3333-1.346.5-2.12.5Zm.58-.38c.654 0 1.16-.2534 1.52-.76.374-.52.56-1.3067.56-2.36 0-.8934-.133-1.66-.4-2.3-.266-.6534-.626-1.1534-1.08-1.5-.44-.36-.94-.54-1.5-.54-.653 0-1.16.2533-1.52.76-.346.4933-.52 1.2266-.52 2.2 0 .84.127 1.6066.38 2.3.254.68.6 1.22 1.04 1.62.44.3866.947.58 1.52.58Zm7.389-5.3-.12-.22c.506-.6134.926-1.08 1.26-1.4.333-.32.62-.54.86-.66.24-.1334.466-.2.68-.2.28 0 .56.0866.84.26.28.1733.42.3933.42.66 0 .2-.067.3733-.2.52-.134.1333-.314.2-.54.2-.214 0-.387-.06-.52-.18-.12-.12-.247-.2334-.38-.34-.12-.12-.287-.18-.5-.18-.107 0-.227.0333-.36.1-.134.0666-.314.2133-.54.44-.214.2133-.514.5466-.9 1Zm-2.12 5.42c-.04 0-.06-.04-.06-.12 0-.08.02-.12.06-.12.48 0 .793-.0867.94-.26.16-.1867.24-.56.24-1.12v-3.9c0-.4267-.054-.74-.16-.94-.094-.2-.26-.3-.5-.3-.134 0-.287.0266-.46.08-.174.04-.374.1066-.6.2-.054.0266-.094.0066-.12-.06-.027-.08-.02-.1334.02-.16l2.46-1.18c.053-.0134.093-.02.12-.02.12 0 .253.1466.4.44.146.2933.22.7133.22 1.26v4.58c0 .3733.046.66.14.86.106.2.293.34.56.42.28.0666.68.1 1.2.1.04 0 .06.04.06.12 0 .08-.02.12-.06.12-.347 0-.74-.0067-1.18-.02-.44-.0134-.907-.02-1.4-.02-.36 0-.707.0066-1.04.02-.32.0133-.6.02-.84.02Zm14.95.24c-.32 0-.633-.0534-.94-.16-.307-.0934-.56-.2667-.76-.52-.187-.2534-.28-.5934-.28-1.02v-4.62c0-.3067-.027-.54-.08-.7-.053-.16-.153-.2667-.3-.32-.147-.0534-.367-.08-.66-.08-.04 0-.06-.0467-.06-.14 0-.1067.02-.16.06-.16.587-.0134 1.06-.1534 1.42-.42.373-.28.607-.66.7-1.14.013-.04.067-.06.16-.06s.14.02.14.06v6.9c0 .5466.133.9466.4 1.2.28.2533.66.38 1.14.38.333 0 .633-.06.9-.18.28-.12.507-.2467.68-.38.053-.04.1-.0267.14.04.053.0533.053.1 0 .14-.493.4133-.947.7133-1.36.9-.413.1866-.847.28-1.3.28Zm2.06-6.98c-.533-.12-1.047-.2-1.54-.24-.493-.04-1.013-.06-1.56-.06v-.46c.533 0 1.047-.02 1.54-.06.507-.04 1.047-.0867 1.62-.14.04 0 .073.0466.1.14.027.0933.04.2.04.32 0 .1066-.02.22-.06.34-.04.12-.087.1733-.14.16Zm1.438 6.74c-.027 0-.04-.04-.04-.12 0-.08.013-.12.04-.12.493 0 .813-.0867.96-.26.16-.1867.24-.56.24-1.12v-10.28c0-.4667-.047-.8067-.14-1.02-.08-.2134-.233-.32-.46-.32-.2 0-.493.0866-.88.26-.04.0266-.08 0-.12-.08-.04-.08-.04-.1267 0-.14l2.68-1.3h.06c.053 0 .1.02.14.06.053.04.08.0866.08.14v12.68c0 .56.08.9333.24 1.12.16.1733.487.26.98.26.04 0 .06.04.06.12 0 .08-.02.12-.06.12-.253 0-.54-.0067-.86-.02-.32-.0134-.66-.02-1.02-.02s-.707.0066-1.04.02c-.32.0133-.607.02-.86.02Zm5.38 0c-.027 0-.04-.04-.04-.12 0-.08.013-.12.04-.12.493 0 .813-.0867.96-.26.16-.1867.24-.56.24-1.12v-3.08c0-1.52-.587-2.28-1.76-2.28-.467 0-.94.14-1.42.42-.48.28-.88.6533-1.2 1.12l-.1-.24c.56-.7467 1.127-1.3067 1.7-1.68.587-.3867 1.2-.58 1.84-.58.733 0 1.3.2133 1.7.64.4.4266.6 1.0333.6 1.82v3.86c0 .56.08.9333.24 1.12.16.1733.487.26.98.26.04 0 .06.04.06.12 0 .08-.02.12-.06.12-.253 0-.54-.0067-.86-.02-.32-.0134-.66-.02-1.02-.02s-.707.0066-1.04.02c-.32.0133-.607.02-.86.02Zm8.719.24c-.827 0-1.533-.18-2.12-.54-.573-.3734-1.007-.8534-1.3-1.44-.28-.5867-.42-1.2067-.42-1.86 0-.8134.193-1.54.58-2.18.387-.6534.907-1.1667 1.56-1.54.667-.3867 1.413-.58 2.24-.58.76 0 1.34.18 1.74.54.413.3466.62.8266.62 1.44 0 .1466-.013.2666-.04.36-.027.0933-.087.14-.18.14h-1.42c.053-.64-.047-1.1467-.3-1.52-.253-.3734-.627-.56-1.12-.56-.68 0-1.207.28-1.58.84-.373.56-.56 1.3133-.56 2.26 0 .7466.12 1.4133.36 2 .24.5733.593 1.0266 1.06 1.36.467.32 1.027.48 1.68.48.347 0 .7-.0467 1.06-.14.36-.1067.693-.2667 1-.48.027-.0267.06-.0067.1.06.053.0533.067.1.04.14-.48.44-.967.7533-1.46.94-.493.1866-1.007.28-1.54.28Zm-2.76-5.62-.02-.3 4.5-.1v.36l-4.48.04Zm17.45 5.5c-.053.0266-.113.04-.18.04-.2 0-.393-.1467-.58-.44-.173-.3067-.26-.74-.26-1.3v-3.52c0-.5867-.053-1.0534-.16-1.4-.093-.3467-.233-.5934-.42-.74-.173-.16-.38-.24-.62-.24-.293 0-.54.0733-.74.22-.2.1466-.353.3466-.46.6-.093.24-.16.5066-.2.8-.027.2533-.107.4666-.24.64-.12.16-.333.24-.64.24-.24 0-.427-.06-.56-.18-.133-.12-.2-.2867-.2-.5 0-.2534.127-.5067.38-.76.253-.2667.573-.5134.96-.74a6.04 6.04 0 0 1 1.2-.54c.427-.1334.82-.2 1.18-.2.533 0 .98.18 1.34.54.36.3466.54.9.54 1.66v3.54c0 .44.06.7666.18.98.12.2133.313.32.58.32.227 0 .52-.0734.88-.22.053-.0267.093 0 .12.08.04.0666.027.1133-.04.14l-2.06.98Zm-4.02.02c-.427 0-.753-.1134-.98-.34-.227-.2267-.34-.5134-.34-.86 0-.4134.16-.7267.48-.94.32-.2134.833-.44 1.54-.68l2.5-.86.06.24-2.04.78c-.32.12-.547.2533-.68.4-.133.1466-.2.3333-.2.56 0 .28.08.5.24.66.16.16.367.24.62.24.133 0 .273-.02.42-.06.147-.04.3-.0934.46-.16l1.52-.8.02.28-1.72.94c-.387.2-.733.3533-1.04.46-.293.0933-.58.14-.86.14Zm9.079-5.56-.12-.22c.506-.6134.926-1.08 1.26-1.4.333-.32.62-.54.86-.66.24-.1334.466-.2.68-.2.28 0 .56.0866.84.26.28.1733.42.3933.42.66 0 .2-.067.3733-.2.52-.134.1333-.314.2-.54.2-.214 0-.387-.06-.52-.18-.12-.12-.247-.2334-.381-.34-.119-.12-.286-.18-.499-.18-.107 0-.227.0333-.36.1-.134.0666-.314.2133-.54.44-.214.2133-.514.5466-.9 1Zm-2.12 5.42c-.04 0-.06-.04-.06-.12 0-.08.02-.12.06-.12.48 0 .793-.0867.94-.26.16-.1867.24-.56.24-1.12v-3.9c0-.4267-.054-.74-.16-.94-.094-.2-.26-.3-.5-.3-.134 0-.287.0266-.46.08-.174.04-.374.1066-.6.2-.054.0266-.094.0066-.12-.06-.027-.08-.02-.1334.02-.16l2.46-1.18c.053-.0134.093-.02.12-.02.12 0 .253.1466.4.44.146.2933.22.7133.22 1.26v4.58c0 .3733.046.66.14.86.106.2.293.34.56.42.28.0666.68.1 1.2.1.04 0 .06.04.06.12 0 .08-.02.12-.06.12-.347 0-.74-.0067-1.18-.02-.44-.0134-.907-.02-1.4-.02-.36 0-.707.0066-1.04.02-.32.0133-.6.02-.84.02Zm10.828.24c-.827 0-1.533-.18-2.12-.54-.573-.3734-1.007-.8534-1.3-1.44-.28-.5867-.42-1.2067-.42-1.86 0-.8134.193-1.54.58-2.18.387-.6534.907-1.1667 1.56-1.54.667-.3867 1.413-.58 2.24-.58.76 0 1.34.18 1.74.54.413.3466.62.8266.62 1.44 0 .1466-.013.2666-.04.36-.027.0933-.087.14-.18.14h-1.42c.053-.64-.047-1.1467-.3-1.52-.253-.3734-.627-.56-1.12-.56-.68 0-1.207.28-1.58.84-.373.56-.56 1.3133-.56 2.26 0 .7466.12 1.4133.36 2 .24.5733.593 1.0266 1.06 1.36.467.32 1.027.48 1.68.48.347 0 .7-.0467 1.06-.14.36-.1067.693-.2667 1-.48.027-.0267.06-.0067.1.06.053.0533.067.1.04.14-.48.44-.967.7533-1.46.94-.493.1866-1.007.28-1.54.28Zm-2.76-5.62-.02-.3 4.5-.1v.36l-4.48.04Zm12.684 5.5c-.053.0266-.113.04-.18.04-.2 0-.393-.1467-.58-.44-.173-.3067-.26-.74-.26-1.3v-3.52c0-.5867-.053-1.0534-.16-1.4-.093-.3467-.233-.5934-.42-.74-.173-.16-.38-.24-.62-.24-.293 0-.54.0733-.74.22-.2.1466-.353.3466-.46.6-.093.24-.16.5066-.2.8-.026.2533-.106.4666-.24.64-.12.16-.333.24-.64.24-.24 0-.426-.06-.56-.18-.133-.12-.2-.2867-.2-.5 0-.2534.127-.5067.38-.76.254-.2667.574-.5134.96-.74a6.04 6.04 0 0 1 1.2-.54c.427-.1334.82-.2 1.18-.2.534 0 .98.18 1.34.54.36.3466.54.9.54 1.66v3.54c0 .44.06.7666.18.98.12.2133.314.32.58.32.227 0 .52-.0734.88-.22.054-.0267.094 0 .12.08.04.0666.027.1133-.04.14l-2.06.98Zm-4.02.02c-.426 0-.753-.1134-.98-.34-.226-.2267-.34-.5134-.34-.86 0-.4134.16-.7267.48-.94.32-.2134.834-.44 1.54-.68l2.5-.86.06.24-2.04.78c-.32.12-.546.2533-.68.4-.133.1466-.2.3333-.2.56 0 .28.08.5.24.66.16.16.367.24.62.24.134 0 .274-.02.42-.06.147-.04.3-.0934.46-.16l1.52-.8.02.28-1.72.94c-.386.2-.733.3533-1.04.46-.293.0933-.58.14-.86.14Zm15.446.12c-.813 0-1.52-.1934-2.12-.58-.586-.3867-1.04-.9-1.36-1.54-.32-.6534-.48-1.3534-.48-2.1 0-.6934.127-1.2934.38-1.8.267-.5067.614-.92 1.04-1.24.427-.3334.894-.58 1.4-.74.507-.16 1.007-.24 1.5-.24.827 0 1.534.2 2.12.6.587.4 1.034.9133 1.34 1.54.32.6266.48 1.2866.48 1.98 0 .84-.2 1.5733-.6 2.2-.4.6133-.926 1.0866-1.58 1.42-.64.3333-1.346.5-2.12.5Zm.58-.38c.654 0 1.16-.2534 1.52-.76.374-.52.56-1.3067.56-2.36 0-.8934-.133-1.66-.4-2.3-.266-.6534-.626-1.1534-1.08-1.5-.44-.36-.94-.54-1.5-.54-.653 0-1.16.2533-1.52.76-.346.4933-.52 1.2266-.52 2.2 0 .84.127 1.6066.38 2.3.254.68.6 1.22 1.04 1.62.44.3866.947.58 1.52.58Zm8.109.3c-.68 0-1.22-.2134-1.62-.64-.387-.44-.58-1.0467-.58-1.82v-3.02c0-.5067-.047-.8734-.14-1.1-.08-.2267-.233-.34-.46-.34-.173 0-.38.06-.62.18-.053.0266-.1 0-.14-.08-.027-.08-.013-.1267.04-.14l2.36-1.1a.1766.1766 0 0 1 .08-.02c.053 0 .107.02.16.06.053.04.08.0866.08.14v4.66c0 .7733.133 1.3466.4 1.72.28.36.7.54 1.26.54.48 0 .953-.14 1.42-.42.48-.28.887-.6467 1.22-1.1l.1.22c-.56.7466-1.133 1.3133-1.72 1.7-.573.3733-1.187.56-1.84.56Zm4.44-7.88v5.5c0 .4533.047.78.14.98.107.2.28.3.52.3.12 0 .253-.02.4-.06.16-.0534.353-.1267.58-.22.053-.0267.093 0 .12.08.04.0666.04.1133 0 .14l-2.48 1.18c-.027.0133-.06.02-.1.02-.107 0-.227-.1467-.36-.44-.12-.3067-.18-.74-.18-1.3v-3.78c0-.5067-.047-.8734-.14-1.1-.093-.2267-.247-.34-.46-.34-.173 0-.387.06-.64.18-.04.0266-.08 0-.12-.08-.027-.08-.013-.1267.04-.14l2.36-1.1a.1766.1766 0 0 1 .08-.02c.04 0 .087.02.14.06.067.04.1.0866.1.14Zm5.541 7.94c-.32 0-.633-.0534-.94-.16-.306-.0934-.56-.2667-.76-.52-.186-.2534-.28-.5934-.28-1.02v-4.62c0-.3067-.026-.54-.08-.7-.053-.16-.153-.2667-.3-.32-.146-.0534-.366-.08-.66-.08-.04 0-.06-.0467-.06-.14 0-.1067.02-.16.06-.16.587-.0134 1.06-.1534 1.42-.42.374-.28.607-.66.7-1.14.014-.04.067-.06.16-.06.094 0 .14.02.14.06v6.9c0 .5466.134.9466.4 1.2.28.2533.66.38 1.14.38.334 0 .634-.06.9-.18.28-.12.507-.2467.68-.38.054-.04.1-.0267.14.04.054.0533.054.1 0 .14-.493.4133-.946.7133-1.36.9-.413.1866-.846.28-1.3.28Zm2.06-6.98c-.533-.12-1.046-.2-1.54-.24-.493-.04-1.013-.06-1.56-.06v-.46c.534 0 1.047-.02 1.54-.06.507-.04 1.047-.0867 1.62-.14.04 0 .074.0466.1.14.027.0933.04.2.04.32 0 .1066-.02.22-.06.34-.04.12-.086.1733-.14.16Zm10.306 7c-.814 0-1.52-.1934-2.12-.58-.587-.3867-1.04-.9-1.36-1.54-.32-.6534-.48-1.3534-.48-2.1 0-.6934.126-1.2934.38-1.8.266-.5067.613-.92 1.04-1.24.426-.3334.893-.58 1.4-.74.506-.16 1.006-.24 1.5-.24.826 0 1.533.2 2.12.6.586.4 1.033.9133 1.34 1.54.32.6266.48 1.2866.48 1.98 0 .84-.2 1.5733-.6 2.2-.4.6133-.927 1.0866-1.58 1.42-.64.3333-1.347.5-2.12.5Zm.58-.38c.653 0 1.16-.2534 1.52-.76.373-.52.56-1.3067.56-2.36 0-.8934-.134-1.66-.4-2.3-.267-.6534-.627-1.1534-1.08-1.5-.44-.36-.94-.54-1.5-.54-.654 0-1.16.2533-1.52.76-.347.4933-.52 1.2266-.52 2.2 0 .84.126 1.6066.38 2.3.253.68.6 1.22 1.04 1.62.44.3866.946.58 1.52.58Zm5.008.12c-.04 0-.06-.04-.06-.12 0-.08.02-.12.06-.12.56 0 .92-.0867 1.08-.26.16-.1734.24-.5467.24-1.12v-4.5c0-.32-.033-.5534-.1-.7-.067-.1467-.2-.24-.4-.28-.2-.0534-.5-.08-.9-.08-.04 0-.06-.0467-.06-.14 0-.0934.02-.14.06-.14.533 0 .893-.0667 1.08-.2.187-.1334.287-.3667.3-.7.067-2.2134.473-3.7934 1.22-4.74.76-.9467 1.847-1.42 3.26-1.42.72 0 1.287.1066 1.7.32.427.2.64.46.64.78 0 .24-.087.4266-.26.56-.16.12-.34.18-.54.18-.227 0-.4-.0534-.52-.16-.12-.12-.247-.2734-.38-.46-.16-.2534-.34-.4534-.54-.6-.2-.16-.473-.24-.82-.24-.68 0-1.247.42-1.7 1.26-.44.84-.66 2.2066-.66 4.1v7.16c0 .3866.04.68.12.88.093.2.273.3333.54.4.28.0666.7.1 1.26.1.04 0 .06.04.06.12 0 .08-.02.12-.06.12-.453 0-.893-.0067-1.32-.02-.427-.0134-.86-.02-1.3-.02-.373 0-.733.0066-1.08.02a23.2 23.2 0 0 1-.92.02Zm5.1-6.74c-.52-.12-1.02-.2-1.5-.24-.467-.04-.967-.06-1.5-.06v-.46c.507 0 1.007-.02 1.5-.06.493-.04 1.013-.0867 1.56-.14.04 0 .073.0466.1.14.027.0933.04.2.04.32 0 .1066-.027.22-.08.34-.04.12-.08.1733-.12.16Zm9.721 6.98c-.92 0-1.673-.1934-2.26-.58-.573-.4-1-.9-1.28-1.5-.266-.6134-.4-1.2334-.4-1.86 0-.6667.134-1.26.4-1.78.267-.52.614-.96 1.04-1.32.44-.36.927-.6334 1.46-.82.534-.1867 1.06-.28 1.58-.28.374 0 .74.0533 1.1.16.374.1066.68.26.92.46.24.1866.36.4133.36.68 0 .1866-.073.36-.22.52-.133.1466-.333.22-.6.22-.253 0-.46-.0734-.62-.22-.16-.1467-.286-.3334-.38-.56-.12-.2667-.266-.4734-.44-.62-.173-.16-.446-.24-.82-.24-.706 0-1.26.2933-1.66.88-.386.5866-.58 1.3533-.58 2.3 0 .6666.114 1.2933.34 1.88.227.5733.58 1.0333 1.06 1.38.48.3466 1.107.52 1.88.52.374 0 .72-.0467 1.04-.14.334-.1067.654-.2667.96-.48.04-.0267.08-.0134.12.04.054.0533.06.0933.02.12-.453.4133-.92.7266-1.4.94-.48.2-1.02.3-1.62.3Zm9.903-.12c-.053.0266-.113.04-.18.04-.2 0-.393-.1467-.58-.44-.173-.3067-.26-.74-.26-1.3v-3.52c0-.5867-.053-1.0534-.16-1.4-.093-.3467-.233-.5934-.42-.74-.173-.16-.38-.24-.62-.24-.293 0-.54.0733-.74.22-.2.1466-.353.3466-.46.6-.093.24-.16.5066-.2.8-.027.2533-.107.4666-.24.64-.12.16-.333.24-.64.24-.24 0-.427-.06-.56-.18-.133-.12-.2-.2867-.2-.5 0-.2534.127-.5067.38-.76.253-.2667.573-.5134.96-.74a6.04 6.04 0 0 1 1.2-.54c.427-.1334.82-.2 1.18-.2.533 0 .98.18 1.34.54.36.3466.54.9.54 1.66v3.54c0 .44.06.7666.18.98.12.2133.313.32.58.32.227 0 .52-.0734.88-.22.053-.0267.093 0 .12.08.04.0666.027.1133-.04.14l-2.06.98Zm-4.02.02c-.427 0-.753-.1134-.98-.34-.227-.2267-.34-.5134-.34-.86 0-.4134.16-.7267.48-.94.32-.2134.833-.44 1.54-.68l2.5-.86.06.24-2.04.78c-.32.12-.547.2533-.68.4-.133.1466-.2.3333-.2.56 0 .28.08.5.24.66.16.16.367.24.62.24.133 0 .273-.02.42-.06.147-.04.3-.0934.46-.16l1.52-.8.02.28-1.72.94c-.387.2-.733.3533-1.04.46-.293.0933-.58.14-.86.14Zm6.698 5.36c-.04 0-.06-.04-.06-.12 0-.08.02-.12.06-.12.507 0 .834-.0867.98-.26.16-.1734.24-.5467.24-1.12v-9.36c0-.4534-.053-.78-.16-.98-.093-.2134-.273-.32-.54-.32-.12 0-.266.0266-.44.08-.173.04-.366.1133-.58.22-.053.0133-.093-.0134-.12-.08-.04-.08-.04-.1267 0-.14l2.4-1.16c.04-.0267.087-.04.14-.04.174 0 .327.1533.46.46.134.3066.2.76.2 1.36v9.96c0 .3733.047.66.14.86.094.2.274.3333.54.4.28.08.694.12 1.24.12.04 0 .06.04.06.12 0 .08-.02.12-.06.12-.36 0-.76-.0067-1.2-.02-.44-.0134-.906-.02-1.4-.02-.36 0-.706.0066-1.04.02-.333.0133-.62.02-.86.02Zm4.56-5.24c-.506 0-.953-.0534-1.34-.16-.373-.1067-.806-.3067-1.3-.6l.42-1.14c.347.4133.72.76 1.12 1.04.414.28.96.42 1.64.42.667 0 1.214-.2934 1.64-.88.44-.6.66-1.4734.66-2.62 0-1.1334-.253-1.9867-.76-2.56-.506-.5867-1.113-.88-1.82-.88-.56 0-1.053.1533-1.48.46-.413.3066-.82.68-1.22 1.12l-.18-.18c.68-.7867 1.334-1.36 1.96-1.72.627-.36 1.26-.54 1.9-.54.56 0 1.074.1466 1.54.44.467.28.84.6933 1.12 1.24.294.5466.44 1.2133.44 2 0 .8266-.14 1.5333-.42 2.12-.266.5733-.626 1.04-1.08 1.4-.44.36-.906.62-1.4.78-.493.1733-.973.26-1.44.26Zm6.035-.26c-.04 0-.06-.04-.06-.12 0-.08.02-.12.06-.12.48 0 .8-.0867.96-.26.16-.1867.24-.56.24-1.12v-3.68c0-.4667-.046-.8067-.14-1.02-.093-.2134-.26-.32-.5-.32-.106 0-.233.02-.38.06-.133.04-.293.1066-.48.2-.053.0133-.1-.0134-.14-.08-.026-.08-.013-.1334.04-.16l2.72-1.26c.04-.0134.067-.02.08-.02.04 0 .08.02.12.06.054.04.08.0866.08.14 0 .12-.006.38-.02.78-.013.4-.02.9266-.02 1.58v3.72c0 .56.074.9333.22 1.12.16.1733.487.26.98.26.04 0 .06.04.06.12 0 .08-.02.12-.06.12-.24 0-.526-.0067-.86-.02-.32-.0134-.66-.02-1.02-.02s-.7.0066-1.02.02c-.32.0133-.606.02-.86.02Zm1.76-10.14c-.306 0-.546-.08-.72-.24-.173-.1734-.26-.4134-.26-.72 0-.2934.087-.52.26-.68.174-.16.414-.24.72-.24.307 0 .54.08.7.24.16.16.24.3866.24.68 0 .64-.313.96-.94.96Zm6.391 10.38c-.32 0-.634-.0534-.94-.16-.307-.0934-.56-.2667-.76-.52-.187-.2534-.28-.5934-.28-1.02v-4.62c0-.3067-.027-.54-.08-.7-.054-.16-.154-.2667-.3-.32-.147-.0534-.367-.08-.66-.08-.04 0-.06-.0467-.06-.14 0-.1067.02-.16.06-.16.586-.0134 1.06-.1534 1.42-.42.373-.28.606-.66.7-1.14.013-.04.066-.06.16-.06.093 0 .14.02.14.06v6.9c0 .5466.133.9466.4 1.2.28.2533.66.38 1.14.38.333 0 .633-.06.9-.18.28-.12.506-.2467.68-.38.053-.04.1-.0267.14.04.053.0533.053.1 0 .14-.494.4133-.947.7133-1.36.9a3.128 3.128 0 0 1-1.3.28Zm2.06-6.98c-.534-.12-1.047-.2-1.54-.24-.494-.04-1.014-.06-1.56-.06v-.46c.533 0 1.046-.02 1.54-.06.506-.04 1.046-.0867 1.62-.14.04 0 .073.0466.1.14.026.0933.04.2.04.32 0 .1066-.02.22-.06.34-.04.12-.087.1733-.14.16Zm7.278 6.86a.4018.4018 0 0 1-.18.04c-.2 0-.394-.1467-.58-.44-.174-.3067-.26-.74-.26-1.3v-3.52c0-.5867-.054-1.0534-.16-1.4-.094-.3467-.234-.5934-.42-.74-.174-.16-.38-.24-.62-.24-.294 0-.54.0733-.74.22-.2.1466-.354.3466-.46.6-.094.24-.16.5066-.2.8-.027.2533-.107.4666-.24.64-.12.16-.334.24-.64.24-.24 0-.427-.06-.56-.18-.134-.12-.2-.2867-.2-.5 0-.2534.126-.5067.38-.76.253-.2667.573-.5134.96-.74a5.989 5.989 0 0 1 1.2-.54c.426-.1334.82-.2 1.18-.2.533 0 .98.18 1.34.54.36.3466.54.9.54 1.66v3.54c0 .44.06.7666.18.98.12.2133.313.32.58.32.226 0 .52-.0734.88-.22.053-.0267.093 0 .12.08.04.0666.026.1133-.04.14l-2.06.98Zm-4.02.02c-.427 0-.754-.1134-.98-.34-.227-.2267-.34-.5134-.34-.86 0-.4134.16-.7267.48-.94.32-.2134.833-.44 1.54-.68l2.5-.86.06.24-2.04.78c-.32.12-.547.2533-.68.4-.134.1466-.2.3333-.2.56 0 .28.08.5.24.66.16.16.366.24.62.24.133 0 .273-.02.42-.06.146-.04.3-.0934.46-.16l1.52-.8.02.28-1.72.94c-.387.2-.734.3533-1.04.46-.294.0933-.58.14-.86.14Zm6.858-.14c-.027 0-.04-.04-.04-.12 0-.08.013-.12.04-.12.493 0 .813-.0867.96-.26.16-.1867.24-.56.24-1.12l.02-10.28c0-.4667-.047-.8067-.14-1.02-.08-.2134-.24-.32-.48-.32-.2 0-.487.0866-.86.26-.053.0266-.1 0-.14-.08-.027-.08-.02-.1267.02-.14l2.68-1.28a.1766.1766 0 0 1 .08-.02c.04 0 .087.02.14.06.067.04.1.0866.1.14v12.68c0 .5466.073.9133.22 1.1.147.1866.467.28.96.28.053 0 .08.04.08.12 0 .08-.027.12-.08.12-.24 0-.527-.0067-.86-.02-.32-.0134-.667-.02-1.04-.02-.36 0-.707.0066-1.04.02-.32.0133-.607.02-.86.02Zm5.435 0c-.04 0-.06-.04-.06-.12 0-.08.02-.12.06-.12.48 0 .8-.0867.96-.26.16-.1867.24-.56.24-1.12v-3.68c0-.4667-.047-.8067-.14-1.02-.093-.2134-.26-.32-.5-.32-.107 0-.233.02-.38.06-.133.04-.293.1066-.48.2-.053.0133-.1-.0134-.14-.08-.027-.08-.013-.1334.04-.16l2.72-1.26c.04-.0134.067-.02.08-.02.04 0 .08.02.12.06.053.04.08.0866.08.14 0 .12-.007.38-.02.78-.013.4-.02.9266-.02 1.58v3.72c0 .56.073.9333.22 1.12.16.1733.487.26.98.26.04 0 .06.04.06.12 0 .08-.02.12-.06.12-.24 0-.527-.0067-.86-.02-.32-.0134-.66-.02-1.02-.02s-.7.0066-1.02.02c-.32.0133-.607.02-.86.02Zm1.76-10.14c-.307 0-.547-.08-.72-.24-.173-.1734-.26-.4134-.26-.72 0-.2934.087-.52.26-.68.173-.16.413-.24.72-.24s.54.08.7.24c.16.16.24.3866.24.68 0 .64-.313.96-.94.96Zm4.771 3.56c0 .32.08.6.24.84.173.2266.393.4266.66.6.266.1733.546.3466.84.52.346.1733.673.36.98.56.32.1866.58.42.78.7.2.28.3.6466.3 1.1 0 .4266-.107.8333-.32 1.22-.214.3733-.534.68-.96.92-.427.2266-.96.34-1.6.34-.32 0-.64-.04-.96-.12-.32-.08-.654-.2334-1-.46a.6012.6012 0 0 1-.08-.1c-.027-.04-.04-.0867-.04-.14l-.04-1.68c0-.04.033-.06.1-.06.08-.0134.126-.0067.14.02.16.44.36.8266.6 1.16.253.32.533.5666.84.74.32.1733.66.26 1.02.26.373 0 .666-.1.88-.3.213-.2.313-.5.3-.9 0-.3734-.094-.68-.28-.92a2.11 2.11 0 0 0-.66-.62 8.6326 8.6326 0 0 0-.84-.48c-.32-.16-.634-.3334-.94-.52-.307-.1867-.56-.42-.76-.7-.187-.28-.28-.6467-.28-1.1 0-.5334.133-.9667.4-1.3.28-.3334.633-.5734 1.06-.72.426-.16.866-.24 1.32-.24.266 0 .52.0266.76.08.24.04.493.1133.76.22.12.0533.18.1266.18.22 0 .24-.007.4866-.02.74-.014.2533-.02.5266-.02.82 0 .04-.04.06-.12.06-.08 0-.12-.02-.12-.06 0-.28-.107-.5467-.32-.8-.214-.2534-.48-.46-.8-.62-.32-.1734-.654-.26-1-.26-.28 0-.52.0733-.72.22-.187.1466-.28.4-.28.76Zm15.817 6.58c-.026 0-.04-.04-.04-.12 0-.08.014-.12.04-.12.494 0 .82-.0867.98-.26.16-.1867.24-.56.24-1.12v-3.08c0-1.52-.553-2.28-1.66-2.28-.453 0-.906.14-1.36.42-.453.28-.84.6533-1.16 1.12l-.08-.24c.534-.7467 1.08-1.3067 1.64-1.68.56-.3867 1.154-.58 1.78-.58.694 0 1.227.2 1.6.6.387.4.58 1.02.58 1.86v3.86c0 .56.074.9333.22 1.12.16.1733.487.26.98.26.054 0 .08.04.08.12 0 .08-.026.12-.08.12-.24 0-.526-.0067-.86-.02-.32-.0134-.66-.02-1.02-.02-.346 0-.686.0066-1.02.02-.32.0133-.606.02-.86.02Zm-5.18 0c-.04 0-.06-.04-.06-.12 0-.08.02-.12.06-.12.48 0 .8-.0867.96-.26.16-.1867.24-.56.24-1.12v-3.08c0-1.52-.546-2.28-1.64-2.28-.466 0-.926.14-1.38.42-.44.28-.82.6533-1.14 1.12l-.08-.24c.534-.7467 1.08-1.3067 1.64-1.68.56-.3867 1.147-.58 1.76-.58.694 0 1.234.2 1.62.6.387.3866.58.9733.58 1.76v3.96c0 .56.074.9333.22 1.12.16.1733.487.26.98.26.04 0 .06.04.06.12 0 .08-.02.12-.06.12-.253 0-.54-.0067-.86-.02-.32-.0134-.66-.02-1.02-.02s-.706.0066-1.04.02c-.32.0133-.6.02-.84.02Zm-5.14 0c-.04 0-.06-.04-.06-.12 0-.08.02-.12.06-.12.48 0 .794-.0867.94-.26.16-.1867.24-.56.24-1.12v-3.9c0-.4267-.053-.74-.16-.94-.093-.2-.26-.3-.5-.3-.133 0-.286.0266-.46.08-.173.04-.373.1066-.6.2-.053.0266-.093.0066-.12-.06-.026-.08-.02-.1334.02-.16l2.46-1.18c.054-.0134.094-.02.12-.02.12 0 .254.1466.4.44.147.2933.22.7133.22 1.26v4.58c0 .56.074.9333.22 1.12.16.1733.487.26.98.26.04 0 .06.04.06.12 0 .08-.02.12-.06.12-.253 0-.54-.0067-.86-.02-.32-.0134-.66-.02-1.02-.02s-.706.0066-1.04.02c-.32.0133-.6.02-.84.02Zm16.512.22c-.293 0-.533-.0867-.72-.26-.173-.1734-.26-.4134-.26-.72 0-.28.087-.5.26-.66.187-.1734.427-.26.72-.26.32 0 .56.0866.72.26.16.16.24.38.24.66 0 .3066-.08.5466-.24.72-.16.1733-.4.26-.72.26Z"/></svg>
