<svg xmlns="http://www.w3.org/2000/svg" width="121" height="120" fill="none" viewBox="0 0 121 120"><path fill="#fff" d="M74.228 47.547c1.342-.87 2.614-1.703 3.894-2.524 3.249-2.087 6-4.562 8.39-7.328 1.766-2.042 3.382-4.138 4.793-6.305 1.699-2.61 2.715-5.237 3.073-7.887.051-.374.139-.759.266-1.14.04-.119.265-.309.402-.34a.5.5 0 0 1 .434.13c.088.099.065.276.087.422.51 3.591-.555 7.288-2.907 11.076-1.587 2.554-3.278 5.07-5.446 7.433-2.317 2.529-5.143 4.488-8.318 6.04-1.437.703-2.854.947-4.166.642-.182-.042-.329-.141-.502-.219M86.805 46.725c-.053.434-.022.907-.174 1.296-.315.809-.618 1.67-1.118 2.343-2.802 3.779-6.165 6.814-10.381 8.627-1.853.798-3.802.952-5.777.79-.963-.08-1.687-.629-2.286-1.392-.2-.254-.42-.555-.093-.88.266-.263.59-.125.72.105.437.764 1.111.65 1.766.669 2.61.076 5.04-.642 7.332-1.935 2.618-1.474 4.983-3.34 7.126-5.52 1.142-1.16 2.094-2.488 2.57-4.157l.316.052zM81.25 80.656c.383-.323.726-.626 1.083-.911.714-.569 1.458-1.094 2.285-1.49.131-.061.27-.116.41-.153.287-.073.498.092.493.387-.006.33-.04.662-.041.992 0 .17.028.343.07.51.077.311.21.355.45.133.18-.168.35-.355.485-.56.162-.248.285-.522.417-.789.068-.135.154-.24.318-.228.156.01.227.112.26.26.097.418.63.74 1.054.632.153-.04.3-.103.453-.151.193-.061.35-.006.409.14.059.145-.009.296-.196.382-.77.348-1.283.343-1.879-.218-.026-.025-.057-.048-.103-.084-.083.125-.15.255-.242.36-.239.272-.459.57-.741.79-.473.365-.98.194-1.192-.367-.16-.42-.164-.86-.133-1.301.004-.07.011-.137.021-.244-.107.05-.186.083-.263.124-1.16.622-2.167 1.446-3.14 2.324-.384.346-.555.745-.654 1.239-.473 2.332-.974 4.66-1.748 6.916-.284.825-.609 1.635-1.064 2.383-.216.356-.457.693-.799.941-.611.445-1.307.305-1.708-.341-.33-.534-.36-1.125-.276-1.72.192-1.363.734-2.607 1.391-3.798a29.2 29.2 0 0 1 3.721-5.264c.071-.08.12-.197.141-.302.382-1.838.706-3.69 1.232-5.494.072-.248.175-.491.287-.724.06-.127.203-.209.337-.14.09.047.148.17.203.267.019.034-.007.1-.026.145-.486 1.132-.688 2.34-.951 3.531-.12.535-.222 1.073-.33 1.609-.012.055-.016.111-.03.213zm-1.005 2.007-.055-.037c-.023.038-.041.08-.068.113-1.078 1.359-2.084 2.769-2.92 4.293-.616 1.126-1.134 2.294-1.346 3.574-.078.471-.078.943.161 1.379.231.422.614.506.96.175.245-.235.48-.507.632-.806.341-.68.67-1.373.93-2.088.663-1.83 1.082-3.726 1.498-5.621.072-.326.138-.653.208-.98zM89.839 78.877c-.085-.112-.164-.202-.227-.304-.1-.156-.078-.341.036-.436.119-.097.29-.077.43.058.09.088.174.18.264.277.401-.3.787-.59 1.177-.875.153-.112.31-.256.518-.145.2.105.171.309.172.492.002.223.009.446 0 .668a1.47 1.47 0 0 1-.345.93c.484.13.931.299 1.394.362 1.247.17 2.438-.094 3.557-.635.748-.361 1.458-.804 2.173-1.228.168-.1.302-.265.436-.415.115-.127.281-.165.425-.067.14.094.185.28.07.418-.129.155-.276.303-.44.419-1.303.92-2.682 1.69-4.27 2-1.047.205-2.087.21-3.1-.194-.376-.151-.769-.266-1.14-.43-.212-.094-.402-.245-.584-.392-.109-.088-.178-.091-.273.005a.6.6 0 0 1-.19.124c-.164.073-.343.017-.415-.123-.073-.144-.003-.337.157-.422l.176-.087zm1.838-.613q-.03-.016-.057-.033c-.273.207-.547.414-.843.64.15.083.267.16.392.216.243.107.355.056.415-.206.048-.202.064-.41.093-.617M82.946 71.611c-.019.216-.064.354-.242.381-.165.026-.266-.073-.316-.217a4 4 0 0 1-.138-.512c-.028-.15.021-.28.183-.333.153-.05.3.02.364.19.067.176.11.361.148.488zM84.466 57.495a2.4 2.4 0 0 0-.963.335c-.555.334-1.014.78-1.441 1.259-.988 1.106-1.774 2.352-2.467 3.654-1.974 3.709-3.398 7.628-4.762 11.603-.144.42-1.946 2.153-2.845 3.017-.88.845-1.812 1.632-2.875 2.246-1.244.721-2.562 1.178-4.028 1.037-.954-.091-1.763-.481-2.357-1.249-.595-.77-.463-1.865-1.09-2.556-.51-.562-.623 0-.623 0 .083.447.19.89.349 1.327.343.941.836 1.784 1.673 2.377 1.075.762 2.285.858 3.538.666 1.298-.2 2.452-.754 3.523-1.493 1.373-.947 2.413-1.84 3.586-3.016.174-.173.46-.456.63-.633.012.01-.235 1.06-.365 1.601-.231.964-.443 1.844-.549 2.837-.094.887.116 1.546.902 1.481.014 0 .391.068.473-.075.08-.14.032-.319-.127-.431-.106-.077-.287-.057-.405-.11-.271-.126-.215-.473-.203-.641.03-.46.07-.75.169-1.194.336-1.508.965-4.03 1.036-4.11.549-.628 1.354-1.348 2-2.024 2.53-2.646 5.044-5.598 6.997-8.695.68-1.077 1.1-1.977 1.56-3.17.248-.637.723-1.971.284-3.146-.26-.699-.84-.997-1.621-.898zm.51 2.526c-.329 1.03-.841 1.973-1.396 2.893-1.7 2.824-3.625 5.49-5.698 8.05-.624.77-1.274 1.517-1.913 2.275-.048.057-.102.11-.153.164-.086.089-.062.037-.042-.021.142-.43.28-.86.427-1.287 1.17-3.38 2.58-6.654 4.341-9.77.645-1.14 1.37-2.23 2.306-3.159.31-.307.669-.57 1.026-.825.15-.109.347-.17.532-.21.431-.095.708.115.762.553.056.463-.054.903-.192 1.337M50.8 100.736h-.312c-.053.058.123.05.312 0"/><path fill="#fff" d="M94.61 19.228c-.657-.314-1.211-.363-1.784.235-.532.558-1.173.99-1.742 1.51a142 142 0 0 0-11.052 11.298c-3.96 4.54-7.847 9.15-11.425 14.051-5.807 7.955-10.341 16.697-13.93 26.026-2.08 5.4-3.671 10.947-4.49 16.741-.296 2.099-.48 4.191-.434 6.281l-.675.072c-10.714 1.163-16.434.788-17-1.115-.61-2.053 3.084-4.52 5.361-5.653.259-.128.613-.304.815-.633.159-.26.197-.58.107-.9a1.58 1.58 0 0 0-.785-.953c-3.828-1.952-12.1-1.64-16.355-.679a.283.283 0 1 0 .125.553c3.663-.826 12.135-1.325 15.97.631.232.119.427.354.496.6a.56.56 0 0 1-.045.449c-.109.176-.32.292-.585.423-.671.334-6.534 3.351-5.651 6.325.495 1.663 3.583 2.2 7.573 2.2 3.068 0 6.67-.318 10.034-.682.445-.048.81-.088 1.07-.113a.28.28 0 0 0 .245-.2h.005l.003-.085.003-.024-.002-.006a33 33 0 0 1 .05-1.66c.227-3.978.96-7.868 2.038-11.663 3.245-11.445 8.22-21.963 14.92-31.514 5.476-7.809 11.847-14.716 18.786-21.015 2.78-2.525 5.702-4.86 8.888-6.78.684-.411 1.39-.782 2.177-1.224-.666-1.208-1.492-1.915-2.715-2.496z"/></svg>
